<svg width="506" height="126" viewBox="0 0 506 126" fill="none" xmlns="http://www.w3.org/2000/svg">
<path d="M184.75 104.07C169.9 104.07 157 91.82 157 70.93C157 45.31 176.58 38.63 184.75 38.63C191.53 38.63 202.2 43.55 202.2 54.32C202.2 56.73 200.81 66.2 191.25 66.2C189.86 66.2 184.38 65.18 184.38 60.35C184.38 57.84 186.33 56.73 188 56.73C189.11 56.73 189.95 57.29 190.69 58.03C191.06 58.4 191.34 58.49 191.8 58.49C193.01 58.49 194.12 57.56 194.12 54.31C194.12 50.13 190.04 46.42 184.65 46.42C180.01 46.42 174.72 48.83 171.1 53.01C167.29 57.09 165.07 62.48 165.07 71.02C165.07 77.52 166.28 84.29 170.17 89.21C173.51 93.57 178.15 96.36 184.74 96.36C190.22 96.36 193.28 94.69 195.41 92.74C198.1 90.33 199.31 87.63 201.72 87.63C203.67 87.63 205.15 88.93 205.15 91.25C205.15 93.57 203.76 95.33 202.55 96.82C200.42 99.42 193.64 104.06 184.73 104.06L184.75 104.07Z" fill="#194F90"/>
<path d="M212.6 90.52L212.23 58.59C212.14 54.32 211.67 52.46 209.63 50.51C208.8 49.68 208.14 48.75 208.14 47.45C208.14 45.78 209.44 43.74 211.85 43.74C213.24 43.74 214.91 44.67 216.31 46.25C218.35 48.48 220.02 52.28 220.12 58.41L220.58 92.66C220.67 96.74 223.27 97.67 223.27 100.36C223.27 101.01 222.71 103.52 219.74 103.52C215.84 103.52 212.69 99.71 212.59 90.52H212.6Z" fill="#194F90"/>
<path d="M227.17 85.14C227.17 79.94 232.55 66.95 246.29 66.95C252.79 66.95 258.73 70.94 258.73 79.02C258.73 89.97 246.57 93.0399 239.33 93.0399C238.5 93.0399 237.47 92.76 236.82 92.58C238.95 95.27 242.11 96.7599 245.36 96.7599C248.42 96.7599 252.41 95.74 254.36 93.2299C255.1 92.2099 256.12 91.56 257.42 91.56C259.56 91.56 260.39 93.42 260.39 95.09C260.39 98.99 256.21 104.09 244.7 104.09C239.5 104.09 227.16 100.1 227.16 85.16L227.17 85.14ZM235.06 85.14V86.07C236.36 86.91 237.75 87.1799 239.89 87.1799C246.57 87.1799 250.84 82.8199 250.84 79.0099C250.84 75.7599 249.63 74.55 246.29 74.55C239.05 74.55 235.06 82.07 235.06 85.13V85.14Z" fill="#194F90"/>
<path d="M289.64 99.4299C286.39 101.84 282.31 104.07 278.04 104.07C267.64 104.07 263.93 97.3899 263.93 92.6499C263.93 82.5299 273.21 79.8399 279.34 79.8399C283.15 79.8399 285.93 80.4899 287.88 81.4199C287.42 79.4699 286.86 77.9899 286.02 76.8699C284.81 75.3799 283.23 74.5499 280.82 74.5499C277.2 74.5499 275.99 76.4999 274.51 77.9799C273.58 78.8199 272.56 79.5599 270.8 79.5599C269.04 79.5599 267.64 77.9799 267.64 76.0299C267.64 72.3199 273.67 66.9299 280.82 66.9299C286.48 66.9299 290.38 69.3399 292.79 72.9599C293.53 74.1699 295.39 75.6499 296.13 89.2999C296.22 91.7099 295.67 96.6299 297.89 98.2999C298.45 98.8599 299 99.5999 299 100.43C299 102.47 297.33 104.05 295.1 104.05C293.52 104.05 291.39 102.75 289.62 99.4099L289.64 99.4299ZM271.82 92.6499C271.82 94.3199 273.21 96.5499 278.04 96.5499C285.28 96.5499 288.53 92.6499 288.53 91.4499C288.53 88.1099 282.59 86.7199 278.97 86.7199C274.14 86.7199 271.82 88.8499 271.82 92.6599V92.6499Z" fill="#194F90"/>
<path d="M324.26 66.95C334.93 66.95 338 74.75 338.28 82.91L338.56 90.8C338.65 93.4 338.28 96.46 340.51 98.41C341.44 99.15 341.53 100.27 341.53 100.45C341.53 102.68 339.58 104.16 337.35 104.16C334.38 104.16 330.95 101.28 330.76 94.14L330.48 85.14C330.2 75.86 327.97 74.56 324.35 74.56C319.52 74.56 314.23 77.9 314.23 91.92V100.09C314.23 103.15 310.89 103.52 310.05 103.52C308.66 103.52 306.34 102.78 306.34 100.09V81.25C306.34 74.85 302.35 74.1999 302.35 71.0399C302.35 69.2799 303.74 67.33 306.16 67.33C309.32 67.33 310.8 71.14 312.01 73.64C314.33 70.86 318.14 66.96 324.26 66.96V66.95Z" fill="#194F90"/>
<path d="M360.46 67.9699C362.87 67.9699 364.92 68.8999 364.92 70.9399C364.92 75.1199 361.39 75.3999 360.65 75.3999H358.14C357.68 75.3999 356.93 75.6799 356.93 76.0499V87.0999C356.93 96.0099 358.6 96.5699 360.36 96.5699C361.75 96.5699 362.31 94.8099 364.26 94.8099C367.32 94.8099 367.69 97.5899 367.69 98.7099C367.69 100.94 365.09 104.09 360.26 104.09C353.21 104.09 348.94 99.8199 348.94 87.0999V76.5199C348.94 75.9599 348.38 75.7799 346.71 75.7799C344.02 75.7799 343.46 74.2899 343.46 72.0699C343.46 69.0999 344.67 68.1699 348.75 67.9899V65.2999C348.75 60.0999 346.15 59.2699 346.15 56.0199C346.15 53.7899 348.66 52.6799 350.51 52.6799C352.36 52.6799 354.5 55.4699 355.43 57.7899C356.45 60.6699 356.91 64.2899 357.01 67.9999H360.44L360.46 67.9699Z" fill="#194F90"/>
<path d="M371.04 86.72C371.04 78.64 376.24 73.45 380.23 72.61C381.99 69.08 387.28 66.95 390.25 66.95C397.4 66.95 406.86 73.45 406.86 85.9799C406.86 92.8499 401.29 104.08 389.41 104.08C376.04 104.08 371.03 93.31 371.03 86.72H371.04ZM378.93 86.63C378.93 88.86 380.23 92.38 382.27 94.24C383.94 95.63 386.26 96.56 389.42 96.56C391.46 96.56 393.32 95.82 394.8 94.61C397.4 92.57 398.98 89.1299 398.98 85.9799C398.98 79.2999 394.71 74.56 390.25 74.56C387.93 74.56 385.05 75.77 385.05 79.11C385.05 80.97 386.81 81.52 387.65 82.36C388.02 82.73 388.21 83.1 388.21 83.57C388.21 84.59 387.84 85.6099 387.19 86.2599C386.54 87.0999 385.52 87.56 384.5 87.56C382.64 87.56 380.04 85.05 379.12 84.03C378.93 85.14 378.93 86.07 378.93 86.63Z" fill="#194F90"/>
<path d="M421.25 99.0599L420.97 111.31C420.88 115.77 419.67 120.13 417.35 122.73C415.96 124.4 414.29 125.33 412.89 125.33C410.48 125.33 409.18 123.29 409.18 121.8C409.18 120.41 409.83 119.48 410.67 118.64C412.71 116.51 413.18 114.74 413.27 110.47L413.73 80.6699C413.73 78.8099 413.73 74.2699 412.71 72.6899C412.34 71.9499 411.97 70.9299 411.97 70.0899C411.97 67.6799 414.57 66.9299 415.87 66.9299C417.63 66.9299 420.14 69.1599 420.97 71.4799C422.64 69.3499 426.08 66.9299 430.35 66.9299C441.86 66.9299 447.43 75.7499 447.43 85.3999C447.43 95.6099 440.75 104.06 431.84 104.06C428.13 104.06 424.14 102.02 421.26 99.0499L421.25 99.0599ZM421.71 86.1599C421.71 91.5399 424.77 96.5599 431.92 96.5599C435.45 96.5599 439.62 92.3799 439.62 85.4199C439.62 77.8099 435.81 74.5599 430.52 74.5599C424.49 74.5599 421.7 79.7599 421.7 86.1599H421.71Z" fill="#194F90"/>
<path d="M455.69 91.8199L455.88 71.8599C455.88 70.2799 456.81 66.9399 460.43 66.9399C462.38 66.9399 463.96 68.2399 463.86 73.8099L463.67 93.7699C463.58 98.9699 467.01 96.7399 467.01 100.55C467.01 102.5 465.8 104.08 463.11 104.08C456.8 104.08 455.69 96.2799 455.69 91.8299V91.8199ZM455.97 59.6999C455.97 57.4699 457.64 55.4299 460.15 55.4299C462.66 55.4299 464.33 57.4699 464.33 59.6999C464.33 61.9299 462.66 63.8799 460.15 63.8799C457.64 63.8799 455.97 61.8399 455.97 59.6999Z" fill="#194F90"/>
<path d="M495.79 99.4299C492.54 101.84 488.46 104.07 484.19 104.07C473.79 104.07 470.08 97.3899 470.08 92.6499C470.08 82.5299 479.36 79.8399 485.49 79.8399C489.3 79.8399 492.08 80.4899 494.03 81.4199C493.57 79.4699 493.01 77.9899 492.17 76.8699C490.96 75.3799 489.38 74.5499 486.97 74.5499C483.35 74.5499 482.14 76.4999 480.66 77.9799C479.73 78.8199 478.71 79.5599 476.95 79.5599C475.19 79.5599 473.79 77.9799 473.79 76.0299C473.79 72.3199 479.82 66.9299 486.97 66.9299C492.63 66.9299 496.53 69.3399 498.94 72.9599C499.68 74.1699 501.54 75.6499 502.28 89.2999C502.37 91.7099 501.82 96.6299 504.04 98.2999C504.6 98.8599 505.15 99.5999 505.15 100.43C505.15 102.47 503.48 104.05 501.25 104.05C499.67 104.05 497.54 102.75 495.77 99.4099L495.79 99.4299ZM477.97 92.6499C477.97 94.3199 479.36 96.5499 484.19 96.5499C491.43 96.5499 494.68 92.6499 494.68 91.4499C494.68 88.1099 488.74 86.7199 485.12 86.7199C480.29 86.7199 477.97 88.8499 477.97 92.6599V92.6499Z" fill="#194F90"/>
<path d="M127.99 71.7012L127.974 71.5008C127.957 71.3421 127.524 67.5091 126.159 62.4819C124.544 56.5529 118.974 53.9975 117.934 53.5633C113.18 51.3336 110.666 50.365 106.862 48.9036C105.621 48.4276 104.231 47.8931 102.574 47.2334C100.859 46.557 98.9278 47.4004 98.2535 49.1207C97.5792 50.841 98.42 52.7783 100.135 53.4547C101.808 54.1145 103.215 54.6573 104.472 55.1416C108.16 56.5612 110.599 57.5049 115.187 59.6594L115.403 59.7512C115.403 59.7512 118.899 61.1625 119.732 64.2439C120.831 68.2774 121.264 71.4924 121.339 72.1271C121.364 73.4131 121.031 76.6783 119.183 78.006C115.478 80.6699 68.7831 113.029 66.7185 114.457C65.4032 115.267 61.5154 117.038 58.5601 115.96C53.0739 113.948 14.4794 99.9352 12.7561 99.3089C12.2066 99.075 10.2003 98.0312 9.63422 95.2337C19.6658 98.8496 54.9887 111.568 56.2124 111.927C56.8784 112.119 57.5527 112.219 58.2187 112.219C59.5008 112.219 60.7329 111.86 61.7319 111.175C62.7975 110.44 64.1128 108.979 64.3209 106.257C64.6456 102.065 62.4895 97.8809 59.3176 96.528C57.7359 95.86 19.9239 82.3401 12.3565 79.6428C10.6249 79.0248 8.71847 79.9267 8.10242 81.672C7.48637 83.409 8.3938 85.3213 10.1254 85.9393C27.8742 92.2775 54.6806 101.881 56.662 102.658C56.995 102.916 57.6776 103.994 57.6943 105.38C53.8648 104.052 28.1739 94.8161 10.7914 88.5531C9.57594 87.9351 7.4281 86.766 6.81206 82.5572C6.13773 77.9726 7.88597 76.2691 9.20132 75.0415C9.39279 74.8912 10.2336 74.2649 13.7884 71.8599L26.5422 63.7513C28.099 62.7659 28.5569 60.7032 27.5745 59.1416C26.5922 57.58 24.5359 57.1207 22.9792 58.1061L10.1837 66.2398L10.1087 66.2899C5.33854 69.5133 4.98889 69.839 4.70584 70.1062C3.00755 71.6928 -0.971789 75.4173 0.218681 83.5342C0.701529 86.8244 1.86702 89.1627 3.17404 90.8245C3.07414 91.0833 2.99089 91.3506 2.95759 91.6345C1.90864 100.052 7.36983 104.428 10.4334 105.572C10.833 105.714 50.7013 120.194 56.279 122.24C57.7609 122.783 59.2427 123 60.6746 123C65.5947 123 69.7655 120.453 70.3399 120.077L70.4398 120.01C72.4295 118.633 119.241 86.1981 123.062 83.4507C128.223 79.7346 128.024 72.5363 127.99 71.7262V71.7012Z" fill="#1C9797"/>
<path d="M74.0463 21.181C81.0847 15.4066 84.7478 8.1343 86.5835 3.04618C87.1334 1.53146 88.8169 0.736439 90.3565 1.2804C91.8962 1.82436 92.6914 3.48972 92.15 5.0128C90.2212 10.3687 86.482 17.8586 79.5282 24.2021L81.9561 27.7587C80.3487 29.3153 79.1898 30.1103 77.98 32.3615L75.1376 28.1855C68.4629 35.2068 68.6321 42.3118 68.6406 42.6465C68.6998 44.2533 67.4393 45.609 65.8235 45.6843C65.7812 45.6843 65.7389 45.6843 65.6881 45.6843C64.1231 45.6843 62.8203 44.4792 62.7442 42.9227C62.7188 42.4373 62.2705 30.8635 74.0632 21.1894L74.0463 21.181ZM103.816 14.1513C104.383 12.6366 103.596 10.9629 102.073 10.4022C100.55 9.84987 98.85 10.6198 98.2832 12.1261C96.4306 17.0804 92.7845 24.1686 85.9152 29.8007C74.114 39.4748 74.5708 51.0486 74.5962 51.534C74.6723 53.0905 75.9751 54.2956 77.5401 54.2956C77.5824 54.2956 77.6247 54.2956 77.6755 54.2956C79.2998 54.2287 80.5518 52.8646 80.4926 51.2578C80.4841 50.99 80.3657 46.3454 83.7918 40.8807L83.9864 41.1653C84.6886 42.3536 85.2807 43.5922 85.7629 44.8809C85.7968 45.0065 85.8306 45.132 85.8814 45.2659C85.966 45.4835 86.0506 45.7094 86.1267 45.9354C86.8881 48.2786 87.2772 50.7473 87.2772 53.2328C87.2772 63.702 80.4418 72.6229 70.9585 75.8616C70.5271 75.9787 70.0956 76.0791 69.6642 76.1628C67.5662 76.757 65.3413 77.075 63.0487 77.075C57.017 77.075 51.5013 74.8824 47.2799 71.2505C47.3053 71.3007 47.3307 71.3509 47.3645 71.3927C42.1872 66.9992 38.9048 60.4884 38.9048 53.2328C38.9048 48.9899 40.0469 44.8223 42.1957 41.1736L63.0318 10.4608L68.8182 18.9466C70.0195 17.5323 71.4238 16.1263 73.0734 14.7455L63.0149 0L37.2468 37.9935L37.1537 38.1358C34.4381 42.6967 33 47.9187 33 53.2328C33 69.6437 46.5016 83 63.091 83C66.4664 83 69.7149 82.4477 72.7435 81.4267C73.3611 81.251 73.9702 81.0417 74.5708 80.8158C89.4006 75.1335 96.9297 58.7979 91.7101 44.0608C91.0333 42.0021 90.1366 40.0104 89.0199 38.1358L87.6494 36.1273C88.267 35.5164 88.9438 34.9055 89.6713 34.303C97.5557 27.8424 101.709 19.7751 103.807 14.1513H103.816Z" fill="#194F90"/>
</svg>
