<svg width="31" height="30" viewBox="0 0 31 30" fill="none" xmlns="http://www.w3.org/2000/svg">
<path d="M0.5 22.1599V7.85989C0.5 3.53989 4.03 0.0098877 8.35 0.0098877H22.66C26.97 0.0098877 30.5 3.53989 30.5 7.85989V22.1699C30.5 26.4899 26.97 30.0199 22.65 30.0199H17.84L15.32 29.4099L13.16 30.0099H8.35C4.03 30.0099 0.5 26.4799 0.5 22.1599Z" fill="#194F90"/>
<path d="M21.34 19.8399L22 15.4999H17.84V12.6899C17.84 11.4999 18.42 10.3499 20.28 10.3499H22.17V6.65987C22.17 6.65987 20.45 6.36987 18.81 6.36987C15.38 6.36987 13.14 8.44987 13.14 12.2099V15.5099H9.34998V19.8499H13.16V30.0099H17.85V19.8399H21.34Z" fill="white"/>
</svg>
