<svg width="159" height="125" viewBox="0 0 159 125" fill="none" xmlns="http://www.w3.org/2000/svg">
<path d="M12.6471 110.311C5.87921 110.311 0 104.728 0 95.2071C0 83.5307 8.92363 80.4863 12.6471 80.4863C15.7371 80.4863 20.6 82.7286 20.6 87.6371C20.6 88.7354 19.9665 93.0514 15.6095 93.0514C14.976 93.0514 12.4785 92.5866 12.4785 90.3853C12.4785 89.2413 13.3672 88.7354 14.1283 88.7354C14.6342 88.7354 15.017 88.9907 15.3543 89.3279C15.5229 89.4966 15.6505 89.5376 15.8602 89.5376C16.4116 89.5376 16.9175 89.1137 16.9175 87.6325C16.9175 85.7275 15.0581 84.0366 12.6016 84.0366C10.4869 84.0366 8.07593 85.135 6.42611 87.04C4.68969 88.8995 3.67792 91.356 3.67792 95.2481C3.67792 98.2105 4.22938 101.296 6.00226 103.538C7.52447 105.525 9.63916 106.797 12.6426 106.797C15.1401 106.797 16.5347 106.036 17.5054 105.147C18.7314 104.049 19.2829 102.818 20.3812 102.818C21.27 102.818 21.9445 103.411 21.9445 104.468C21.9445 105.525 21.311 106.327 20.7595 107.007C19.7888 108.192 16.6988 110.306 12.638 110.306L12.6471 110.311Z" fill="#194F90"/>
<path d="M25.3398 104.135L25.1712 89.5831C25.1301 87.637 24.9159 86.7893 23.9862 85.9006C23.6079 85.5224 23.3071 85.0985 23.3071 84.506C23.3071 83.7449 23.8996 82.8152 24.998 82.8152C25.6315 82.8152 26.3926 83.239 27.0306 83.9591C27.9604 84.9754 28.7215 86.7073 28.767 89.5011L28.9767 105.111C29.0177 106.97 30.2027 107.394 30.2027 108.62C30.2027 108.916 29.9474 110.06 28.5939 110.06C26.8164 110.06 25.3808 108.324 25.3352 104.135H25.3398Z" fill="#194F90"/>
<path d="M31.9801 101.683C31.9801 99.3133 34.4321 93.3931 40.6941 93.3931C43.6565 93.3931 46.3637 95.2115 46.3637 98.894C46.3637 103.884 40.8217 105.284 37.5221 105.284C37.1438 105.284 36.6744 105.156 36.3782 105.074C37.3489 106.3 38.7891 106.979 40.2703 106.979C41.6649 106.979 43.4833 106.514 44.372 105.37C44.7093 104.905 45.1742 104.609 45.7667 104.609C46.742 104.609 47.1202 105.457 47.1202 106.218C47.1202 107.995 45.2152 110.32 39.9695 110.32C37.5996 110.32 31.9756 108.501 31.9756 101.692L31.9801 101.683ZM35.576 101.683V102.107C36.1685 102.49 36.802 102.613 37.7773 102.613C40.8217 102.613 42.7678 100.626 42.7678 98.8894C42.7678 97.4082 42.2163 96.8568 40.6941 96.8568C37.3945 96.8568 35.576 100.284 35.576 101.679V101.683Z" fill="#194F90"/>
<path d="M60.451 108.196C58.9698 109.294 57.1104 110.311 55.1643 110.311C50.4245 110.311 48.7336 107.266 48.7336 105.106C48.7336 100.494 52.963 99.2678 55.7568 99.2678C57.4932 99.2678 58.7602 99.564 59.6489 99.9879C59.4393 99.0992 59.184 98.4247 58.8012 97.9142C58.2498 97.2351 57.5297 96.8569 56.4313 96.8569C54.7815 96.8569 54.23 97.7456 53.5555 98.4201C53.1317 98.8029 52.6668 99.1402 51.8647 99.1402C51.0625 99.1402 50.4245 98.4201 50.4245 97.5314C50.4245 95.8405 53.1727 93.384 56.4313 93.384C59.0109 93.384 60.7883 94.4824 61.8866 96.1322C62.2239 96.6837 63.0716 97.3582 63.4089 103.579C63.4499 104.678 63.1992 106.92 64.211 107.681C64.4662 107.936 64.7169 108.273 64.7169 108.652C64.7169 109.581 63.9558 110.302 62.9394 110.302C62.2194 110.302 61.2486 109.709 60.4419 108.187L60.451 108.196ZM52.3295 105.106C52.3295 105.867 52.963 106.883 55.1643 106.883C58.464 106.883 59.9451 105.106 59.9451 104.559C59.9451 103.037 57.238 102.403 55.5882 102.403C53.3869 102.403 52.3295 103.374 52.3295 105.111V105.106Z" fill="#194F90"/>
<path d="M76.2292 93.3931C81.0921 93.3931 82.4912 96.9479 82.6188 100.667L82.7464 104.263C82.7875 105.448 82.6188 106.842 83.6352 107.731C84.059 108.068 84.1 108.579 84.1 108.661C84.1 109.677 83.2113 110.352 82.195 110.352C80.8414 110.352 79.2782 109.039 79.1916 105.785L79.064 101.683C78.9364 97.4538 77.92 96.8613 76.2702 96.8613C74.0689 96.8613 71.658 98.3836 71.658 104.773V108.497C71.658 109.891 70.1358 110.06 69.7529 110.06C69.1194 110.06 68.0621 109.723 68.0621 108.497V99.9103C68.0621 96.9935 66.2437 96.6973 66.2437 95.2571C66.2437 94.455 66.8771 93.5663 67.9801 93.5663C69.4202 93.5663 70.0948 95.3027 70.6462 96.4421C71.7036 95.1751 73.44 93.3976 76.2292 93.3976V93.3931Z" fill="#194F90"/>
<path d="M92.7273 93.8581C93.8256 93.8581 94.7599 94.282 94.7599 95.2117C94.7599 97.1167 93.1511 97.2443 92.8139 97.2443H91.6699C91.4603 97.2443 91.1185 97.372 91.1185 97.5406V102.577C91.1185 106.637 91.8796 106.893 92.6817 106.893C93.3152 106.893 93.5704 106.091 94.4591 106.091C95.8537 106.091 96.0224 107.358 96.0224 107.868C96.0224 108.884 94.8374 110.32 92.6361 110.32C89.4231 110.32 87.477 108.374 87.477 102.577V97.7548C87.477 97.4996 87.2218 97.4175 86.4607 97.4175C85.2347 97.4175 84.9795 96.7385 84.9795 95.7267C84.9795 94.3731 85.5309 93.9493 87.3904 93.8672V92.6412C87.3904 90.2713 86.2055 89.8931 86.2055 88.4119C86.2055 87.3955 87.3494 86.8896 88.1925 86.8896C89.0357 86.8896 90.011 88.1612 90.4348 89.2185C90.8997 90.5311 91.1094 92.1809 91.1549 93.8718H92.7182L92.7273 93.8581Z" fill="#194F90"/>
<path d="M97.5492 102.403C97.5492 98.7208 99.9191 96.3555 101.738 95.9726C102.54 94.3638 104.951 93.3931 106.304 93.3931C109.563 93.3931 113.874 96.3555 113.874 102.066C113.874 105.197 111.336 110.315 105.921 110.315C99.828 110.315 97.5447 105.407 97.5447 102.403H97.5492ZM101.145 102.362C101.145 103.379 101.738 104.983 102.667 105.831C103.428 106.464 104.486 106.888 105.926 106.888C106.856 106.888 107.703 106.551 108.378 105.999C109.563 105.069 110.283 103.502 110.283 102.066C110.283 99.0216 108.337 96.8613 106.304 96.8613C105.247 96.8613 103.934 97.4128 103.934 98.935C103.934 99.7827 104.736 100.033 105.119 100.416C105.288 100.585 105.375 100.753 105.375 100.968C105.375 101.433 105.206 101.897 104.91 102.194C104.613 102.576 104.149 102.786 103.684 102.786C102.836 102.786 101.651 101.642 101.232 101.177C101.145 101.683 101.145 102.107 101.145 102.362Z" fill="#194F90"/>
<path d="M120.433 108.027L120.305 113.61C120.264 115.643 119.712 117.63 118.655 118.815C118.022 119.576 117.261 120 116.622 120C115.524 120 114.932 119.07 114.932 118.391C114.932 117.758 115.228 117.334 115.611 116.951C116.54 115.98 116.755 115.174 116.796 113.228L117.005 99.6461C117.005 98.7984 117.005 96.7293 116.54 96.0092C116.372 95.6719 116.203 95.207 116.203 94.8242C116.203 93.7258 117.388 93.384 117.981 93.384C118.783 93.384 119.927 94.4004 120.305 95.4577C121.066 94.487 122.634 93.384 124.58 93.384C129.826 93.384 132.364 97.4038 132.364 101.802C132.364 106.455 129.32 110.306 125.259 110.306C123.568 110.306 121.75 109.376 120.437 108.023L120.433 108.027ZM120.642 102.148C120.642 104.6 122.037 106.888 125.295 106.888C126.904 106.888 128.805 104.983 128.805 101.811C128.805 98.3426 127.068 96.8614 124.657 96.8614C121.909 96.8614 120.638 99.2313 120.638 102.148H120.642Z" fill="#194F90"/>
<path d="M136.129 104.728L136.215 95.6308C136.215 94.9108 136.639 93.3885 138.289 93.3885C139.178 93.3885 139.898 93.981 139.852 96.5196L139.766 105.616C139.725 107.986 141.288 106.97 141.288 108.706C141.288 109.595 140.736 110.315 139.51 110.315C136.635 110.315 136.129 106.76 136.129 104.732V104.728ZM136.256 90.0889C136.256 89.0726 137.017 88.1428 138.161 88.1428C139.305 88.1428 140.066 89.0726 140.066 90.0889C140.066 91.1052 139.305 91.9939 138.161 91.9939C137.017 91.9939 136.256 91.0642 136.256 90.0889Z" fill="#194F90"/>
<path d="M154.404 108.196C152.923 109.294 151.064 110.311 149.118 110.311C144.378 110.311 142.687 107.266 142.687 105.106C142.687 100.494 146.916 99.2678 149.71 99.2678C151.447 99.2678 152.714 99.564 153.602 99.9879C153.393 99.0992 153.137 98.4247 152.755 97.9142C152.203 97.2351 151.483 96.8569 150.385 96.8569C148.735 96.8569 148.183 97.7456 147.509 98.4201C147.085 98.8029 146.62 99.1402 145.818 99.1402C145.016 99.1402 144.378 98.4201 144.378 97.5314C144.378 95.8405 147.126 93.384 150.385 93.384C152.964 93.384 154.742 94.4824 155.84 96.1322C156.177 96.6837 157.025 97.3582 157.362 103.579C157.403 104.678 157.153 106.92 158.164 107.681C158.42 107.936 158.67 108.273 158.67 108.652C158.67 109.581 157.909 110.302 156.893 110.302C156.173 110.302 155.202 109.709 154.395 108.187L154.404 108.196ZM146.283 105.106C146.283 105.867 146.916 106.883 149.118 106.883C152.417 106.883 153.899 105.106 153.899 104.559C153.899 103.037 151.191 102.403 149.542 102.403C147.34 102.403 146.283 103.374 146.283 105.111V105.106Z" fill="#194F90"/>
<path d="M118.819 44.1582L118.81 44.0488C118.801 43.9622 118.564 41.8703 117.817 39.1267C116.933 35.8908 113.884 34.4962 113.314 34.2592C110.711 33.0424 109.335 32.5137 107.252 31.7161C106.573 31.4564 105.812 31.1647 104.905 30.8046C103.966 30.4355 102.909 30.8958 102.54 31.8346C102.171 32.7735 102.631 33.8308 103.57 34.2C104.486 34.56 105.256 34.8563 105.944 35.1206C107.963 35.8954 109.299 36.4104 111.81 37.5862L111.928 37.6364C111.928 37.6364 113.842 38.4066 114.298 40.0883C114.9 42.2896 115.137 44.0442 115.178 44.3906C115.192 45.0925 115.009 46.8745 113.997 47.5991C111.969 49.053 86.4062 66.7134 85.2759 67.4927C84.5559 67.9348 82.4275 68.901 80.8096 68.3131C77.8062 67.2147 56.6775 59.5672 55.7341 59.2254C55.4333 59.0978 54.3349 58.5281 54.025 57.0013C59.5168 58.9747 78.8544 65.9158 79.5244 66.1118C79.889 66.2166 80.2581 66.2713 80.6227 66.2713C81.3246 66.2713 81.9991 66.0753 82.546 65.7016C83.1293 65.3005 83.8494 64.503 83.9634 63.0172C84.1411 60.7293 82.9607 58.446 81.2243 57.7077C80.3584 57.3431 59.6581 49.9645 55.5153 48.4924C54.5674 48.1551 53.5237 48.6473 53.1864 49.5999C52.8492 50.5478 53.3459 51.5915 54.2939 51.9288C64.0105 55.3879 78.6858 60.6291 79.7705 61.0529C79.9528 61.1942 80.3265 61.7821 80.3356 62.5387C78.2391 61.814 64.1746 56.7734 54.6585 53.3553C53.9931 53.018 52.8173 52.38 52.48 50.083C52.1108 47.5809 53.0679 46.6512 53.788 45.9812C53.8928 45.8992 54.3531 45.5573 56.2992 44.2448L63.2813 39.8194C64.1336 39.2816 64.3843 38.1559 63.8465 37.3037C63.3087 36.4514 62.183 36.2007 61.3307 36.7385L54.3258 41.1776L54.2848 41.2049C51.6733 42.9641 51.4819 43.1419 51.327 43.2877C50.3972 44.1536 48.2187 46.1863 48.8704 50.6162C49.1348 52.4119 49.7728 53.688 50.4884 54.5949C50.4337 54.7362 50.3881 54.882 50.3699 55.037C49.7956 59.631 52.7854 62.0191 54.4625 62.6435C54.6813 62.721 76.5073 70.6237 79.5608 71.7403C80.3721 72.0366 81.1833 72.1551 81.9672 72.1551C84.6607 72.1551 86.944 70.765 87.2585 70.5599L87.3132 70.5235C88.4024 69.7715 114.029 52.07 116.121 50.5706C118.947 48.5425 118.838 44.6139 118.819 44.1719V44.1582Z" fill="#1C9797"/>
<path d="M89.2364 16.5351C93.0283 13.3904 95.0017 9.42991 95.9906 6.65894C96.2869 5.83403 97.1938 5.40106 98.0233 5.6973C98.8528 5.99354 99.2812 6.90049 98.9895 7.72996C97.9504 10.6468 95.936 14.7258 92.1897 18.1804L93.4977 20.1173C92.6317 20.965 92.0074 21.398 91.3556 22.6239L89.8243 20.3497C86.2284 24.1735 86.3196 28.0428 86.3241 28.2251C86.356 29.1002 85.677 29.8385 84.8065 29.8795C84.7837 29.8795 84.7609 29.8795 84.7336 29.8795C83.8904 29.8795 83.1886 29.2232 83.1475 28.3755C83.1339 28.1112 82.8923 21.8082 89.2455 16.5397L89.2364 16.5351ZM105.274 12.7068C105.58 11.8819 105.156 10.9704 104.335 10.665C103.515 10.3642 102.599 10.7835 102.294 11.6039C101.296 14.3019 99.3313 18.1621 95.6306 21.2293C89.2729 26.4978 89.519 32.8009 89.5326 33.0652C89.5737 33.9129 90.2755 34.5692 91.1187 34.5692C91.1414 34.5692 91.1642 34.5692 91.1916 34.5692C92.0666 34.5328 92.7411 33.7899 92.7092 32.9148C92.7047 32.769 92.6409 30.2396 94.4867 27.2635L94.5915 27.4185C94.9698 28.0656 95.2888 28.7401 95.5486 29.442C95.5668 29.5104 95.585 29.5787 95.6124 29.6517C95.6579 29.7701 95.7035 29.8932 95.7445 30.0163C96.1547 31.2924 96.3644 32.6368 96.3644 33.9904C96.3644 39.6919 92.6819 44.5502 87.5729 46.314C87.3405 46.3778 87.108 46.4325 86.8756 46.478C85.7453 46.8016 84.5467 46.9748 83.3116 46.9748C80.0621 46.9748 77.0906 45.7807 74.8164 43.8028C74.8301 43.8301 74.8437 43.8575 74.862 43.8802C72.0728 41.4875 70.3044 37.9418 70.3044 33.9904C70.3044 31.6798 70.9197 29.4101 72.0773 27.423L83.3025 10.6969L86.4198 15.3182C87.067 14.548 87.8236 13.7824 88.7123 13.0304L83.2934 5L69.4112 25.6912L69.361 25.7686C67.8981 28.2525 67.1233 31.0964 67.1233 33.9904C67.1233 42.9277 74.3971 50.2015 83.3344 50.2015C85.1529 50.2015 86.9029 49.9007 88.5345 49.3447C88.8672 49.249 89.1954 49.1351 89.519 49.012C97.5083 45.9175 101.564 37.0212 98.7525 28.9954C98.3879 27.8742 97.9048 26.7895 97.3032 25.7686L96.5649 24.6748C96.8976 24.3421 97.2622 24.0094 97.6541 23.6813C101.902 20.1629 104.139 15.7694 105.27 12.7068H105.274Z" fill="#194F90"/>
</svg>
