<svg width="80" height="80" viewBox="0 0 80 80" fill="none" xmlns="http://www.w3.org/2000/svg">
<path d="M38.2033 58.229V53.9261C36.3239 53.6404 34.7456 52.9542 33.4684 51.8675C32.1912 50.7809 31.2589 49.3464 30.6713 47.564L33.0991 46.5384C33.6974 48.1516 34.5376 49.3727 35.6198 50.2016C36.702 51.0304 38.0795 51.4449 39.7524 51.4449C41.3737 51.4449 42.7815 51.0411 43.9758 50.2336C45.1702 49.4261 45.7674 48.2192 45.7674 46.6131C45.7674 45.1093 45.2895 43.9255 44.3338 43.0614C43.378 42.1974 41.5776 41.3344 38.9325 40.4726C36.3283 39.641 34.4446 38.6208 33.2814 37.4117C32.1182 36.2027 31.5366 34.6615 31.5366 32.7883C31.5366 30.8608 32.2173 29.2861 33.5786 28.0641C34.9399 26.8422 36.4815 26.1689 38.2033 26.0442V21.7708H40.8207V26.0442C42.3298 26.2036 43.6252 26.6594 44.7069 27.4117C45.7887 28.164 46.6443 29.1727 47.2737 30.4379L44.886 31.5463C44.3919 30.542 43.7232 29.775 42.8801 29.2453C42.037 28.7156 40.949 28.4507 39.6162 28.4507C38.0199 28.4507 36.7104 28.8433 35.6879 29.6286C34.6653 30.4138 34.1541 31.46 34.1541 32.767C34.1541 34.0597 34.6415 35.1103 35.6164 35.9187C36.5913 36.7271 38.4623 37.5578 41.2294 38.4107C43.6778 39.1817 45.4824 40.2238 46.6434 41.537C47.8044 42.8502 48.3849 44.5022 48.3849 46.4929C48.3849 48.6395 47.6946 50.3546 46.3142 51.6385C44.9338 52.9223 43.1026 53.6946 40.8207 53.9555V58.229H38.2033Z" fill="#1C9797"/>
<mask id="mask0_450_2773" style="mask-type:alpha" maskUnits="userSpaceOnUse" x="0" y="0" width="80" height="81">
<circle cx="40" cy="40.0099" r="38.5" stroke="#1C9797" stroke-width="3" stroke-linejoin="round"/>
</mask>
<g mask="url(#mask0_450_2773)">
<rect width="128" height="40" transform="matrix(1 0 0 -1 -24 39.9999)" fill="#1C9797"/>
</g>
</svg>
