<svg width="80" height="80" viewBox="0 0 80 80" fill="none" xmlns="http://www.w3.org/2000/svg">
<path d="M35.1105 43.0908L36.868 37.4072L32.2593 33.9188H37.9353L39.7499 28.1095L41.5298 33.9188H47.2406L42.6345 37.4072L44.3573 43.0908L39.7499 39.5732L35.1105 43.0908ZM28.3905 61.3038V46.5123C26.9535 45.0539 25.8834 43.402 25.1801 41.5564C24.4767 39.7107 24.125 37.7997 24.125 35.8232C24.125 31.4358 25.6323 27.7348 28.6469 24.7202C31.6615 21.7056 35.3625 20.1982 39.7499 20.1982C44.1374 20.1982 47.8384 21.7056 50.853 24.7202C53.8676 27.7348 55.3749 31.4358 55.3749 35.8232C55.3749 37.7997 55.0232 39.7107 54.3198 41.5564C53.6165 43.402 52.5464 45.0539 51.1094 46.5123V61.3038L39.7499 57.6789L28.3905 61.3038ZM39.7484 48.8307C43.3766 48.8307 46.4518 47.5701 48.9741 45.0489C51.4963 42.5277 52.7575 39.453 52.7575 35.8248C52.7575 32.1966 51.4968 29.1214 48.9756 26.5991C46.4544 24.0769 43.3797 22.8157 39.7515 22.8157C36.1233 22.8157 33.0481 24.0763 30.5258 26.5975C28.0036 29.1187 26.7424 32.1934 26.7424 35.8216C26.7424 39.4498 28.0031 42.525 30.5243 45.0473C33.0455 47.5696 36.1202 48.8307 39.7484 48.8307ZM31.008 57.6101L39.7499 55.0219L48.4919 57.6101V48.6783C47.2143 49.6078 45.8232 50.3018 44.3186 50.7603C42.814 51.2189 41.2911 51.4481 39.7499 51.4481C38.2088 51.4481 36.6859 51.2189 35.1813 50.7603C33.6767 50.3018 32.2856 49.6078 31.008 48.6783V57.6101Z" fill="#1C9797"/>
<mask id="mask0_450_2781" style="mask-type:alpha" maskUnits="userSpaceOnUse" x="0" y="0" width="80" height="81">
<circle cx="40" cy="40.0099" r="38.5" stroke="#1C9797" stroke-width="3" stroke-linejoin="round"/>
</mask>
<g mask="url(#mask0_450_2781)">
<rect width="128" height="42" transform="matrix(1 0 0 -1 -24 81.9999)" fill="#1C9797"/>
</g>
</svg>
