<svg width="80" height="80" viewBox="0 0 80 80" fill="none" xmlns="http://www.w3.org/2000/svg">
<mask id="mask0_450_2772" style="mask-type:alpha" maskUnits="userSpaceOnUse" x="0" y="0" width="80" height="81">
<circle cx="40" cy="40.0099" r="38.5" stroke="#1C9797" stroke-width="3" stroke-linejoin="round"/>
</mask>
<g mask="url(#mask0_450_2772)">
<rect width="128" height="40" transform="matrix(1 0 0 -1 -24 39.9999)" fill="#1C9797"/>
</g>
<path d="M32.173 29.089C32.613 29.089 32.9869 28.9331 33.2945 28.6213C33.6021 28.3095 33.7558 27.9336 33.7558 27.4936C33.7558 27.0535 33.5999 26.6797 33.2881 26.3721C32.9763 26.0645 32.6004 25.9107 32.1604 25.9107C31.7203 25.9107 31.3465 26.0666 31.0389 26.3784C30.7313 26.6902 30.5775 27.0661 30.5775 27.5062C30.5775 27.9462 30.7334 28.3201 31.0452 28.6277C31.357 28.9352 31.7329 29.089 32.173 29.089ZM38.423 29.089C38.863 29.089 39.2369 28.9331 39.5445 28.6213C39.8521 28.3095 40.0058 27.9336 40.0058 27.4936C40.0058 27.0535 39.8499 26.6797 39.5381 26.3721C39.2263 26.0645 38.8504 25.9107 38.4104 25.9107C37.9703 25.9107 37.5965 26.0666 37.2889 26.3784C36.9813 26.6902 36.8275 27.0661 36.8275 27.5062C36.8275 27.9462 36.9834 28.3201 37.2952 28.6277C37.607 28.9352 37.9829 29.089 38.423 29.089ZM40.5002 51.7252C42.4747 51.7252 44.1587 51.0539 45.552 49.7112C46.9454 48.3685 47.642 46.7304 47.642 44.7968C47.642 43.8905 47.4782 43.0111 47.1506 42.1587C46.823 41.3062 46.332 40.5572 45.6776 39.9117L40.5 34.7341L35.5038 39.7304C34.8353 40.4077 34.3019 41.1827 33.9035 42.0552C33.5051 42.9277 33.3233 43.8398 33.358 44.7915C33.4155 46.7271 34.135 48.3666 35.5165 49.7101C36.898 51.0535 38.5593 51.7252 40.5002 51.7252ZM40.5049 49.2748C39.2472 49.2748 38.1778 48.8402 37.2968 47.9711C36.4159 47.1021 35.9754 46.0401 35.9754 44.7852C35.9754 44.1777 36.0965 43.5963 36.3387 43.0407C36.5808 42.4851 36.9271 41.9892 37.3777 41.553L40.5 38.452L43.7906 41.7213C44.1948 42.1166 44.5016 42.5802 44.7108 43.1122C44.92 43.6441 45.0246 44.2027 45.0246 44.7879C45.0246 46.0421 44.5858 47.1034 43.708 47.972C42.8303 48.8405 41.7626 49.2748 40.5049 49.2748ZM28.1336 59.7915C27.2411 59.7915 26.4749 59.4715 25.835 58.8316C25.195 58.1917 24.8751 57.4255 24.8751 56.5329V23.4668C24.8751 22.5743 25.195 21.808 25.835 21.1682C26.4749 20.5282 27.2411 20.2083 28.1336 20.2083H52.8664C53.7589 20.2083 54.5252 20.5282 55.1651 21.1682C55.805 21.808 56.125 22.5743 56.125 23.4668V56.5329C56.125 57.4255 55.805 58.1917 55.1651 58.8316C54.5252 59.4715 53.7589 59.7915 52.8664 59.7915H28.1336ZM28.1336 57.174H52.8664C53.0534 57.174 53.207 57.1139 53.3272 56.9937C53.4474 56.8735 53.5075 56.7199 53.5075 56.5329V23.4668C53.5075 23.2798 53.4474 23.1262 53.3272 23.006C53.207 22.8858 53.0534 22.8257 52.8664 22.8257H28.1336C27.9466 22.8257 27.793 22.8858 27.6728 23.006C27.5526 23.1262 27.4925 23.2798 27.4925 23.4668V56.5329C27.4925 56.7199 27.5526 56.8735 27.6728 56.9937C27.793 57.1139 27.9466 57.174 28.1336 57.174Z" fill="#1C9797"/>
</svg>
