<svg width="80" height="80" viewBox="0 0 80 80" fill="none" xmlns="http://www.w3.org/2000/svg">
<path d="M26.7686 55.7236C25.1551 55.7236 23.7865 55.1639 22.663 54.0445C21.5394 52.9251 20.9776 51.5493 20.9776 49.9171H20.8227C19.9969 49.8725 19.2875 49.5341 18.6943 48.9017C18.1011 48.2693 17.8046 47.5216 17.8046 46.6585V27.6335C17.8046 26.7381 18.1238 25.9711 18.7623 25.3326C19.4007 24.6942 20.1677 24.3749 21.0631 24.3749H46.656C47.5452 24.3749 48.3106 24.6957 48.9522 25.3373C49.5937 25.9789 49.9145 26.7443 49.9145 27.6335V32.4839H54.2499C54.5151 32.4839 54.7581 32.5373 54.979 32.6442C55.1999 32.751 55.3881 32.9157 55.5435 33.1383L61.875 41.5919C61.9774 41.7287 62.0564 41.8782 62.112 42.0402C62.1677 42.2022 62.1955 42.3777 62.1955 42.5668V48.2878C62.1955 48.7494 62.0394 49.1363 61.7271 49.4486C61.4148 49.7609 61.0279 49.9171 60.5662 49.9171H58.6619C58.6619 51.5508 58.0971 52.927 56.9676 54.0456C55.8382 55.1643 54.4666 55.7236 52.8531 55.7236C51.2395 55.7236 49.871 55.1639 48.7474 54.0445C47.6238 52.9251 47.062 51.5493 47.062 49.9171H32.5774C32.5774 51.5552 32.0127 52.9325 30.8832 54.049C29.7537 55.1654 28.3822 55.7236 26.7686 55.7236ZM26.7875 53.1062C27.6667 53.1062 28.4153 52.7914 29.0332 52.1618C29.651 51.5321 29.96 50.7802 29.96 49.9061C29.96 49.032 29.651 48.286 29.0332 47.6681C28.4153 47.0502 27.6667 46.7412 26.7875 46.7412C25.9083 46.7412 25.1565 47.0502 24.5319 47.6681C23.9073 48.286 23.595 49.032 23.595 49.9061C23.595 50.7802 23.9073 51.5321 24.5319 52.1618C25.1565 52.7914 25.9083 53.1062 26.7875 53.1062ZM20.422 27.6335V46.6585C20.422 46.7387 20.4354 46.8155 20.4621 46.8889C20.4888 46.9624 20.5222 47.0258 20.5623 47.0793C20.6023 47.1327 20.6524 47.1794 20.7125 47.2195C20.7726 47.2595 20.836 47.2863 20.9028 47.2996H21.6747C22.118 46.3817 22.794 45.6193 23.7026 45.0126C24.6113 44.4058 25.628 44.1024 26.7528 44.1024C27.8509 44.1024 28.8634 44.4061 29.7902 45.0133C30.7172 45.6205 31.4023 46.3826 31.8457 47.2996H47.2971V27.6335C47.2971 27.4465 47.2347 27.2929 47.1101 27.1727C46.9854 27.0525 46.8341 26.9924 46.656 26.9924H21.0631C20.8761 26.9924 20.7225 27.0525 20.6023 27.1727C20.4821 27.2929 20.422 27.4465 20.422 27.6335ZM52.872 53.1062C53.7512 53.1062 54.4997 52.7914 55.1176 52.1618C55.7355 51.5321 56.0444 50.7802 56.0444 49.9061C56.0444 49.032 55.7355 48.286 55.1176 47.6681C54.4997 47.0502 53.7512 46.7412 52.872 46.7412C51.9928 46.7412 51.2409 47.0502 50.6163 47.6681C49.9918 48.286 49.6795 49.032 49.6795 49.9061C49.6795 50.7802 49.9918 51.5321 50.6163 52.1618C51.2409 52.7914 51.9928 53.1062 52.872 53.1062ZM49.9145 42.978H59.6582L53.7072 35.1013H49.9145V42.978Z" fill="#1C9797"/>
<mask id="mask0_450_2777" style="mask-type:alpha" maskUnits="userSpaceOnUse" x="0" y="0" width="80" height="81">
<circle cx="40" cy="40.0099" r="38.5" stroke="#1C9797" stroke-width="3" stroke-linejoin="round"/>
</mask>
<g mask="url(#mask0_450_2777)">
<rect width="128" height="42" transform="matrix(1 0 0 -1 -24 81.9999)" fill="#1C9797"/>
</g>
</svg>
