<svg width="31" height="30" viewBox="0 0 31 30" fill="none" xmlns="http://www.w3.org/2000/svg">
<path d="M0.5 22.3599V7.65989C0.5 3.44989 3.94 0.0098877 8.15 0.0098877H22.85C27.06 0.0098877 30.5 3.44989 30.5 7.65989V22.3599C30.5 26.5699 27.06 30.0099 22.85 30.0099H8.15C3.94 30.0099 0.5 26.5699 0.5 22.3599Z" fill="#194F90"/>
<path d="M20.16 9.35986C19.59 9.35986 19.13 9.81986 19.13 10.3899C19.13 10.9599 19.59 11.4199 20.16 11.4199C20.73 11.4199 21.19 10.9599 21.19 10.3899C21.19 9.81986 20.73 9.35986 20.16 9.35986Z" fill="white"/>
<path d="M15.57 10.6798C13.18 10.6798 11.24 12.6198 11.24 15.0098C11.24 17.3998 13.18 19.3398 15.57 19.3398C17.96 19.3398 19.9 17.3998 19.9 15.0098C19.9 12.6198 17.96 10.6798 15.57 10.6798ZM15.57 17.7798C14.04 17.7798 12.8 16.5398 12.8 15.0098C12.8 13.4798 14.04 12.2398 15.57 12.2398C17.1 12.2398 18.34 13.4798 18.34 15.0098C18.34 16.5398 17.1 17.7798 15.57 17.7798Z" fill="white"/>
<path d="M19.01 23.7999H11.99C9.07996 23.7999 6.70996 21.4298 6.70996 18.5198V11.4998C6.70996 8.58985 9.07996 6.21985 11.99 6.21985H19.01C21.92 6.21985 24.29 8.58985 24.29 11.4998V18.5198C24.29 21.4298 21.92 23.7999 19.01 23.7999ZM11.99 7.86985C9.98996 7.86985 8.35996 9.49985 8.35996 11.4998V18.5198C8.35996 20.5198 9.98996 22.1498 11.99 22.1498H19.01C21.01 22.1498 22.64 20.5198 22.64 18.5198V11.4998C22.64 9.49985 21.01 7.86985 19.01 7.86985H11.99Z" fill="white"/>
</svg>
