<svg width="31" height="30" viewBox="0 0 31 30" fill="none" xmlns="http://www.w3.org/2000/svg">
<path d="M0.449951 22.3098V7.60984C0.449951 3.39984 3.88995 -0.0401611 8.09995 -0.0401611H22.7999C27.0099 -0.0401611 30.45 3.39984 30.45 7.60984V22.3098C30.45 26.5198 27.0099 29.9598 22.7999 29.9598H8.09995C3.88995 29.9598 0.449951 26.5198 0.449951 22.3098Z" fill="#194F90"/>
<path d="M9.15993 12.1698H12.0699V21.4998H9.15993V12.1698ZM10.6099 7.52979C11.5399 7.52979 12.2899 8.27978 12.2899 9.20978C12.2899 10.1398 11.5399 10.8898 10.6099 10.8898C9.67993 10.8898 8.92993 10.1398 8.92993 9.20978C8.92993 8.27978 9.67993 7.52979 10.6099 7.52979Z" fill="white"/>
<path d="M13.8899 12.1698H16.6699V13.4498H16.7099C17.0999 12.7198 18.0399 11.9398 19.4599 11.9398C22.3999 11.9398 22.9399 13.8698 22.9399 16.3798V21.4998H20.0399V16.9598C20.0399 15.8798 20.0199 14.4898 18.5299 14.4898C17.0199 14.4898 16.7899 15.6698 16.7899 16.8898V21.5098H13.8899V12.1698Z" fill="white"/>
</svg>
