<svg width="300" height="68" viewBox="0 0 300 68" fill="none" xmlns="http://www.w3.org/2000/svg">
<path d="M0 5C0 2.23858 2.23858 0 5 0H236C238.761 0 241 2.23858 241 5V23C241 25.7614 238.761 28 236 28H5C2.23858 28 0 25.7614 0 23V5Z" fill="#666666"/>
<path d="M9.5 9.43945V18H8.08789V11.1152L5.99609 11.8242V10.6582L9.33008 9.43945H9.5ZM18.0254 13.0195V14.4141C18.0254 15.082 17.959 15.6523 17.8262 16.125C17.6973 16.5938 17.5098 16.9746 17.2637 17.2676C17.0176 17.5605 16.7227 17.7754 16.3789 17.9121C16.0391 18.0488 15.6582 18.1172 15.2363 18.1172C14.9004 18.1172 14.5879 18.0742 14.2988 17.9883C14.0137 17.9023 13.7559 17.7676 13.5254 17.584C13.2949 17.4004 13.0977 17.1641 12.9336 16.875C12.7734 16.582 12.6484 16.2324 12.5586 15.8262C12.4727 15.4199 12.4297 14.9492 12.4297 14.4141V13.0195C12.4297 12.3477 12.4961 11.7812 12.6289 11.3203C12.7617 10.8555 12.9512 10.4785 13.1973 10.1895C13.4434 9.89648 13.7363 9.68359 14.0762 9.55078C14.4199 9.41797 14.8027 9.35156 15.2246 9.35156C15.5645 9.35156 15.877 9.39453 16.1621 9.48047C16.4512 9.5625 16.709 9.69336 16.9355 9.87305C17.166 10.0527 17.3613 10.2871 17.5215 10.5762C17.6855 10.8613 17.8105 11.207 17.8965 11.6133C17.9824 12.0156 18.0254 12.4844 18.0254 13.0195ZM16.6133 14.6133V12.8086C16.6133 12.4688 16.5938 12.1699 16.5547 11.9121C16.5156 11.6504 16.457 11.4297 16.3789 11.25C16.3047 11.0664 16.2109 10.918 16.0977 10.8047C15.9844 10.6875 15.8555 10.6035 15.7109 10.5527C15.5664 10.498 15.4043 10.4707 15.2246 10.4707C15.0059 10.4707 14.8105 10.5137 14.6387 10.5996C14.4668 10.6816 14.3223 10.8145 14.2051 10.998C14.0879 11.1816 13.998 11.4238 13.9355 11.7246C13.877 12.0215 13.8477 12.3828 13.8477 12.8086V14.6133C13.8477 14.957 13.8672 15.2598 13.9062 15.5215C13.9453 15.7832 14.0039 16.0078 14.082 16.1953C14.1602 16.3789 14.2539 16.5312 14.3633 16.6523C14.4766 16.7695 14.6055 16.8555 14.75 16.9102C14.8984 16.9648 15.0605 16.9922 15.2363 16.9922C15.459 16.9922 15.6562 16.9492 15.8281 16.8633C16 16.7773 16.1445 16.6406 16.2617 16.4531C16.3789 16.2617 16.4668 16.0137 16.5254 15.709C16.584 15.4043 16.6133 15.0391 16.6133 14.6133ZM24.8457 13.0195V14.4141C24.8457 15.082 24.7793 15.6523 24.6465 16.125C24.5176 16.5938 24.3301 16.9746 24.084 17.2676C23.8379 17.5605 23.543 17.7754 23.1992 17.9121C22.8594 18.0488 22.4785 18.1172 22.0566 18.1172C21.7207 18.1172 21.4082 18.0742 21.1191 17.9883C20.834 17.9023 20.5762 17.7676 20.3457 17.584C20.1152 17.4004 19.918 17.1641 19.7539 16.875C19.5938 16.582 19.4688 16.2324 19.3789 15.8262C19.293 15.4199 19.25 14.9492 19.25 14.4141V13.0195C19.25 12.3477 19.3164 11.7812 19.4492 11.3203C19.582 10.8555 19.7715 10.4785 20.0176 10.1895C20.2637 9.89648 20.5566 9.68359 20.8965 9.55078C21.2402 9.41797 21.623 9.35156 22.0449 9.35156C22.3848 9.35156 22.6973 9.39453 22.9824 9.48047C23.2715 9.5625 23.5293 9.69336 23.7559 9.87305C23.9863 10.0527 24.1816 10.2871 24.3418 10.5762C24.5059 10.8613 24.6309 11.207 24.7168 11.6133C24.8027 12.0156 24.8457 12.4844 24.8457 13.0195ZM23.4336 14.6133V12.8086C23.4336 12.4688 23.4141 12.1699 23.375 11.9121C23.3359 11.6504 23.2773 11.4297 23.1992 11.25C23.125 11.0664 23.0312 10.918 22.918 10.8047C22.8047 10.6875 22.6758 10.6035 22.5312 10.5527C22.3867 10.498 22.2246 10.4707 22.0449 10.4707C21.8262 10.4707 21.6309 10.5137 21.459 10.5996C21.2871 10.6816 21.1426 10.8145 21.0254 10.998C20.9082 11.1816 20.8184 11.4238 20.7559 11.7246C20.6973 12.0215 20.668 12.3828 20.668 12.8086V14.6133C20.668 14.957 20.6875 15.2598 20.7266 15.5215C20.7656 15.7832 20.8242 16.0078 20.9023 16.1953C20.9805 16.3789 21.0742 16.5312 21.1836 16.6523C21.2969 16.7695 21.4258 16.8555 21.5703 16.9102C21.7188 16.9648 21.8809 16.9922 22.0566 16.9922C22.2793 16.9922 22.4766 16.9492 22.6484 16.8633C22.8203 16.7773 22.9648 16.6406 23.082 16.4531C23.1992 16.2617 23.2871 16.0137 23.3457 15.709C23.4043 15.4043 23.4336 15.0391 23.4336 14.6133ZM26.0469 11.5605V11.1094C26.0469 10.7852 26.1172 10.4902 26.2578 10.2246C26.3984 9.95898 26.6035 9.74609 26.873 9.58594C27.1426 9.42578 27.4668 9.3457 27.8457 9.3457C28.2363 9.3457 28.5645 9.42578 28.8301 9.58594C29.0996 9.74609 29.3047 9.95898 29.4453 10.2246C29.5859 10.4902 29.6562 10.7852 29.6562 11.1094V11.5605C29.6562 11.877 29.5859 12.168 29.4453 12.4336C29.3086 12.6992 29.1055 12.9121 28.8359 13.0723C28.5703 13.2324 28.2441 13.3125 27.8574 13.3125C27.4746 13.3125 27.1465 13.2324 26.873 13.0723C26.6035 12.9121 26.3984 12.6992 26.2578 12.4336C26.1172 12.168 26.0469 11.877 26.0469 11.5605ZM27.0254 11.1094V11.5605C27.0254 11.7168 27.0547 11.8652 27.1133 12.0059C27.1758 12.1465 27.2695 12.2598 27.3945 12.3457C27.5195 12.4316 27.6738 12.4746 27.8574 12.4746C28.0449 12.4746 28.1973 12.4316 28.3145 12.3457C28.4355 12.2598 28.5254 12.1465 28.584 12.0059C28.6426 11.8652 28.6719 11.7168 28.6719 11.5605V11.1094C28.6719 10.9492 28.6406 10.7988 28.5781 10.6582C28.5195 10.5137 28.4297 10.3984 28.3086 10.3125C28.1875 10.2266 28.0332 10.1836 27.8457 10.1836C27.666 10.1836 27.5137 10.2266 27.3887 10.3125C27.2676 10.3984 27.1758 10.5137 27.1133 10.6582C27.0547 10.7988 27.0254 10.9492 27.0254 11.1094ZM30.1602 16.3652V15.9082C30.1602 15.5879 30.2305 15.2949 30.3711 15.0293C30.5156 14.7637 30.7227 14.5508 30.9922 14.3906C31.2617 14.2305 31.5859 14.1504 31.9648 14.1504C32.3555 14.1504 32.6836 14.2305 32.9492 14.3906C33.2188 14.5508 33.4219 14.7637 33.5586 15.0293C33.6992 15.2949 33.7695 15.5879 33.7695 15.9082V16.3652C33.7695 16.6855 33.6992 16.9785 33.5586 17.2441C33.4219 17.5098 33.2207 17.7227 32.9551 17.8828C32.6895 18.043 32.3652 18.123 31.9824 18.123C31.5957 18.123 31.2656 18.043 30.9922 17.8828C30.7227 17.7227 30.5156 17.5098 30.3711 17.2441C30.2305 16.9785 30.1602 16.6855 30.1602 16.3652ZM31.1445 15.9082V16.3652C31.1445 16.5215 31.1758 16.6699 31.2383 16.8105C31.3047 16.9512 31.4004 17.0664 31.5254 17.1562C31.6504 17.2422 31.8008 17.2852 31.9766 17.2852C32.1758 17.2852 32.3359 17.2422 32.457 17.1562C32.5781 17.0664 32.6641 16.9531 32.7148 16.8164C32.7695 16.6758 32.7969 16.5254 32.7969 16.3652V15.9082C32.7969 15.748 32.7656 15.5977 32.7031 15.457C32.6445 15.3164 32.5527 15.2031 32.4277 15.1172C32.3066 15.0312 32.1523 14.9883 31.9648 14.9883C31.7812 14.9883 31.6289 15.0312 31.5078 15.1172C31.3867 15.2031 31.2949 15.3164 31.2324 15.457C31.1738 15.5977 31.1445 15.748 31.1445 15.9082ZM32.3164 10.6875L28.1504 17.3555L27.4297 16.9395L31.5957 10.2715L32.3164 10.6875ZM42.6406 15.8027C42.6406 15.627 42.6133 15.4707 42.5586 15.334C42.5078 15.1973 42.416 15.0723 42.2832 14.959C42.1504 14.8457 41.9629 14.7363 41.7207 14.6309C41.4824 14.5215 41.1777 14.4102 40.8066 14.2969C40.4004 14.1719 40.0254 14.0332 39.6816 13.8809C39.3418 13.7246 39.0449 13.5449 38.791 13.3418C38.5371 13.1348 38.3398 12.8984 38.1992 12.6328C38.0586 12.3633 37.9883 12.0527 37.9883 11.7012C37.9883 11.3535 38.0605 11.0371 38.2051 10.752C38.3535 10.4668 38.5625 10.2207 38.832 10.0137C39.1055 9.80273 39.4277 9.64062 39.7988 9.52734C40.1699 9.41016 40.5801 9.35156 41.0293 9.35156C41.6621 9.35156 42.207 9.46875 42.6641 9.70312C43.125 9.9375 43.4785 10.252 43.7246 10.6465C43.9746 11.041 44.0996 11.4766 44.0996 11.9531H42.6406C42.6406 11.6719 42.5801 11.4238 42.459 11.209C42.3418 10.9902 42.1621 10.8184 41.9199 10.6934C41.6816 10.5684 41.3789 10.5059 41.0117 10.5059C40.6641 10.5059 40.375 10.5586 40.1445 10.6641C39.9141 10.7695 39.7422 10.9121 39.6289 11.0918C39.5156 11.2715 39.459 11.4746 39.459 11.7012C39.459 11.8613 39.4961 12.0078 39.5703 12.1406C39.6445 12.2695 39.7578 12.3906 39.9102 12.5039C40.0625 12.6133 40.2539 12.7168 40.4844 12.8145C40.7148 12.9121 40.9863 13.0059 41.2988 13.0957C41.7715 13.2363 42.1836 13.3926 42.5352 13.5645C42.8867 13.7324 43.1797 13.9238 43.4141 14.1387C43.6484 14.3535 43.8242 14.5977 43.9414 14.8711C44.0586 15.1406 44.1172 15.4473 44.1172 15.791C44.1172 16.1504 44.0449 16.4746 43.9004 16.7637C43.7559 17.0488 43.5488 17.293 43.2793 17.4961C43.0137 17.6953 42.6934 17.8496 42.3184 17.959C41.9473 18.0645 41.5332 18.1172 41.0762 18.1172C40.666 18.1172 40.2617 18.0625 39.8633 17.9531C39.4688 17.8438 39.1094 17.6777 38.7852 17.4551C38.4609 17.2285 38.2031 16.9473 38.0117 16.6113C37.8203 16.2715 37.7246 15.875 37.7246 15.4219H39.1953C39.1953 15.6992 39.2422 15.9355 39.3359 16.1309C39.4336 16.3262 39.5684 16.4863 39.7402 16.6113C39.9121 16.7324 40.1113 16.8223 40.3379 16.8809C40.5684 16.9395 40.8145 16.9688 41.0762 16.9688C41.4199 16.9688 41.707 16.9199 41.9375 16.8223C42.1719 16.7246 42.3477 16.5879 42.4648 16.4121C42.582 16.2363 42.6406 16.0332 42.6406 15.8027ZM48.0723 18.1172C47.6035 18.1172 47.1797 18.041 46.8008 17.8887C46.4258 17.7324 46.1055 17.5156 45.8398 17.2383C45.5781 16.9609 45.377 16.6348 45.2363 16.2598C45.0957 15.8848 45.0254 15.4805 45.0254 15.0469V14.8125C45.0254 14.3164 45.0977 13.8672 45.2422 13.4648C45.3867 13.0625 45.5879 12.7188 45.8457 12.4336C46.1035 12.1445 46.4082 11.9238 46.7598 11.7715C47.1113 11.6191 47.4922 11.543 47.9023 11.543C48.3555 11.543 48.752 11.6191 49.0918 11.7715C49.4316 11.9238 49.7129 12.1387 49.9355 12.416C50.1621 12.6895 50.3301 13.0156 50.4395 13.3945C50.5527 13.7734 50.6094 14.1914 50.6094 14.6484V15.252H45.7109V14.2383H49.2148V14.127C49.207 13.873 49.1562 13.6348 49.0625 13.4121C48.9727 13.1895 48.834 13.0098 48.6465 12.873C48.459 12.7363 48.209 12.668 47.8965 12.668C47.6621 12.668 47.4531 12.7188 47.2695 12.8203C47.0898 12.918 46.9395 13.0605 46.8184 13.248C46.6973 13.4355 46.6035 13.6621 46.5371 13.9277C46.4746 14.1895 46.4434 14.4844 46.4434 14.8125V15.0469C46.4434 15.3242 46.4805 15.582 46.5547 15.8203C46.6328 16.0547 46.7461 16.2598 46.8945 16.4355C47.043 16.6113 47.2227 16.75 47.4336 16.8516C47.6445 16.9492 47.8848 16.998 48.1543 16.998C48.4941 16.998 48.7969 16.9297 49.0625 16.793C49.3281 16.6562 49.5586 16.4629 49.7539 16.2129L50.498 16.9336C50.3613 17.1328 50.1836 17.3242 49.9648 17.5078C49.7461 17.6875 49.4785 17.834 49.1621 17.9473C48.8496 18.0605 48.4863 18.1172 48.0723 18.1172ZM54.3008 16.9922C54.5312 16.9922 54.7383 16.9473 54.9219 16.8574C55.1094 16.7637 55.2598 16.6348 55.373 16.4707C55.4902 16.3066 55.5547 16.1172 55.5664 15.9023H56.8965C56.8887 16.3125 56.7676 16.6855 56.5332 17.0215C56.2988 17.3574 55.9883 17.625 55.6016 17.8242C55.2148 18.0195 54.7871 18.1172 54.3184 18.1172C53.834 18.1172 53.4121 18.0352 53.0527 17.8711C52.6934 17.7031 52.3945 17.4727 52.1562 17.1797C51.918 16.8867 51.7383 16.5488 51.6172 16.166C51.5 15.7832 51.4414 15.373 51.4414 14.9355V14.7305C51.4414 14.293 51.5 13.8828 51.6172 13.5C51.7383 13.1133 51.918 12.7734 52.1562 12.4805C52.3945 12.1875 52.6934 11.959 53.0527 11.7949C53.4121 11.627 53.832 11.543 54.3125 11.543C54.8203 11.543 55.2656 11.6445 55.6484 11.8477C56.0312 12.0469 56.332 12.3262 56.5508 12.6855C56.7734 13.041 56.8887 13.4551 56.8965 13.9277H55.5664C55.5547 13.6934 55.4961 13.4824 55.3906 13.2949C55.2891 13.1035 55.1445 12.9512 54.957 12.8379C54.7734 12.7246 54.5527 12.668 54.2949 12.668C54.0098 12.668 53.7734 12.7266 53.5859 12.8438C53.3984 12.957 53.252 13.1133 53.1465 13.3125C53.041 13.5078 52.9648 13.7285 52.918 13.9746C52.875 14.2168 52.8535 14.4688 52.8535 14.7305V14.9355C52.8535 15.1973 52.875 15.4512 52.918 15.6973C52.9609 15.9434 53.0352 16.1641 53.1406 16.3594C53.25 16.5508 53.3984 16.7051 53.5859 16.8223C53.7734 16.9355 54.0117 16.9922 54.3008 16.9922ZM61.7949 16.5059V11.6602H63.2129V18H61.877L61.7949 16.5059ZM61.9941 15.1875L62.4688 15.1758C62.4688 15.6016 62.4219 15.9941 62.3281 16.3535C62.2344 16.709 62.0898 17.0195 61.8945 17.2852C61.6992 17.5469 61.4492 17.752 61.1445 17.9004C60.8398 18.0449 60.4746 18.1172 60.0488 18.1172C59.7402 18.1172 59.457 18.0723 59.1992 17.9824C58.9414 17.8926 58.7188 17.7539 58.5312 17.5664C58.3477 17.3789 58.2051 17.1348 58.1035 16.834C58.002 16.5332 57.9512 16.1738 57.9512 15.7559V11.6602H59.3633V15.7676C59.3633 15.998 59.3906 16.1914 59.4453 16.3477C59.5 16.5 59.5742 16.623 59.668 16.7168C59.7617 16.8105 59.8711 16.877 59.9961 16.916C60.1211 16.9551 60.2539 16.9746 60.3945 16.9746C60.7969 16.9746 61.1133 16.8965 61.3438 16.7402C61.5781 16.5801 61.7441 16.3652 61.8418 16.0957C61.9434 15.8262 61.9941 15.5234 61.9941 15.1875ZM66.0781 12.8672V18H64.666V11.6602H66.0137L66.0781 12.8672ZM68.0176 11.6191L68.0059 12.9316C67.9199 12.916 67.8262 12.9043 67.7246 12.8965C67.627 12.8887 67.5293 12.8848 67.4316 12.8848C67.1895 12.8848 66.9766 12.9199 66.793 12.9902C66.6094 13.0566 66.4551 13.1543 66.3301 13.2832C66.209 13.4082 66.1152 13.5605 66.0488 13.7402C65.9824 13.9199 65.9434 14.1211 65.9316 14.3438L65.6094 14.3672C65.6094 13.9688 65.6484 13.5996 65.7266 13.2598C65.8047 12.9199 65.9219 12.6211 66.0781 12.3633C66.2383 12.1055 66.4375 11.9043 66.6758 11.7598C66.918 11.6152 67.1973 11.543 67.5137 11.543C67.5996 11.543 67.6914 11.5508 67.7891 11.5664C67.8906 11.582 67.9668 11.5996 68.0176 11.6191ZM71.5801 18.1172C71.1113 18.1172 70.6875 18.041 70.3086 17.8887C69.9336 17.7324 69.6133 17.5156 69.3477 17.2383C69.0859 16.9609 68.8848 16.6348 68.7441 16.2598C68.6035 15.8848 68.5332 15.4805 68.5332 15.0469V14.8125C68.5332 14.3164 68.6055 13.8672 68.75 13.4648C68.8945 13.0625 69.0957 12.7188 69.3535 12.4336C69.6113 12.1445 69.916 11.9238 70.2676 11.7715C70.6191 11.6191 71 11.543 71.4102 11.543C71.8633 11.543 72.2598 11.6191 72.5996 11.7715C72.9395 11.9238 73.2207 12.1387 73.4434 12.416C73.6699 12.6895 73.8379 13.0156 73.9473 13.3945C74.0605 13.7734 74.1172 14.1914 74.1172 14.6484V15.252H69.2188V14.2383H72.7227V14.127C72.7148 13.873 72.6641 13.6348 72.5703 13.4121C72.4805 13.1895 72.3418 13.0098 72.1543 12.873C71.9668 12.7363 71.7168 12.668 71.4043 12.668C71.1699 12.668 70.9609 12.7188 70.7773 12.8203C70.5977 12.918 70.4473 13.0605 70.3262 13.248C70.2051 13.4355 70.1113 13.6621 70.0449 13.9277C69.9824 14.1895 69.9512 14.4844 69.9512 14.8125V15.0469C69.9512 15.3242 69.9883 15.582 70.0625 15.8203C70.1406 16.0547 70.2539 16.2598 70.4023 16.4355C70.5508 16.6113 70.7305 16.75 70.9414 16.8516C71.1523 16.9492 71.3926 16.998 71.6621 16.998C72.002 16.998 72.3047 16.9297 72.5703 16.793C72.8359 16.6562 73.0664 16.4629 73.2617 16.2129L74.0059 16.9336C73.8691 17.1328 73.6914 17.3242 73.4727 17.5078C73.2539 17.6875 72.9863 17.834 72.6699 17.9473C72.3574 18.0605 71.9941 18.1172 71.5801 18.1172ZM79.625 12.8789V20.4375H78.2129V11.6602H79.5137L79.625 12.8789ZM83.7559 14.7715V14.8945C83.7559 15.3555 83.7012 15.7832 83.5918 16.1777C83.4863 16.5684 83.3281 16.9102 83.1172 17.2031C82.9102 17.4922 82.6543 17.7168 82.3496 17.877C82.0449 18.0371 81.6934 18.1172 81.2949 18.1172C80.9004 18.1172 80.5547 18.0449 80.2578 17.9004C79.9648 17.752 79.7168 17.543 79.5137 17.2734C79.3105 17.0039 79.1465 16.6875 79.0215 16.3242C78.9004 15.957 78.8145 15.5547 78.7637 15.1172V14.6426C78.8145 14.1777 78.9004 13.7559 79.0215 13.377C79.1465 12.998 79.3105 12.6719 79.5137 12.3984C79.7168 12.125 79.9648 11.9141 80.2578 11.7656C80.5508 11.6172 80.8926 11.543 81.2832 11.543C81.6816 11.543 82.0352 11.6211 82.3438 11.7773C82.6523 11.9297 82.9121 12.1484 83.123 12.4336C83.334 12.7148 83.4922 13.0547 83.5977 13.4531C83.7031 13.8477 83.7559 14.2871 83.7559 14.7715ZM82.3438 14.8945V14.7715C82.3438 14.4785 82.3164 14.207 82.2617 13.957C82.207 13.7031 82.1211 13.4805 82.0039 13.2891C81.8867 13.0977 81.7363 12.9492 81.5527 12.8438C81.373 12.7344 81.1562 12.6797 80.9023 12.6797C80.6523 12.6797 80.4375 12.7227 80.2578 12.8086C80.0781 12.8906 79.9277 13.0059 79.8066 13.1543C79.6855 13.3027 79.5918 13.4766 79.5254 13.6758C79.459 13.8711 79.4121 14.084 79.3848 14.3145V15.4512C79.4316 15.7324 79.5117 15.9902 79.625 16.2246C79.7383 16.459 79.8984 16.6465 80.1055 16.7871C80.3164 16.9238 80.5859 16.9922 80.9141 16.9922C81.168 16.9922 81.3848 16.9375 81.5645 16.8281C81.7441 16.7188 81.8906 16.5684 82.0039 16.377C82.1211 16.1816 82.207 15.957 82.2617 15.7031C82.3164 15.4492 82.3438 15.1797 82.3438 14.8945ZM88.5312 16.7285V13.7051C88.5312 13.4785 88.4902 13.2832 88.4082 13.1191C88.3262 12.9551 88.2012 12.8281 88.0332 12.7383C87.8691 12.6484 87.6621 12.6035 87.4121 12.6035C87.1816 12.6035 86.9824 12.6426 86.8145 12.7207C86.6465 12.7988 86.5156 12.9043 86.4219 13.0371C86.3281 13.1699 86.2812 13.3203 86.2812 13.4883H84.875C84.875 13.2383 84.9355 12.9961 85.0566 12.7617C85.1777 12.5273 85.3535 12.3184 85.584 12.1348C85.8145 11.9512 86.0898 11.8066 86.4102 11.7012C86.7305 11.5957 87.0898 11.543 87.4883 11.543C87.9648 11.543 88.3867 11.623 88.7539 11.7832C89.125 11.9434 89.416 12.1855 89.627 12.5098C89.8418 12.8301 89.9492 13.2324 89.9492 13.7168V16.5352C89.9492 16.8242 89.9688 17.084 90.0078 17.3145C90.0508 17.541 90.1113 17.7383 90.1895 17.9062V18H88.7422C88.6758 17.8477 88.623 17.6543 88.584 17.4199C88.5488 17.1816 88.5312 16.9512 88.5312 16.7285ZM88.7363 14.1445L88.748 15.0176H87.7344C87.4727 15.0176 87.2422 15.043 87.043 15.0938C86.8438 15.1406 86.6777 15.2109 86.5449 15.3047C86.4121 15.3984 86.3125 15.5117 86.2461 15.6445C86.1797 15.7773 86.1465 15.9277 86.1465 16.0957C86.1465 16.2637 86.1855 16.418 86.2637 16.5586C86.3418 16.6953 86.4551 16.8027 86.6035 16.8809C86.7559 16.959 86.9395 16.998 87.1543 16.998C87.4434 16.998 87.6953 16.9395 87.9102 16.8223C88.1289 16.7012 88.3008 16.5547 88.4258 16.3828C88.5508 16.207 88.6172 16.041 88.625 15.8848L89.082 16.5117C89.0352 16.6719 88.9551 16.8438 88.8418 17.0273C88.7285 17.2109 88.5801 17.3867 88.3965 17.5547C88.2168 17.7188 88 17.8535 87.7461 17.959C87.4961 18.0645 87.207 18.1172 86.8789 18.1172C86.4648 18.1172 86.0957 18.0352 85.7715 17.8711C85.4473 17.7031 85.1934 17.4785 85.0098 17.1973C84.8262 16.9121 84.7344 16.5898 84.7344 16.2305C84.7344 15.8945 84.7969 15.5977 84.9219 15.3398C85.0508 15.0781 85.2383 14.8594 85.4844 14.6836C85.7344 14.5078 86.0391 14.375 86.3984 14.2852C86.7578 14.1914 87.168 14.1445 87.6289 14.1445H88.7363ZM93.1719 17.3086L94.8945 11.6602H96.4062L93.8633 18.9668C93.8047 19.123 93.7285 19.293 93.6348 19.4766C93.541 19.6602 93.418 19.834 93.2656 19.998C93.1172 20.166 92.9316 20.3008 92.709 20.4023C92.4863 20.5078 92.2168 20.5605 91.9004 20.5605C91.7754 20.5605 91.6543 20.5488 91.5371 20.5254C91.4238 20.5059 91.3164 20.4844 91.2148 20.4609L91.209 19.3828C91.248 19.3867 91.2949 19.3906 91.3496 19.3945C91.4082 19.3984 91.4551 19.4004 91.4902 19.4004C91.7246 19.4004 91.9199 19.3711 92.0762 19.3125C92.2324 19.2578 92.3594 19.168 92.457 19.043C92.5586 18.918 92.6445 18.75 92.7148 18.5391L93.1719 17.3086ZM92.1992 11.6602L93.7051 16.4062L93.957 17.8945L92.9785 18.1465L90.6758 11.6602H92.1992ZM98.627 12.9492V18H97.2148V11.6602H98.5449L98.627 12.9492ZM98.3984 14.5957L97.918 14.5898C97.918 14.1523 97.9727 13.748 98.082 13.377C98.1914 13.0059 98.3516 12.6836 98.5625 12.4102C98.7734 12.1328 99.0352 11.9199 99.3477 11.7715C99.6641 11.6191 100.029 11.543 100.443 11.543C100.732 11.543 100.996 11.5859 101.234 11.6719C101.477 11.7539 101.686 11.8848 101.861 12.0645C102.041 12.2441 102.178 12.4746 102.271 12.7559C102.369 13.0371 102.418 13.377 102.418 13.7754V18H101.006V13.8984C101.006 13.5898 100.959 13.3477 100.865 13.1719C100.775 12.9961 100.645 12.8711 100.473 12.7969C100.305 12.7188 100.104 12.6797 99.8691 12.6797C99.6035 12.6797 99.377 12.7305 99.1895 12.832C99.0059 12.9336 98.8555 13.0723 98.7383 13.248C98.6211 13.4238 98.5352 13.627 98.4805 13.8574C98.4258 14.0879 98.3984 14.334 98.3984 14.5957ZM102.33 14.2207L101.668 14.3672C101.668 13.9844 101.721 13.623 101.826 13.2832C101.936 12.9395 102.094 12.6387 102.301 12.3809C102.512 12.1191 102.771 11.9141 103.08 11.7656C103.389 11.6172 103.742 11.543 104.141 11.543C104.465 11.543 104.754 11.5879 105.008 11.6777C105.266 11.7637 105.484 11.9004 105.664 12.0879C105.844 12.2754 105.98 12.5195 106.074 12.8203C106.168 13.1172 106.215 13.4766 106.215 13.8984V18H104.797V13.8926C104.797 13.5723 104.75 13.3242 104.656 13.1484C104.566 12.9727 104.438 12.8516 104.27 12.7852C104.102 12.7148 103.9 12.6797 103.666 12.6797C103.447 12.6797 103.254 12.7207 103.086 12.8027C102.922 12.8809 102.783 12.9922 102.67 13.1367C102.557 13.2773 102.471 13.4395 102.412 13.623C102.357 13.8066 102.33 14.0059 102.33 14.2207ZM110.463 18.1172C109.994 18.1172 109.57 18.041 109.191 17.8887C108.816 17.7324 108.496 17.5156 108.23 17.2383C107.969 16.9609 107.768 16.6348 107.627 16.2598C107.486 15.8848 107.416 15.4805 107.416 15.0469V14.8125C107.416 14.3164 107.488 13.8672 107.633 13.4648C107.777 13.0625 107.979 12.7188 108.236 12.4336C108.494 12.1445 108.799 11.9238 109.15 11.7715C109.502 11.6191 109.883 11.543 110.293 11.543C110.746 11.543 111.143 11.6191 111.482 11.7715C111.822 11.9238 112.104 12.1387 112.326 12.416C112.553 12.6895 112.721 13.0156 112.83 13.3945C112.943 13.7734 113 14.1914 113 14.6484V15.252H108.102V14.2383H111.605V14.127C111.598 13.873 111.547 13.6348 111.453 13.4121C111.363 13.1895 111.225 13.0098 111.037 12.873C110.85 12.7363 110.6 12.668 110.287 12.668C110.053 12.668 109.844 12.7188 109.66 12.8203C109.48 12.918 109.33 13.0605 109.209 13.248C109.088 13.4355 108.994 13.6621 108.928 13.9277C108.865 14.1895 108.834 14.4844 108.834 14.8125V15.0469C108.834 15.3242 108.871 15.582 108.945 15.8203C109.023 16.0547 109.137 16.2598 109.285 16.4355C109.434 16.6113 109.613 16.75 109.824 16.8516C110.035 16.9492 110.275 16.998 110.545 16.998C110.885 16.998 111.188 16.9297 111.453 16.793C111.719 16.6562 111.949 16.4629 112.145 16.2129L112.889 16.9336C112.752 17.1328 112.574 17.3242 112.355 17.5078C112.137 17.6875 111.869 17.834 111.553 17.9473C111.24 18.0605 110.877 18.1172 110.463 18.1172ZM115.502 13.0137V18H114.09V11.6602H115.42L115.502 13.0137ZM115.25 14.5957L114.793 14.5898C114.797 14.1406 114.859 13.7285 114.98 13.3535C115.105 12.9785 115.277 12.6562 115.496 12.3867C115.719 12.1172 115.984 11.9102 116.293 11.7656C116.602 11.6172 116.945 11.543 117.324 11.543C117.629 11.543 117.904 11.5859 118.15 11.6719C118.4 11.7539 118.613 11.8887 118.789 12.0762C118.969 12.2637 119.105 12.5078 119.199 12.8086C119.293 13.1055 119.34 13.4707 119.34 13.9043V18H117.922V13.8984C117.922 13.5938 117.877 13.3535 117.787 13.1777C117.701 12.998 117.574 12.8711 117.406 12.7969C117.242 12.7188 117.037 12.6797 116.791 12.6797C116.549 12.6797 116.332 12.7305 116.141 12.832C115.949 12.9336 115.787 13.0723 115.654 13.248C115.525 13.4238 115.426 13.627 115.355 13.8574C115.285 14.0879 115.25 14.334 115.25 14.5957ZM123.688 11.6602V12.6914H120.113V11.6602H123.688ZM121.145 10.1074H122.557V16.248C122.557 16.4434 122.584 16.5938 122.639 16.6992C122.697 16.8008 122.777 16.8691 122.879 16.9043C122.98 16.9395 123.1 16.957 123.236 16.957C123.334 16.957 123.428 16.9512 123.518 16.9395C123.607 16.9277 123.68 16.916 123.734 16.9043L123.74 17.9824C123.623 18.0176 123.486 18.0488 123.33 18.0762C123.178 18.1035 123.002 18.1172 122.803 18.1172C122.479 18.1172 122.191 18.0605 121.941 17.9473C121.691 17.8301 121.496 17.6406 121.355 17.3789C121.215 17.1172 121.145 16.7695 121.145 16.3359V10.1074ZM128.334 16.2832C128.334 16.1426 128.299 16.0156 128.229 15.9023C128.158 15.7852 128.023 15.6797 127.824 15.5859C127.629 15.4922 127.34 15.4062 126.957 15.3281C126.621 15.2539 126.312 15.166 126.031 15.0645C125.754 14.959 125.516 14.832 125.316 14.6836C125.117 14.5352 124.963 14.3594 124.854 14.1562C124.744 13.9531 124.689 13.7188 124.689 13.4531C124.689 13.1953 124.746 12.9512 124.859 12.7207C124.973 12.4902 125.135 12.2871 125.346 12.1113C125.557 11.9355 125.812 11.7969 126.113 11.6953C126.418 11.5938 126.758 11.543 127.133 11.543C127.664 11.543 128.119 11.6328 128.498 11.8125C128.881 11.9883 129.174 12.2285 129.377 12.5332C129.58 12.834 129.682 13.1738 129.682 13.5527H128.27C128.27 13.3848 128.227 13.2285 128.141 13.084C128.059 12.9355 127.934 12.8164 127.766 12.7266C127.598 12.6328 127.387 12.5859 127.133 12.5859C126.891 12.5859 126.689 12.625 126.529 12.7031C126.373 12.7773 126.256 12.875 126.178 12.9961C126.104 13.1172 126.066 13.25 126.066 13.3945C126.066 13.5 126.086 13.5957 126.125 13.6816C126.168 13.7637 126.238 13.8398 126.336 13.9102C126.434 13.9766 126.566 14.0391 126.734 14.0977C126.906 14.1562 127.121 14.2129 127.379 14.2676C127.863 14.3691 128.279 14.5 128.627 14.6602C128.979 14.8164 129.248 15.0195 129.436 15.2695C129.623 15.5156 129.717 15.8281 129.717 16.207C129.717 16.4883 129.656 16.7461 129.535 16.9805C129.418 17.2109 129.246 17.4121 129.02 17.584C128.793 17.752 128.521 17.8828 128.205 17.9766C127.893 18.0703 127.541 18.1172 127.15 18.1172C126.576 18.1172 126.09 18.0156 125.691 17.8125C125.293 17.6055 124.99 17.3418 124.783 17.0215C124.58 16.6973 124.479 16.3613 124.479 16.0137H125.844C125.859 16.2754 125.932 16.4844 126.061 16.6406C126.193 16.793 126.357 16.9043 126.553 16.9746C126.752 17.041 126.957 17.0742 127.168 17.0742C127.422 17.0742 127.635 17.041 127.807 16.9746C127.979 16.9043 128.109 16.8105 128.199 16.6934C128.289 16.5723 128.334 16.4355 128.334 16.2832ZM135.359 12.8789V20.4375H133.947V11.6602H135.248L135.359 12.8789ZM139.49 14.7715V14.8945C139.49 15.3555 139.436 15.7832 139.326 16.1777C139.221 16.5684 139.062 16.9102 138.852 17.2031C138.645 17.4922 138.389 17.7168 138.084 17.877C137.779 18.0371 137.428 18.1172 137.029 18.1172C136.635 18.1172 136.289 18.0449 135.992 17.9004C135.699 17.752 135.451 17.543 135.248 17.2734C135.045 17.0039 134.881 16.6875 134.756 16.3242C134.635 15.957 134.549 15.5547 134.498 15.1172V14.6426C134.549 14.1777 134.635 13.7559 134.756 13.377C134.881 12.998 135.045 12.6719 135.248 12.3984C135.451 12.125 135.699 11.9141 135.992 11.7656C136.285 11.6172 136.627 11.543 137.018 11.543C137.416 11.543 137.77 11.6211 138.078 11.7773C138.387 11.9297 138.646 12.1484 138.857 12.4336C139.068 12.7148 139.227 13.0547 139.332 13.4531C139.438 13.8477 139.49 14.2871 139.49 14.7715ZM138.078 14.8945V14.7715C138.078 14.4785 138.051 14.207 137.996 13.957C137.941 13.7031 137.855 13.4805 137.738 13.2891C137.621 13.0977 137.471 12.9492 137.287 12.8438C137.107 12.7344 136.891 12.6797 136.637 12.6797C136.387 12.6797 136.172 12.7227 135.992 12.8086C135.812 12.8906 135.662 13.0059 135.541 13.1543C135.42 13.3027 135.326 13.4766 135.26 13.6758C135.193 13.8711 135.146 14.084 135.119 14.3145V15.4512C135.166 15.7324 135.246 15.9902 135.359 16.2246C135.473 16.459 135.633 16.6465 135.84 16.7871C136.051 16.9238 136.32 16.9922 136.648 16.9922C136.902 16.9922 137.119 16.9375 137.299 16.8281C137.479 16.7188 137.625 16.5684 137.738 16.377C137.855 16.1816 137.941 15.957 137.996 15.7031C138.051 15.4492 138.078 15.1797 138.078 14.8945ZM140.422 14.9004V14.7656C140.422 14.3086 140.488 13.8848 140.621 13.4941C140.754 13.0996 140.945 12.7578 141.195 12.4688C141.449 12.1758 141.758 11.9492 142.121 11.7891C142.488 11.625 142.902 11.543 143.363 11.543C143.828 11.543 144.242 11.625 144.605 11.7891C144.973 11.9492 145.283 12.1758 145.537 12.4688C145.791 12.7578 145.984 13.0996 146.117 13.4941C146.25 13.8848 146.316 14.3086 146.316 14.7656V14.9004C146.316 15.3574 146.25 15.7812 146.117 16.1719C145.984 16.5625 145.791 16.9043 145.537 17.1973C145.283 17.4863 144.975 17.7129 144.611 17.877C144.248 18.0371 143.836 18.1172 143.375 18.1172C142.91 18.1172 142.494 18.0371 142.127 17.877C141.764 17.7129 141.455 17.4863 141.201 17.1973C140.947 16.9043 140.754 16.5625 140.621 16.1719C140.488 15.7812 140.422 15.3574 140.422 14.9004ZM141.834 14.7656V14.9004C141.834 15.1855 141.863 15.4551 141.922 15.709C141.98 15.9629 142.072 16.1855 142.197 16.377C142.322 16.5684 142.482 16.7188 142.678 16.8281C142.873 16.9375 143.105 16.9922 143.375 16.9922C143.637 16.9922 143.863 16.9375 144.055 16.8281C144.25 16.7188 144.41 16.5684 144.535 16.377C144.66 16.1855 144.752 15.9629 144.811 15.709C144.873 15.4551 144.904 15.1855 144.904 14.9004V14.7656C144.904 14.4844 144.873 14.2188 144.811 13.9688C144.752 13.7148 144.658 13.4902 144.529 13.2949C144.404 13.0996 144.244 12.9473 144.049 12.8379C143.857 12.7246 143.629 12.668 143.363 12.668C143.098 12.668 142.867 12.7246 142.672 12.8379C142.48 12.9473 142.322 13.0996 142.197 13.2949C142.072 13.4902 141.98 13.7148 141.922 13.9688C141.863 14.2188 141.834 14.4844 141.834 14.7656ZM149.223 16.5938L150.688 11.6602H151.59L151.344 13.1367L149.867 18H149.059L149.223 16.5938ZM148.361 11.6602L149.504 16.6172L149.598 18H148.695L146.979 11.6602H148.361ZM152.961 16.5586L154.068 11.6602H155.445L153.734 18H152.832L152.961 16.5586ZM151.742 11.6602L153.189 16.5352L153.371 18H152.562L151.068 13.1309L150.822 11.6602H151.742ZM159.201 18.1172C158.732 18.1172 158.309 18.041 157.93 17.8887C157.555 17.7324 157.234 17.5156 156.969 17.2383C156.707 16.9609 156.506 16.6348 156.365 16.2598C156.225 15.8848 156.154 15.4805 156.154 15.0469V14.8125C156.154 14.3164 156.227 13.8672 156.371 13.4648C156.516 13.0625 156.717 12.7188 156.975 12.4336C157.232 12.1445 157.537 11.9238 157.889 11.7715C158.24 11.6191 158.621 11.543 159.031 11.543C159.484 11.543 159.881 11.6191 160.221 11.7715C160.561 11.9238 160.842 12.1387 161.064 12.416C161.291 12.6895 161.459 13.0156 161.568 13.3945C161.682 13.7734 161.738 14.1914 161.738 14.6484V15.252H156.84V14.2383H160.344V14.127C160.336 13.873 160.285 13.6348 160.191 13.4121C160.102 13.1895 159.963 13.0098 159.775 12.873C159.588 12.7363 159.338 12.668 159.025 12.668C158.791 12.668 158.582 12.7188 158.398 12.8203C158.219 12.918 158.068 13.0605 157.947 13.248C157.826 13.4355 157.732 13.6621 157.666 13.9277C157.604 14.1895 157.572 14.4844 157.572 14.8125V15.0469C157.572 15.3242 157.609 15.582 157.684 15.8203C157.762 16.0547 157.875 16.2598 158.023 16.4355C158.172 16.6113 158.352 16.75 158.562 16.8516C158.773 16.9492 159.014 16.998 159.283 16.998C159.623 16.998 159.926 16.9297 160.191 16.793C160.457 16.6562 160.688 16.4629 160.883 16.2129L161.627 16.9336C161.49 17.1328 161.312 17.3242 161.094 17.5078C160.875 17.6875 160.607 17.834 160.291 17.9473C159.979 18.0605 159.615 18.1172 159.201 18.1172ZM164.258 12.8672V18H162.846V11.6602H164.193L164.258 12.8672ZM166.197 11.6191L166.186 12.9316C166.1 12.916 166.006 12.9043 165.904 12.8965C165.807 12.8887 165.709 12.8848 165.611 12.8848C165.369 12.8848 165.156 12.9199 164.973 12.9902C164.789 13.0566 164.635 13.1543 164.51 13.2832C164.389 13.4082 164.295 13.5605 164.229 13.7402C164.162 13.9199 164.123 14.1211 164.111 14.3438L163.789 14.3672C163.789 13.9688 163.828 13.5996 163.906 13.2598C163.984 12.9199 164.102 12.6211 164.258 12.3633C164.418 12.1055 164.617 11.9043 164.855 11.7598C165.098 11.6152 165.377 11.543 165.693 11.543C165.779 11.543 165.871 11.5508 165.969 11.5664C166.07 11.582 166.146 11.5996 166.197 11.6191ZM169.76 18.1172C169.291 18.1172 168.867 18.041 168.488 17.8887C168.113 17.7324 167.793 17.5156 167.527 17.2383C167.266 16.9609 167.064 16.6348 166.924 16.2598C166.783 15.8848 166.713 15.4805 166.713 15.0469V14.8125C166.713 14.3164 166.785 13.8672 166.93 13.4648C167.074 13.0625 167.275 12.7188 167.533 12.4336C167.791 12.1445 168.096 11.9238 168.447 11.7715C168.799 11.6191 169.18 11.543 169.59 11.543C170.043 11.543 170.439 11.6191 170.779 11.7715C171.119 11.9238 171.4 12.1387 171.623 12.416C171.85 12.6895 172.018 13.0156 172.127 13.3945C172.24 13.7734 172.297 14.1914 172.297 14.6484V15.252H167.398V14.2383H170.902V14.127C170.895 13.873 170.844 13.6348 170.75 13.4121C170.66 13.1895 170.521 13.0098 170.334 12.873C170.146 12.7363 169.896 12.668 169.584 12.668C169.35 12.668 169.141 12.7188 168.957 12.8203C168.777 12.918 168.627 13.0605 168.506 13.248C168.385 13.4355 168.291 13.6621 168.225 13.9277C168.162 14.1895 168.131 14.4844 168.131 14.8125V15.0469C168.131 15.3242 168.168 15.582 168.242 15.8203C168.32 16.0547 168.434 16.2598 168.582 16.4355C168.73 16.6113 168.91 16.75 169.121 16.8516C169.332 16.9492 169.572 16.998 169.842 16.998C170.182 16.998 170.484 16.9297 170.75 16.793C171.016 16.6562 171.246 16.4629 171.441 16.2129L172.186 16.9336C172.049 17.1328 171.871 17.3242 171.652 17.5078C171.434 17.6875 171.166 17.834 170.85 17.9473C170.537 18.0605 170.174 18.1172 169.76 18.1172ZM177.266 16.6875V9H178.684V18H177.4L177.266 16.6875ZM173.141 14.9004V14.7773C173.141 14.2969 173.197 13.8594 173.311 13.4648C173.424 13.0664 173.588 12.7246 173.803 12.4395C174.018 12.1504 174.279 11.9297 174.588 11.7773C174.896 11.6211 175.244 11.543 175.631 11.543C176.014 11.543 176.35 11.6172 176.639 11.7656C176.928 11.9141 177.174 12.127 177.377 12.4043C177.58 12.6777 177.742 13.0059 177.863 13.3887C177.984 13.7676 178.07 14.1895 178.121 14.6543V15.0469C178.07 15.5 177.984 15.9141 177.863 16.2891C177.742 16.6641 177.58 16.9883 177.377 17.2617C177.174 17.5352 176.926 17.7461 176.633 17.8945C176.344 18.043 176.006 18.1172 175.619 18.1172C175.236 18.1172 174.891 18.0371 174.582 17.877C174.277 17.7168 174.018 17.4922 173.803 17.2031C173.588 16.9141 173.424 16.5742 173.311 16.1836C173.197 15.7891 173.141 15.3613 173.141 14.9004ZM174.553 14.7773V14.9004C174.553 15.1895 174.578 15.459 174.629 15.709C174.684 15.959 174.768 16.1797 174.881 16.3711C174.994 16.5586 175.141 16.707 175.32 16.8164C175.504 16.9219 175.723 16.9746 175.977 16.9746C176.297 16.9746 176.561 16.9043 176.768 16.7637C176.975 16.623 177.137 16.4336 177.254 16.1953C177.375 15.9531 177.457 15.6836 177.5 15.3867V14.3262C177.477 14.0957 177.428 13.8809 177.354 13.6816C177.283 13.4824 177.188 13.3086 177.066 13.1602C176.945 13.0078 176.795 12.8906 176.615 12.8086C176.439 12.7227 176.23 12.6797 175.988 12.6797C175.73 12.6797 175.512 12.7344 175.332 12.8438C175.152 12.9531 175.004 13.1035 174.887 13.2949C174.773 13.4863 174.689 13.709 174.635 13.9629C174.58 14.2168 174.553 14.4883 174.553 14.7773ZM183.154 9H184.566V16.6465L184.432 18H183.154V9ZM188.703 14.7715V14.8945C188.703 15.3633 188.65 15.7949 188.545 16.1895C188.443 16.5801 188.287 16.9199 188.076 17.209C187.869 17.498 187.611 17.7227 187.303 17.8828C186.998 18.0391 186.645 18.1172 186.242 18.1172C185.848 18.1172 185.504 18.043 185.211 17.8945C184.918 17.7461 184.672 17.5352 184.473 17.2617C184.277 16.9883 184.119 16.6621 183.998 16.2832C183.877 15.9043 183.791 15.4863 183.74 15.0293V14.6367C183.791 14.1758 183.877 13.7578 183.998 13.3828C184.119 13.0039 184.277 12.6777 184.473 12.4043C184.672 12.127 184.916 11.9141 185.205 11.7656C185.498 11.6172 185.84 11.543 186.23 11.543C186.637 11.543 186.994 11.6211 187.303 11.7773C187.615 11.9336 187.875 12.1562 188.082 12.4453C188.289 12.7305 188.443 13.0703 188.545 13.4648C188.65 13.8594 188.703 14.2949 188.703 14.7715ZM187.291 14.8945V14.7715C187.291 14.4863 187.268 14.2188 187.221 13.9688C187.174 13.7148 187.096 13.4922 186.986 13.3008C186.881 13.1094 186.736 12.959 186.553 12.8496C186.373 12.7363 186.148 12.6797 185.879 12.6797C185.629 12.6797 185.414 12.7227 185.234 12.8086C185.055 12.8945 184.904 13.0117 184.783 13.1602C184.662 13.3086 184.566 13.4805 184.496 13.6758C184.43 13.8711 184.385 14.082 184.361 14.3086V15.3691C184.396 15.6621 184.471 15.9316 184.584 16.1777C184.701 16.4199 184.865 16.6152 185.076 16.7637C185.287 16.9082 185.559 16.9805 185.891 16.9805C186.152 16.9805 186.373 16.9277 186.553 16.8223C186.732 16.7168 186.875 16.5703 186.98 16.3828C187.09 16.1914 187.168 15.9688 187.215 15.7148C187.266 15.4609 187.291 15.1875 187.291 14.8945ZM191.668 17.3086L193.391 11.6602H194.902L192.359 18.9668C192.301 19.123 192.225 19.293 192.131 19.4766C192.037 19.6602 191.914 19.834 191.762 19.998C191.613 20.166 191.428 20.3008 191.205 20.4023C190.982 20.5078 190.713 20.5605 190.396 20.5605C190.271 20.5605 190.15 20.5488 190.033 20.5254C189.92 20.5059 189.812 20.4844 189.711 20.4609L189.705 19.3828C189.744 19.3867 189.791 19.3906 189.846 19.3945C189.904 19.3984 189.951 19.4004 189.986 19.4004C190.221 19.4004 190.416 19.3711 190.572 19.3125C190.729 19.2578 190.855 19.168 190.953 19.043C191.055 18.918 191.141 18.75 191.211 18.5391L191.668 17.3086ZM190.695 11.6602L192.201 16.4062L192.453 17.8945L191.475 18.1465L189.172 11.6602H190.695Z" fill="white"/>
<g clip-path="url(#clip0_179_3388)">
<path fill-rule="evenodd" clip-rule="evenodd" d="M203.759 13.277C202.984 12.9898 202.559 12.7664 202.559 12.4154C202.559 12.1175 202.804 11.9474 203.239 11.9474C204.035 11.9474 204.853 12.2559 205.416 12.5324L205.735 10.5647C205.288 10.3519 204.375 10.0009 203.112 10.0009C202.219 10.0009 201.476 10.2349 200.945 10.671C200.393 11.1284 200.106 11.7878 200.106 12.5856C200.106 14.0321 200.988 14.6491 202.421 15.1702C203.345 15.4999 203.653 15.734 203.653 16.0956C203.653 16.4466 203.356 16.6487 202.814 16.6487C202.145 16.6487 201.041 16.319 200.319 15.8935L200 17.8825C200.616 18.2336 201.763 18.5952 202.952 18.5952C203.897 18.5952 204.683 18.3718 205.214 17.9464C205.809 17.4783 206.117 16.787 206.117 15.8935C206.117 14.415 205.214 13.7981 203.759 13.277ZM211.303 12.1175L211.622 10.1605H209.94V7.78464L207.679 8.15734L207.352 10.1605L206.557 10.2897L206.259 12.1175H207.349V15.9574C207.349 16.9572 207.604 17.6486 208.124 18.074C208.559 18.425 209.186 18.5952 210.067 18.5952C210.747 18.5952 211.161 18.4782 211.448 18.4037V16.3296C211.288 16.3722 210.927 16.4466 210.683 16.4466C210.163 16.4466 209.94 16.1807 209.94 15.5745V12.1175H211.303ZM216.354 10.0461C215.611 10.0461 215.016 10.437 214.782 11.139L214.623 10.1605H212.319V18.4356H214.952V13.0642C215.281 12.66 215.749 12.5139 216.386 12.5139C216.524 12.5139 216.673 12.5139 216.853 12.5458V10.11C216.673 10.0674 216.513 10.0461 216.354 10.0461ZM218.818 9.34142C219.582 9.34142 220.198 8.71392 220.198 7.94809C220.198 7.17158 219.582 6.55469 218.818 6.55469C218.042 6.55469 217.427 7.17158 217.427 7.94809C217.427 8.71392 218.042 9.34142 218.818 9.34142ZM217.49 10.1605H220.135V18.4356H217.49V10.1605ZM227.628 10.905C227.161 10.2987 226.513 10.0009 225.684 10.0009C224.92 10.0009 224.251 10.32 223.624 10.9901L223.486 10.1605H221.171V21.4989L223.805 21.0629V18.4037C224.208 18.5313 224.622 18.5952 224.994 18.5952C225.653 18.5952 226.608 18.425 227.352 17.6167C228.063 16.8401 228.424 15.6383 228.424 14.0534C228.424 12.6494 228.159 11.5858 227.628 10.905ZM225.44 16.0105C225.228 16.4147 224.899 16.6275 224.516 16.6275C224.251 16.6275 224.017 16.5743 223.805 16.4679V12.5324C224.251 12.0644 224.654 12.0112 224.803 12.0112C225.472 12.0112 225.801 12.7345 225.801 14.1491C225.801 14.9575 225.684 15.5851 225.44 16.0105ZM235.975 14.2236C235.975 12.9047 235.688 11.8623 235.125 11.1284C234.552 10.3838 233.692 10.0009 232.598 10.0009C230.357 10.0009 228.966 11.6602 228.966 14.3193C228.966 15.8084 229.338 16.9253 230.07 17.6379C230.729 18.2761 231.674 18.5952 232.895 18.5952C234.021 18.5952 235.061 18.3293 235.72 17.8932L235.433 16.085C234.785 16.436 234.031 16.6275 233.182 16.6275C232.672 16.6275 232.322 16.5211 232.067 16.2977C231.791 16.0637 231.631 15.6808 231.578 15.1383H235.943C235.953 15.0107 235.975 14.415 235.975 14.2236ZM231.557 13.5216C231.631 12.3409 231.95 11.7878 232.555 11.7878C233.15 11.7878 233.458 12.3516 233.5 13.5216H231.557Z" fill="white"/>
</g>
<g clip-path="url(#clip1_179_3388)">
<path d="M0.15 43C0.15 40.3214 2.32142 38.15 5 38.15H36C38.6786 38.15 40.85 40.3214 40.85 43V63C40.85 65.6786 38.6786 67.85 36 67.85H5C2.32142 67.85 0.15 65.6786 0.15 63V43Z" fill="#272624"/>
<path d="M0.15 43C0.15 40.3214 2.32142 38.15 5 38.15H36C38.6786 38.15 40.85 40.3214 40.85 43V63C40.85 65.6786 38.6786 67.85 36 67.85H5C2.32142 67.85 0.15 65.6786 0.15 63V43Z" stroke="#999999" stroke-width="0.3"/>
<g clip-path="url(#clip2_179_3388)">
<path fill-rule="evenodd" clip-rule="evenodd" d="M16.7487 59.4648H23.9751V46.5112H16.7487V59.4648Z" fill="#FF5F00"/>
<path fill-rule="evenodd" clip-rule="evenodd" d="M17.2075 52.9881C17.2075 50.3602 18.441 48.0196 20.3619 46.5114C18.957 45.4081 17.1846 44.75 15.258 44.75C10.6971 44.75 7 48.4384 7 52.9881C7 57.5378 10.6971 61.2262 15.258 61.2262C17.1846 61.2262 18.957 60.5681 20.3619 59.4649C18.441 57.9564 17.2075 55.6161 17.2075 52.9881Z" fill="#EB001B"/>
<path fill-rule="evenodd" clip-rule="evenodd" d="M33.466 58.093V57.7733H33.3822L33.2861 57.9932L33.1897 57.7733H33.106V58.093H33.165V57.8518L33.2554 58.0598H33.3166L33.407 57.8514V58.093H33.466ZM32.9358 58.093V57.8278H33.0432V57.7738H32.7702V57.8278H32.8773V58.093H32.9358ZM33.7238 52.9881C33.7238 57.5378 30.0264 61.2262 25.4658 61.2262C23.5392 61.2262 21.7666 60.5681 20.3619 59.4649C22.2828 57.9566 23.5163 55.6161 23.5163 52.9881C23.5163 50.3604 22.2828 48.0198 20.3619 46.5114C21.7666 45.4081 23.5392 44.75 25.4658 44.75C30.0264 44.75 33.7238 48.4384 33.7238 52.9881Z" fill="#F79E1B"/>
</g>
<path d="M51.95 43C51.95 40.3214 54.1214 38.15 56.8 38.15H87.8C90.4786 38.15 92.65 40.3214 92.65 43V63C92.65 65.6786 90.4786 67.85 87.8 67.85H56.8C54.1214 67.85 51.95 65.6786 51.95 63V43Z" fill="white"/>
<path d="M51.95 43C51.95 40.3214 54.1214 38.15 56.8 38.15H87.8C90.4786 38.15 92.65 40.3214 92.65 43V63C92.65 65.6786 90.4786 67.85 87.8 67.85H56.8C54.1214 67.85 51.95 65.6786 51.95 63V43Z" stroke="#999999" stroke-width="0.3"/>
<path d="M75.519 47.9906C74.9488 47.4394 74.2018 47.1466 73.4205 47.158H70.1873V56.7121H71.4076V52.8423H73.4262C74.2531 52.8423 74.9488 52.5667 75.5133 52.0269C76.0836 51.5102 76.3972 50.7695 76.3858 50.0001C76.4029 49.2423 76.0836 48.5016 75.519 47.9906ZM74.6523 51.1772C74.3443 51.5045 73.9052 51.6882 73.449 51.671H71.4076V48.3351L73.449 48.3408C73.9052 48.3236 74.3443 48.5073 74.6523 48.8461L74.6808 48.8748C75.3023 49.5236 75.2966 50.5513 74.6523 51.1772Z" fill="#60646A"/>
<path d="M81.3298 50.6888C80.8052 50.2065 80.0981 49.9653 79.1971 49.9653C78.0395 49.9653 77.167 50.3902 76.5854 51.24L77.6574 51.9175C78.0566 51.3376 78.5983 51.0505 79.2769 51.0505C79.7103 51.0505 80.1266 51.2113 80.4516 51.4983C80.771 51.7625 80.9535 52.1586 80.9535 52.5778V52.8591C80.4859 52.6007 79.8928 52.4629 79.1686 52.4629C78.3189 52.4629 77.6403 52.6639 77.1328 53.0658C76.6253 53.4677 76.3687 54.0017 76.3687 54.6792C76.3516 55.2936 76.6196 55.885 77.0872 56.2811C77.5662 56.706 78.1707 56.9184 78.8835 56.9184C79.7217 56.9184 80.3889 56.5452 80.8964 55.7988H80.9477V56.706H82.111V52.6811C82.1053 51.8428 81.8487 51.1768 81.3298 50.6888ZM80.3376 55.2649C79.9726 55.6323 79.4822 55.839 78.969 55.839C78.6269 55.8448 78.2961 55.7299 78.0224 55.5175C77.7715 55.3338 77.6232 55.0352 77.6232 54.7194C77.6232 54.3634 77.7886 54.0649 78.1136 53.818C78.4444 53.5826 78.8607 53.462 79.3568 53.462C80.0354 53.462 80.5657 53.617 80.9477 53.9213C80.942 54.4323 80.7368 54.8802 80.3376 55.2649Z" fill="#60646A"/>
<path d="M88.8 50.1777L84.7285 59.5997H83.4682L84.9851 56.3041L82.3049 50.1892H83.6279L85.561 54.8801H85.5895L87.4713 50.1892L88.8 50.1777Z" fill="#60646A"/>
<path d="M66.4807 52.0094C66.4807 51.6362 66.4521 51.263 66.3894 50.8955H61.2515V53.0084H64.194C64.0742 53.6859 63.6808 54.2946 63.1048 54.6792V56.0457H64.8612C65.8876 55.0926 66.4807 53.6859 66.4807 52.0094Z" fill="#517CBE"/>
<path d="M61.2515 57.372C62.717 57.372 63.9602 56.884 64.8612 56.0457L63.1048 54.6734C62.6144 55.0064 61.9871 55.2017 61.2515 55.2017C59.8259 55.2017 58.6227 54.2313 58.195 52.9395H56.3873V54.3576C57.3054 56.2007 59.1929 57.372 61.2515 57.372Z" fill="#32A853"/>
<path d="M58.195 52.9397C57.9669 52.2621 57.9669 51.5215 58.195 50.8382V49.4258H56.3873C55.6061 50.9703 55.6061 52.8019 56.3873 54.3464L58.195 52.9397Z" fill="#FBBC0C"/>
<path d="M61.2515 48.5702C62.0328 48.5529 62.7798 48.8515 63.3386 49.3912L64.8897 47.8352C63.9089 46.8936 62.603 46.3826 61.2515 46.3998C59.1929 46.3998 57.3054 47.5711 56.3873 49.4257L58.195 50.8439C58.6227 49.5405 59.8259 48.5702 61.2515 48.5702Z" fill="#E84436"/>
<g clip-path="url(#clip3_179_3388)">
<path d="M103.6 43C103.6 40.2386 105.839 38 108.6 38H139.6C142.361 38 144.6 40.2386 144.6 43V63C144.6 65.7614 142.361 68 139.6 68H108.6C105.839 68 103.6 65.7614 103.6 63V43Z" fill="white"/>
<g clip-path="url(#clip4_179_3388)">
<path d="M146.445 55.9531C146.445 55.9531 134.148 64.8912 111.63 68.8992H146.445V55.9531Z" fill="#F48120"/>
<path d="M107.963 50.0469H106.387V55.707H107.963C108.797 55.707 109.399 55.5012 109.931 55.0587C110.564 54.5235 110.935 53.7208 110.935 52.8872C110.925 51.2098 109.71 50.0469 107.963 50.0469ZM109.228 54.3074C108.887 54.6162 108.455 54.7602 107.753 54.7602H107.461V51.0142H107.753C108.445 51.0142 108.867 51.1377 109.228 51.4671C109.6 51.8067 109.821 52.3315 109.821 52.877C109.821 53.4224 109.6 53.9678 109.228 54.3074Z" fill="#231F20"/>
<path d="M112.611 50.0469H111.414V55.707H112.611V50.0469Z" fill="#231F20"/>
<path d="M115.237 52.1481C114.552 51.8909 114.349 51.7194 114.349 51.4085C114.349 51.0334 114.713 50.7547 115.205 50.7547C115.548 50.7547 115.837 50.8941 116.126 51.237L116.726 50.4546C116.233 50.0259 115.644 49.8008 114.991 49.8008C113.953 49.8008 113.15 50.5296 113.15 51.4943C113.15 52.3089 113.524 52.7269 114.595 53.1128C115.045 53.2735 115.27 53.3807 115.387 53.445C115.612 53.5951 115.73 53.8095 115.73 54.056C115.73 54.5383 115.355 54.892 114.841 54.892C114.295 54.892 113.856 54.6133 113.589 54.1096L112.85 54.8277C113.375 55.6101 114.017 55.9531 114.884 55.9531C116.073 55.9531 116.918 55.16 116.918 54.0131C116.94 53.0592 116.544 52.6304 115.237 52.1481Z" fill="#231F20"/>
<path d="M117.159 52.8823C117.159 54.6157 118.449 55.9531 120.105 55.9531C120.573 55.9531 120.979 55.8568 121.467 55.6107V54.2626C121.03 54.7227 120.644 54.9046 120.156 54.9046C119.059 54.9046 118.276 54.07 118.276 52.8716C118.276 51.7374 119.079 50.8494 120.105 50.8494C120.624 50.8494 121.02 51.0419 121.467 51.5127V50.1646C120.989 49.9078 120.593 49.8008 120.126 49.8008C118.49 49.8008 117.159 51.1703 117.159 52.8823Z" fill="#231F20"/>
<path d="M130.084 53.9215L128.618 50.0469H127.451L129.775 55.9531H130.353L132.717 50.0469H131.56L130.084 53.9215Z" fill="#231F20"/>
<path d="M133.196 55.707H136.307V54.7499H134.291V53.2269H136.236V52.2698H134.291V51.0142H136.307V50.0469H133.196V55.707Z" fill="#231F20"/>
<path d="M140.618 51.714C140.618 50.6541 139.897 50.0469 138.639 50.0469H137.026V55.707H138.111V53.4327H138.253L139.755 55.707H141.095L139.339 53.3195C140.161 53.1445 140.618 52.5785 140.618 51.714ZM138.426 52.6505H138.111V50.9319H138.446C139.126 50.9319 139.491 51.2201 139.491 51.7758C139.491 52.3418 139.126 52.6505 138.426 52.6505Z" fill="#231F20"/>
<path d="M124.698 55.9531C126.351 55.9531 127.69 54.5759 127.69 52.877C127.69 51.178 126.351 49.8008 124.698 49.8008C123.046 49.8008 121.706 51.178 121.706 52.877C121.706 54.5759 123.046 55.9531 124.698 55.9531Z" fill="url(#paint0_linear_179_3388)"/>
<path opacity="0.65" d="M124.698 55.9531C126.351 55.9531 127.69 54.5759 127.69 52.877C127.69 51.178 126.351 49.8008 124.698 49.8008C123.046 49.8008 121.706 51.178 121.706 52.877C121.706 54.5759 123.046 55.9531 124.698 55.9531Z" fill="url(#paint1_linear_179_3388)"/>
<path d="M141.262 50.2007C141.262 50.0981 141.178 50.0469 141.047 50.0469H140.855V50.5391H140.999V50.3442L141.166 50.5391H141.334L141.143 50.334C141.214 50.3237 141.262 50.2725 141.262 50.2007ZM141.023 50.2725H140.999V50.1392H141.023C141.095 50.1392 141.131 50.1597 141.131 50.2007C141.131 50.252 141.095 50.2725 141.023 50.2725Z" fill="#231F20"/>
<path d="M141.095 49.8008C140.833 49.8008 140.616 50.0234 140.616 50.293C140.616 50.5625 140.833 50.7852 141.095 50.7852C141.357 50.7852 141.573 50.5625 141.573 50.293C141.573 50.0234 141.357 49.8008 141.095 49.8008ZM141.095 50.7031C140.89 50.7031 140.707 50.5273 140.707 50.293C140.707 50.0586 140.878 49.8828 141.095 49.8828C141.3 49.8828 141.471 50.0703 141.471 50.293C141.471 50.5156 141.3 50.7031 141.095 50.7031Z" fill="#231F20"/>
</g>
</g>
<path d="M103.75 43C103.75 40.3214 105.921 38.15 108.6 38.15H139.6C142.279 38.15 144.45 40.3214 144.45 43V63C144.45 65.6786 142.279 67.85 139.6 67.85H108.6C105.921 67.85 103.75 65.6786 103.75 63V43Z" stroke="#999999" stroke-width="0.3"/>
<path d="M155.55 43C155.55 40.3214 157.721 38.15 160.4 38.15H191.4C194.079 38.15 196.25 40.3214 196.25 43V63C196.25 65.6786 194.079 67.85 191.4 67.85H160.4C157.721 67.85 155.55 65.6786 155.55 63V43Z" fill="#32DDB3"/>
<path d="M155.55 43C155.55 40.3214 157.721 38.15 160.4 38.15H191.4C194.079 38.15 196.25 40.3214 196.25 43V63C196.25 65.6786 194.079 67.85 191.4 67.85H160.4C157.721 67.85 155.55 65.6786 155.55 63V43Z" stroke="#999999" stroke-width="0.3"/>
<g clip-path="url(#clip5_179_3388)">
<path d="M170.211 57.71C170.213 57.6795 170.215 57.6491 170.215 57.6185C170.215 55.9382 170.215 54.2581 170.215 52.5777C170.215 52.5472 170.212 52.5168 170.211 52.4862C170.212 52.4525 170.215 52.419 170.215 52.3853C170.215 51.8732 170.215 51.3614 170.215 50.8493C170.215 50.7451 170.217 50.641 170.218 50.5368C170.223 50.5313 170.227 50.5256 170.232 50.52C170.266 50.5187 170.299 50.5167 170.333 50.5163C170.473 50.5149 170.614 50.5138 170.754 50.5125C170.788 50.5138 170.822 50.5162 170.856 50.5162C171.267 50.5163 171.678 50.5162 172.09 50.5163C172.122 50.5163 172.155 50.5182 172.19 50.5193C172.19 50.5825 172.19 50.6344 172.19 50.6862C172.192 50.8816 172.193 51.0768 172.194 51.2721C172.193 51.2995 172.19 51.3269 172.19 51.3544C172.19 52.3994 172.19 53.4447 172.19 54.4898C172.19 54.5143 172.192 54.5388 172.193 54.5632V54.6102C172.208 54.5857 172.215 54.5747 172.222 54.5634C172.247 54.5248 172.272 54.4864 172.297 54.4472C172.635 53.8978 172.98 53.353 173.364 52.8326C173.667 52.4212 173.99 52.0261 174.358 51.6688C174.901 51.1429 175.524 50.749 176.249 50.5152C176.267 50.5132 176.285 50.513 176.302 50.5086C176.481 50.4627 176.659 50.4154 176.845 50.4068C176.901 50.4014 176.957 50.3963 177.012 50.3909C177.118 50.3909 177.224 50.3909 177.33 50.3911C177.385 50.3964 177.441 50.402 177.497 50.4073C177.562 50.4195 177.627 50.4375 177.693 50.4427C177.869 50.4567 178.034 50.5121 178.194 50.5771C178.669 50.7698 179.044 51.0781 179.284 51.5306C179.36 51.6727 179.419 51.8242 179.476 51.9749C179.51 52.0646 179.526 52.1611 179.55 52.2545C179.561 52.2924 179.577 52.3298 179.582 52.3685C179.617 52.603 179.65 52.8378 179.683 53.0725C179.685 53.0868 179.687 53.1014 179.689 53.1157C179.694 53.1933 179.698 53.2708 179.702 53.3484C179.703 53.3631 179.705 53.3778 179.706 53.3924C179.711 53.5801 179.716 53.7676 179.721 53.9553C179.718 53.9733 179.715 53.9914 179.715 54.0094C179.714 54.3209 179.714 54.6323 179.715 54.944C179.715 54.9651 179.718 54.9863 179.721 55.0073C179.719 55.0838 179.715 55.16 179.715 55.2364C179.716 55.5267 179.719 55.817 179.721 56.1071C179.723 56.1273 179.726 56.1474 179.729 56.1677C179.739 56.3346 179.765 56.4968 179.844 56.6482C179.919 56.7919 180.024 56.8998 180.172 56.9713C180.287 57.0269 180.408 57.0485 180.534 57.0505C180.54 57.0508 180.546 57.0514 180.553 57.0518C180.602 57.0519 180.652 57.0523 180.701 57.0525C180.72 57.0516 180.739 57.0507 180.757 57.0499C180.836 57.0367 180.916 57.0284 180.993 57.009C181.139 56.9724 181.283 56.9289 181.41 56.8451C181.412 56.8383 181.413 56.8315 181.415 56.8249C181.415 56.788 181.414 56.7514 181.414 56.7145C181.414 54.9001 181.414 53.0855 181.414 51.2711C181.414 51.2345 181.411 51.1978 181.409 51.1612C181.411 51.1308 181.414 51.1002 181.414 51.0698C181.414 49.8187 181.414 48.5677 181.414 47.3165C181.414 47.2861 181.411 47.2555 181.409 47.2251L181.416 47.227C181.42 47.2211 181.425 47.2152 181.429 47.2091C181.448 47.2082 181.466 47.2065 181.485 47.2065C182.118 47.2065 182.751 47.2065 183.384 47.2069L183.383 47.2076C183.383 47.2535 183.384 47.2996 183.384 47.3454C183.384 50.0106 183.384 52.6755 183.384 55.3407C183.384 55.3713 183.383 55.402 183.385 55.4326C183.385 55.4409 183.395 55.4484 183.401 55.4564C183.439 55.4247 183.478 55.3954 183.513 55.3611C183.866 55.0152 184.19 54.6437 184.498 54.2597C185.32 53.2377 186.028 52.1423 186.658 50.9965C186.745 50.8383 186.83 50.6786 186.917 50.5167H189.106C189.105 50.5292 189.104 50.5416 189.103 50.5541C189.003 50.7495 188.902 50.9448 188.802 51.1405C188.752 51.2385 188.704 51.3376 188.655 51.4362C188.58 51.5697 188.505 51.703 188.43 51.8369C187.916 52.7608 187.361 53.6598 186.743 54.52C186.731 54.5373 186.72 54.5559 186.707 54.5769C186.824 54.7576 186.94 54.9381 187.058 55.1184C187.822 56.2962 188.588 57.4741 189.352 58.652C189.37 58.6798 189.385 58.7102 189.401 58.7394C188.656 58.7394 187.912 58.7394 187.167 58.7394C187.136 58.7394 187.105 58.7376 187.074 58.7365C186.522 57.8841 185.969 57.0315 185.413 56.1725C185.316 56.2749 185.229 56.3694 185.14 56.4624C184.712 56.9079 184.26 57.3255 183.762 57.6935C183.301 58.0337 182.813 58.3276 182.281 58.5475C182.004 58.6623 181.718 58.7525 181.423 58.8148C181.221 58.8573 181.02 58.8966 180.814 58.9054C180.608 58.9054 180.403 58.9054 180.198 58.9054C179.98 58.9058 179.77 58.8605 179.561 58.8019C179.202 58.7013 178.883 58.531 178.604 58.2871C178.359 58.0729 178.179 57.8123 178.041 57.5218C178.015 57.4678 177.989 57.4137 177.963 57.3595C177.926 57.2428 177.885 57.1271 177.853 57.009C177.8 56.8114 177.757 56.6112 177.752 56.4053C177.754 56.3869 177.755 56.3684 177.757 56.3502C177.754 56.3434 177.751 56.3366 177.748 56.3299C177.745 56.2141 177.739 56.0982 177.739 55.9824C177.739 55.4969 177.741 55.0114 177.741 54.526C177.741 54.4284 177.735 54.3308 177.732 54.2332C177.736 54.2284 177.738 54.2231 177.738 54.2168L177.729 54.1396C177.724 54.0549 177.72 53.9704 177.715 53.8856C177.711 53.8597 177.708 53.8335 177.705 53.8075C177.692 53.7092 177.672 53.611 177.668 53.5123C177.662 53.3548 177.624 53.2036 177.59 53.0516C177.557 52.9015 177.499 52.759 177.397 52.6385C177.315 52.5415 177.212 52.4884 177.084 52.4637C176.88 52.4243 176.691 52.4726 176.508 52.5462C176.178 52.6785 175.903 52.892 175.643 53.1266C175.174 53.5506 174.776 54.0363 174.407 54.5457C173.616 55.6383 172.967 56.811 172.398 58.0289C172.318 58.2009 172.236 58.3722 172.157 58.5444C172.127 58.6079 172.103 58.6735 172.076 58.7382C171.457 58.738 170.838 58.7378 170.219 58.7376C170.218 58.4346 170.217 58.1315 170.216 57.8285C170.216 57.7887 170.213 57.7491 170.212 57.7093L170.211 57.71Z" fill="#1E3A44"/>
<path d="M164.385 52.0634C164.384 52.0909 164.382 52.1183 164.382 52.1458C164.382 53.2435 164.382 54.3414 164.382 55.4392C164.382 55.4666 164.384 55.4941 164.385 55.5215C164.384 55.5458 164.382 55.5701 164.382 55.5944C164.382 56.4225 164.382 57.2506 164.382 58.0785C164.382 58.1029 164.384 58.1272 164.385 58.1517C164.384 58.3108 164.383 58.4698 164.381 58.6289C164.381 58.6655 164.379 58.7022 164.378 58.7389C163.721 58.7392 163.065 58.7398 162.409 58.7401C162.408 58.7035 162.405 58.667 162.405 58.6304C162.404 56.904 162.405 55.1778 162.404 53.4515C162.404 53.4119 162.401 53.3723 162.4 53.3325C162.401 53.3021 162.404 53.2715 162.404 53.2411C162.404 51.996 162.404 50.7511 162.404 49.506C162.404 49.4757 162.401 49.4451 162.4 49.4147C162.401 49.3812 162.404 49.3478 162.404 49.3143C162.404 48.6487 162.404 47.983 162.404 47.3172C162.404 47.2807 162.407 47.2443 162.409 47.2076C163.032 47.2076 163.656 47.2074 164.28 47.2076C164.308 47.2076 164.336 47.2096 164.363 47.2107C164.368 47.2159 164.373 47.221 164.378 47.2262C164.379 47.5266 164.38 47.827 164.381 48.1272C164.381 48.1639 164.383 48.2005 164.384 48.2374C164.383 48.2648 164.381 48.2923 164.381 48.3197C164.381 49.5401 164.381 50.7605 164.381 51.9809C164.381 52.0084 164.383 52.0358 164.384 52.0633L164.385 52.0634Z" fill="#1E3A44"/>
<path d="M166.34 50.5204C166.374 50.5191 166.408 50.5167 166.442 50.5167C167.019 50.5166 167.596 50.5167 168.174 50.5166C168.208 50.5166 168.242 50.5151 168.276 50.5142C168.283 50.5156 168.289 50.5173 168.295 50.5188C168.297 50.5554 168.299 50.5919 168.299 50.6285C168.3 51.7386 168.3 52.8485 168.3 53.9586C168.3 53.9951 168.303 54.0317 168.304 54.0682C168.303 54.1048 168.3 54.1413 168.3 54.178C168.299 55.6621 168.3 57.1463 168.299 58.6304C168.299 58.6671 168.296 58.7036 168.295 58.7402C168.289 58.745 168.283 58.75 168.276 58.7548C167.826 58.7557 167.376 58.7568 166.926 58.7572C166.736 58.7572 166.547 58.7555 166.358 58.7548C166.352 58.7542 166.345 58.7537 166.339 58.7531C166.333 58.7544 166.328 58.7544 166.322 58.7527C166.322 57.9727 166.322 57.1929 166.322 56.4129C166.322 56.3854 166.32 56.358 166.319 56.3305C166.32 56.3062 166.322 56.2819 166.322 56.2574C166.322 55.4354 166.322 54.6136 166.322 53.7915C166.322 53.7672 166.32 53.7429 166.319 53.7186C166.32 53.682 166.322 53.6455 166.322 53.6088C166.322 52.6214 166.322 51.6342 166.322 50.6468C166.322 50.6101 166.324 50.5735 166.325 50.5368C166.33 50.5313 166.334 50.5258 166.339 50.5201L166.34 50.5204Z" fill="#1E3A44"/>
<path d="M167.175 49.2139C167.002 49.2032 166.849 49.1345 166.705 49.0459C166.497 48.9174 166.358 48.73 166.267 48.5079C166.239 48.44 166.231 48.3646 166.213 48.2926C166.214 48.2803 166.215 48.2679 166.216 48.2558C166.152 47.6408 166.642 47.1409 167.214 47.0938C167.289 47.0943 167.364 47.0949 167.439 47.0954C167.597 47.1227 167.751 47.1606 167.889 47.2455C168.108 47.3803 168.266 47.5634 168.352 47.8062C168.383 47.8926 168.401 47.9802 168.413 48.0697C168.414 48.0775 168.414 48.085 168.415 48.0928C168.417 48.1154 168.419 48.1379 168.421 48.1605C168.417 48.1989 168.414 48.2372 168.411 48.2755C168.409 48.2812 168.409 48.2869 168.412 48.2924C168.399 48.3381 168.386 48.3838 168.373 48.4296C168.266 48.8361 167.988 49.0717 167.592 49.1883C167.549 49.201 167.503 49.2051 167.458 49.213C167.364 49.2132 167.27 49.2133 167.175 49.2135L167.175 49.2139Z" fill="#1E3A44"/>
</g>
<path d="M207.35 43C207.35 40.3214 209.521 38.15 212.2 38.15H243.2C245.879 38.15 248.05 40.3214 248.05 43V63C248.05 65.6786 245.879 67.85 243.2 67.85H212.2C209.521 67.85 207.35 65.6786 207.35 63V43Z" fill="white"/>
<path d="M207.35 43C207.35 40.3214 209.521 38.15 212.2 38.15H243.2C245.879 38.15 248.05 40.3214 248.05 43V63C248.05 65.6786 245.879 67.85 243.2 67.85H212.2C209.521 67.85 207.35 65.6786 207.35 63V43Z" stroke="#999999" stroke-width="0.3"/>
<g clip-path="url(#clip6_179_3388)">
<path d="M220.558 48.1372L217.881 54.7672L216.802 49.1244C216.678 48.4906 216.17 48.1372 215.625 48.1372H211.262L211.2 48.4175C212.092 48.6125 213.109 48.9172 213.729 49.2463C214.1 49.4534 214.212 49.6241 214.336 50.0994L216.381 57.875H219.095L223.248 48.125H220.558" fill="#1434CB"/>
<path d="M225.143 48.125L223.248 57.875H225.542L227.438 48.125H225.143Z" fill="#1434CB"/>
<path d="M228.431 51.269C228.419 52.6232 229.633 53.3768 230.544 53.8361C231.49 54.2953 231.805 54.5897 231.794 55.0018C231.782 55.6377 231.046 55.9085 230.346 55.9203C229.131 55.9438 228.431 55.5906 227.87 55.3197L227.438 57.3804C227.999 57.6395 229.038 57.875 230.124 57.875C232.658 57.875 234.316 56.615 234.328 54.6486C234.339 52.1639 230.918 52.0226 230.941 50.9158C230.953 50.5743 231.268 50.221 231.969 50.1268C232.319 50.0797 233.265 50.0444 234.351 50.5507L234.771 48.5489C234.188 48.337 233.44 48.125 232.506 48.125C230.124 48.1603 228.442 49.4438 228.431 51.269Z" fill="#1434CB"/>
<path d="M242.078 48.125H239.829C239.321 48.125 238.901 48.4053 238.711 48.8441L234.771 57.875H237.529L238.075 56.4247H241.443L241.76 57.875H244.2L242.078 48.125ZM238.838 54.4138L240.223 50.7575L241.023 54.4138H238.838Z" fill="#1434CB"/>
</g>
<path d="M259.15 43C259.15 40.3214 261.321 38.15 264 38.15H295C297.679 38.15 299.85 40.3214 299.85 43V63C299.85 65.6786 297.679 67.85 295 67.85H264C261.321 67.85 259.15 65.6786 259.15 63V43Z" fill="#016FD0"/>
<path d="M259.15 43C259.15 40.3214 261.321 38.15 264 38.15H295C297.679 38.15 299.85 40.3214 299.85 43V63C299.85 65.6786 297.679 67.85 295 67.85H264C261.321 67.85 259.15 65.6786 259.15 63V43Z" stroke="#999999" stroke-width="0.3"/>
<path fill-rule="evenodd" clip-rule="evenodd" d="M280.868 63.2529V52.5029L300 52.5196V55.4896L297.788 57.8529L300 60.2379V63.2696H296.47L294.593 61.1996L292.73 63.2779L280.868 63.2529Z" fill="white"/>
<path fill-rule="evenodd" clip-rule="evenodd" d="M282.145 62.0749V53.6865H289.258V55.6182H284.448V56.9299H289.143V58.8299H284.448V60.1182H289.258V62.0749H282.145Z" fill="#016FD0"/>
<path fill-rule="evenodd" clip-rule="evenodd" d="M289.222 62.0749L293.158 57.8749L289.222 53.6865H292.268L294.673 56.3449L297.085 53.6865H300V53.7532L296.148 57.8749L300 61.9549V62.0749H297.055L294.608 59.3899L292.185 62.0749H289.222Z" fill="#016FD0"/>
<path fill-rule="evenodd" clip-rule="evenodd" d="M281.76 42.9614H286.372L287.992 46.6398V42.9614H293.685L294.667 45.7181L295.652 42.9614H300V53.7114H277.023L281.76 42.9614Z" fill="white"/>
<path fill-rule="evenodd" clip-rule="evenodd" d="M282.633 44.1299L278.912 52.5116H281.465L282.167 50.8332H285.972L286.673 52.5116H289.29L285.582 44.1299H282.633ZM282.953 48.9516L284.07 46.2832L285.185 48.9516H282.953Z" fill="#016FD0"/>
<path fill-rule="evenodd" clip-rule="evenodd" d="M289.253 52.5096V44.1279L292.842 44.1413L294.688 49.2929L296.547 44.1279H300V52.5096L297.778 52.5296V46.7713L295.68 52.5096H293.652L291.51 46.7529V52.5096H289.253Z" fill="#016FD0"/>
</g>
<defs>
<linearGradient id="paint0_linear_179_3388" x1="126.228" y1="55.3389" x2="124.077" y2="52.0639" gradientUnits="userSpaceOnUse">
<stop stop-color="#F89F20"/>
<stop offset="0.25" stop-color="#F79A20"/>
<stop offset="0.53" stop-color="#F68D20"/>
<stop offset="0.62" stop-color="#F58720"/>
<stop offset="0.72" stop-color="#F48120"/>
<stop offset="1" stop-color="#F37521"/>
</linearGradient>
<linearGradient id="paint1_linear_179_3388" x1="125.901" y1="55.2938" x2="122.744" y2="49.2902" gradientUnits="userSpaceOnUse">
<stop stop-color="#F58720"/>
<stop offset="0.36" stop-color="#E16F27"/>
<stop offset="0.7" stop-color="#D4602C"/>
<stop offset="0.98" stop-color="#D05B2E"/>
</linearGradient>
<clipPath id="clip0_179_3388">
<rect width="36" height="15" fill="white" transform="translate(200 6.5)"/>
</clipPath>
<clipPath id="clip1_179_3388">
<rect width="300" height="30" fill="white" transform="translate(0 38)"/>
</clipPath>
<clipPath id="clip2_179_3388">
<rect width="27" height="16.5" fill="white" transform="translate(7 44.75)"/>
</clipPath>
<clipPath id="clip3_179_3388">
<path d="M103.6 43C103.6 40.2386 105.839 38 108.6 38H139.6C142.361 38 144.6 40.2386 144.6 43V63C144.6 65.7614 142.361 68 139.6 68H108.6C105.839 68 103.6 65.7614 103.6 63V43Z" fill="white"/>
</clipPath>
<clipPath id="clip4_179_3388">
<rect width="45" height="29.5312" fill="white" transform="translate(101.6 38.2344)"/>
</clipPath>
<clipPath id="clip5_179_3388">
<rect width="27" height="11.8125" fill="white" transform="translate(162.4 47.0938)"/>
</clipPath>
<clipPath id="clip6_179_3388">
<rect x="211.2" y="48.125" width="33" height="9.75" fill="white"/>
</clipPath>
</defs>
</svg>
