<svg width="226" height="131" viewBox="0 0 226 131" fill="none" xmlns="http://www.w3.org/2000/svg">
<path d="M1.16748 5.00989C1.16748 2.52461 3.1822 0.509888 5.66748 0.509888H203.667C206.153 0.509888 208.167 2.52461 208.167 5.00989V23.0099C208.167 25.4952 206.153 27.5099 203.667 27.5099H5.66747C3.18219 27.5099 1.16748 25.4952 1.16748 23.0099V5.00989Z" stroke="#424770" stroke-opacity="0.5"/>
<path d="M9.41748 9.8761V17.0099H8.24072V11.2726L6.49756 11.8634V10.8917L9.27588 9.8761H9.41748ZM16.522 12.8595V14.0216C16.522 14.5782 16.4666 15.0535 16.356 15.4474C16.2485 15.838 16.0923 16.1554 15.8872 16.3995C15.6821 16.6437 15.4364 16.8227 15.1499 16.9366C14.8667 17.0506 14.5493 17.1075 14.1978 17.1075C13.9178 17.1075 13.6574 17.0717 13.4165 17.0001C13.1789 16.9285 12.964 16.8162 12.772 16.6632C12.5799 16.5102 12.4155 16.3133 12.2788 16.0724C12.1453 15.8282 12.0412 15.5369 11.9663 15.1984C11.8947 14.8598 11.8589 14.4676 11.8589 14.0216V12.8595C11.8589 12.2996 11.9142 11.8276 12.0249 11.4435C12.1356 11.0561 12.2935 10.742 12.4985 10.5011C12.7036 10.257 12.9478 10.0795 13.231 9.96887C13.5174 9.85819 13.8364 9.80286 14.188 9.80286C14.4712 9.80286 14.7316 9.83866 14.9692 9.91028C15.2101 9.97864 15.425 10.0877 15.6138 10.2374C15.8058 10.3872 15.9686 10.5825 16.1021 10.8234C16.2388 11.061 16.3429 11.3491 16.4146 11.6876C16.4862 12.0229 16.522 12.4135 16.522 12.8595ZM15.3452 14.1876V12.6837C15.3452 12.4005 15.3289 12.1515 15.2964 11.9366C15.2638 11.7185 15.215 11.5346 15.1499 11.3849C15.0881 11.2319 15.0099 11.1082 14.9155 11.0138C14.8211 10.9161 14.7137 10.8462 14.5933 10.8038C14.4728 10.7583 14.3377 10.7355 14.188 10.7355C14.0057 10.7355 13.8429 10.7713 13.6997 10.8429C13.5565 10.9113 13.436 11.0219 13.3384 11.1749C13.2407 11.3279 13.1659 11.5297 13.1138 11.7804C13.0649 12.0278 13.0405 12.3289 13.0405 12.6837V14.1876C13.0405 14.4741 13.0568 14.7264 13.0894 14.9445C13.1219 15.1626 13.1707 15.3497 13.2358 15.506C13.3009 15.659 13.3791 15.7859 13.4702 15.8868C13.5646 15.9845 13.672 16.0561 13.7925 16.1017C13.9162 16.1473 14.0513 16.17 14.1978 16.17C14.3833 16.17 14.5477 16.1342 14.6909 16.0626C14.8341 15.991 14.9546 15.8771 15.0522 15.7208C15.1499 15.5613 15.2231 15.3546 15.272 15.1007C15.3208 14.8468 15.3452 14.5424 15.3452 14.1876ZM22.2056 12.8595V14.0216C22.2056 14.5782 22.1502 15.0535 22.0396 15.4474C21.9321 15.838 21.7759 16.1554 21.5708 16.3995C21.3657 16.6437 21.12 16.8227 20.8335 16.9366C20.5503 17.0506 20.2329 17.1075 19.8813 17.1075C19.6014 17.1075 19.341 17.0717 19.1001 17.0001C18.8625 16.9285 18.6476 16.8162 18.4556 16.6632C18.2635 16.5102 18.0991 16.3133 17.9624 16.0724C17.8289 15.8282 17.7248 15.5369 17.6499 15.1984C17.5783 14.8598 17.5425 14.4676 17.5425 14.0216V12.8595C17.5425 12.2996 17.5978 11.8276 17.7085 11.4435C17.8192 11.0561 17.9771 10.742 18.1821 10.5011C18.3872 10.257 18.6313 10.0795 18.9146 9.96887C19.201 9.85819 19.52 9.80286 19.8716 9.80286C20.1548 9.80286 20.4152 9.83866 20.6528 9.91028C20.8937 9.97864 21.1086 10.0877 21.2974 10.2374C21.4894 10.3872 21.6522 10.5825 21.7856 10.8234C21.9224 11.061 22.0265 11.3491 22.0981 11.6876C22.1698 12.0229 22.2056 12.4135 22.2056 12.8595ZM21.0288 14.1876V12.6837C21.0288 12.4005 21.0125 12.1515 20.98 11.9366C20.9474 11.7185 20.8986 11.5346 20.8335 11.3849C20.7716 11.2319 20.6935 11.1082 20.5991 11.0138C20.5047 10.9161 20.3973 10.8462 20.2769 10.8038C20.1564 10.7583 20.0213 10.7355 19.8716 10.7355C19.6893 10.7355 19.5265 10.7713 19.3833 10.8429C19.2401 10.9113 19.1196 11.0219 19.022 11.1749C18.9243 11.3279 18.8494 11.5297 18.7974 11.7804C18.7485 12.0278 18.7241 12.3289 18.7241 12.6837V14.1876C18.7241 14.4741 18.7404 14.7264 18.7729 14.9445C18.8055 15.1626 18.8543 15.3497 18.9194 15.506C18.9845 15.659 19.0627 15.7859 19.1538 15.8868C19.2482 15.9845 19.3556 16.0561 19.4761 16.1017C19.5998 16.1473 19.7349 16.17 19.8813 16.17C20.0669 16.17 20.2313 16.1342 20.3745 16.0626C20.5177 15.991 20.6382 15.8771 20.7358 15.7208C20.8335 15.5613 20.9067 15.3546 20.9556 15.1007C21.0044 14.8468 21.0288 14.5424 21.0288 14.1876ZM23.2065 11.6437V11.2677C23.2065 10.9975 23.2651 10.7517 23.3823 10.5304C23.4995 10.309 23.6704 10.1316 23.895 9.99817C24.1196 9.86471 24.3898 9.79797 24.7056 9.79797C25.0311 9.79797 25.3045 9.86471 25.5259 9.99817C25.7505 10.1316 25.9214 10.309 26.0386 10.5304C26.1558 10.7517 26.2144 10.9975 26.2144 11.2677V11.6437C26.2144 11.9073 26.1558 12.1499 26.0386 12.3712C25.9246 12.5926 25.7554 12.77 25.5308 12.9034C25.3094 13.0369 25.0376 13.1036 24.7153 13.1036C24.3963 13.1036 24.1229 13.0369 23.895 12.9034C23.6704 12.77 23.4995 12.5926 23.3823 12.3712C23.2651 12.1499 23.2065 11.9073 23.2065 11.6437ZM24.022 11.2677V11.6437C24.022 11.7739 24.0464 11.8976 24.0952 12.0148C24.1473 12.132 24.2254 12.2264 24.3296 12.298C24.4338 12.3696 24.5623 12.4054 24.7153 12.4054C24.8716 12.4054 24.9985 12.3696 25.0962 12.298C25.1971 12.2264 25.272 12.132 25.3208 12.0148C25.3696 11.8976 25.394 11.7739 25.394 11.6437V11.2677C25.394 11.1342 25.368 11.0089 25.3159 10.8917C25.2671 10.7713 25.1922 10.6753 25.0913 10.6036C24.9904 10.532 24.8618 10.4962 24.7056 10.4962C24.5558 10.4962 24.4289 10.532 24.3247 10.6036C24.2238 10.6753 24.1473 10.7713 24.0952 10.8917C24.0464 11.0089 24.022 11.1342 24.022 11.2677ZM26.6343 15.6476V15.2667C26.6343 14.9998 26.6929 14.7557 26.8101 14.5343C26.9305 14.3129 27.103 14.1355 27.3276 14.0021C27.5522 13.8686 27.8224 13.8019 28.1382 13.8019C28.4637 13.8019 28.7371 13.8686 28.9585 14.0021C29.1831 14.1355 29.3524 14.3129 29.4663 14.5343C29.5835 14.7557 29.6421 14.9998 29.6421 15.2667V15.6476C29.6421 15.9145 29.5835 16.1587 29.4663 16.38C29.3524 16.6014 29.1847 16.7788 28.9634 16.9122C28.742 17.0457 28.4718 17.1124 28.1528 17.1124C27.8306 17.1124 27.5555 17.0457 27.3276 16.9122C27.103 16.7788 26.9305 16.6014 26.8101 16.38C26.6929 16.1587 26.6343 15.9145 26.6343 15.6476ZM27.4546 15.2667V15.6476C27.4546 15.7778 27.4806 15.9015 27.5327 16.0187C27.5881 16.1359 27.6678 16.2319 27.772 16.3068C27.8761 16.3784 28.0015 16.4142 28.1479 16.4142C28.314 16.4142 28.4474 16.3784 28.5483 16.3068C28.6493 16.2319 28.7209 16.1375 28.7632 16.0236C28.8088 15.9064 28.8315 15.781 28.8315 15.6476V15.2667C28.8315 15.1333 28.8055 15.0079 28.7534 14.8907C28.7046 14.7736 28.6281 14.6792 28.5239 14.6075C28.423 14.5359 28.2944 14.5001 28.1382 14.5001C27.9852 14.5001 27.8582 14.5359 27.7573 14.6075C27.6564 14.6792 27.5799 14.7736 27.5278 14.8907C27.479 15.0079 27.4546 15.1333 27.4546 15.2667ZM28.4312 10.9161L24.9595 16.4728L24.3589 16.1261L27.8306 10.5695L28.4312 10.9161ZM37.0347 15.1788C37.0347 15.0323 37.0119 14.9021 36.9663 14.7882C36.924 14.6743 36.8475 14.5701 36.7368 14.4757C36.6261 14.3813 36.4699 14.2902 36.2681 14.2023C36.0695 14.1111 35.8156 14.0184 35.5063 13.924C35.1678 13.8198 34.8553 13.7042 34.5688 13.5773C34.2856 13.4471 34.0382 13.2973 33.8267 13.1281C33.6151 12.9555 33.4507 12.7586 33.3335 12.5372C33.2163 12.3126 33.1577 12.0538 33.1577 11.7609C33.1577 11.4712 33.2179 11.2075 33.3384 10.9698C33.4621 10.7322 33.6362 10.5271 33.8608 10.3546C34.0887 10.1788 34.3573 10.0437 34.6665 9.94934C34.9757 9.85168 35.3175 9.80286 35.6919 9.80286C36.2192 9.80286 36.6733 9.90051 37.0542 10.0958C37.4383 10.2911 37.7329 10.5532 37.938 10.882C38.1463 11.2107 38.2505 11.5737 38.2505 11.9708H37.0347C37.0347 11.7365 36.9842 11.5297 36.8833 11.3507C36.7856 11.1684 36.6359 11.0252 36.4341 10.921C36.2355 10.8169 35.9832 10.7648 35.6772 10.7648C35.3875 10.7648 35.1466 10.8087 34.9546 10.8966C34.7625 10.9845 34.6193 11.1033 34.5249 11.2531C34.4305 11.4028 34.3833 11.5721 34.3833 11.7609C34.3833 11.8943 34.4142 12.0164 34.4761 12.1271C34.5379 12.2345 34.6323 12.3354 34.7593 12.4298C34.8862 12.521 35.0457 12.6072 35.2378 12.6886C35.4299 12.77 35.6561 12.8481 35.9165 12.923C36.3104 13.0402 36.6538 13.1704 36.9468 13.3136C37.2397 13.4536 37.4839 13.6131 37.6792 13.7921C37.8745 13.9712 38.021 14.1746 38.1187 14.4025C38.2163 14.6271 38.2651 14.8826 38.2651 15.1691C38.2651 15.4685 38.2049 15.7387 38.0845 15.9796C37.964 16.2172 37.7915 16.4207 37.5669 16.59C37.3455 16.756 37.0786 16.8846 36.7661 16.9757C36.4569 17.0636 36.1118 17.1075 35.731 17.1075C35.3892 17.1075 35.0522 17.062 34.7202 16.9708C34.3914 16.8797 34.092 16.7413 33.8218 16.5558C33.5516 16.367 33.3368 16.1326 33.1772 15.8527C33.0177 15.5695 32.938 15.2391 32.938 14.8615H34.1636C34.1636 15.0926 34.2026 15.2895 34.2808 15.4523C34.3621 15.615 34.4744 15.7485 34.6177 15.8527C34.7609 15.9536 34.9269 16.0284 35.1157 16.0773C35.3078 16.1261 35.5129 16.1505 35.731 16.1505C36.0174 16.1505 36.2567 16.1098 36.4487 16.0284C36.644 15.9471 36.7905 15.8331 36.8882 15.6866C36.9858 15.5402 37.0347 15.3709 37.0347 15.1788ZM41.561 17.1075C41.1704 17.1075 40.8172 17.0441 40.5015 16.9171C40.189 16.7869 39.922 16.6062 39.7007 16.3751C39.4826 16.144 39.3149 15.8722 39.1978 15.5597C39.0806 15.2472 39.022 14.9103 39.022 14.549V14.3536C39.022 13.9402 39.0822 13.5659 39.2026 13.2306C39.3231 12.8953 39.4907 12.6088 39.7056 12.3712C39.9204 12.1303 40.1743 11.9464 40.4673 11.8195C40.7603 11.6925 41.0776 11.629 41.4194 11.629C41.797 11.629 42.1274 11.6925 42.4106 11.8195C42.6938 11.9464 42.9282 12.1254 43.1138 12.3566C43.3026 12.5844 43.4425 12.8562 43.5337 13.172C43.6281 13.4878 43.6753 13.8361 43.6753 14.2169V14.7198H39.5933V13.8751H42.5132V13.7823C42.5067 13.5708 42.4644 13.3722 42.3862 13.1866C42.3114 13.0011 42.1958 12.8514 42.0396 12.7374C41.8833 12.6235 41.675 12.5665 41.4146 12.5665C41.2192 12.5665 41.0451 12.6088 40.8921 12.6935C40.7424 12.7749 40.617 12.8937 40.5161 13.0499C40.4152 13.2062 40.3371 13.395 40.2817 13.6163C40.2297 13.8344 40.2036 14.0802 40.2036 14.3536V14.549C40.2036 14.7801 40.2345 14.9949 40.2964 15.1935C40.3615 15.3888 40.4559 15.5597 40.5796 15.7062C40.7033 15.8527 40.853 15.9682 41.0288 16.0529C41.2046 16.1342 41.4048 16.1749 41.6294 16.1749C41.9126 16.1749 42.1649 16.118 42.3862 16.004C42.6076 15.8901 42.7996 15.729 42.9624 15.5206L43.5825 16.1212C43.4686 16.2872 43.3205 16.4467 43.1382 16.5997C42.9559 16.7495 42.7329 16.8715 42.4692 16.9659C42.2088 17.0603 41.9061 17.1075 41.561 17.1075ZM46.7515 16.17C46.9435 16.17 47.116 16.1326 47.269 16.0577C47.4253 15.9796 47.5506 15.8722 47.645 15.7355C47.7427 15.5988 47.7964 15.4409 47.8062 15.2618H48.9146C48.908 15.6036 48.8071 15.9145 48.6118 16.1945C48.4165 16.4744 48.1577 16.6974 47.8354 16.8634C47.5132 17.0262 47.1567 17.1075 46.7661 17.1075C46.3625 17.1075 46.0109 17.0392 45.7114 16.9025C45.4119 16.7625 45.1629 16.5704 44.9644 16.3263C44.7658 16.0822 44.616 15.8006 44.5151 15.4816C44.4175 15.1626 44.3687 14.8208 44.3687 14.4562V14.2853C44.3687 13.9207 44.4175 13.5789 44.5151 13.2599C44.616 12.9376 44.7658 12.6544 44.9644 12.4103C45.1629 12.1661 45.4119 11.9757 45.7114 11.839C46.0109 11.699 46.3608 11.629 46.7612 11.629C47.1844 11.629 47.5555 11.7137 47.8745 11.8829C48.1935 12.049 48.4442 12.2817 48.6265 12.5812C48.812 12.8774 48.908 13.2225 48.9146 13.6163H47.8062C47.7964 13.421 47.7476 13.2452 47.6597 13.089C47.575 12.9295 47.4546 12.8025 47.2983 12.7081C47.1453 12.6137 46.9614 12.5665 46.7466 12.5665C46.509 12.5665 46.312 12.6154 46.1558 12.713C45.9995 12.8074 45.8774 12.9376 45.7896 13.1036C45.7017 13.2664 45.6382 13.4503 45.5991 13.6554C45.5633 13.8572 45.5454 14.0672 45.5454 14.2853V14.4562C45.5454 14.6743 45.5633 14.8859 45.5991 15.0909C45.6349 15.296 45.6968 15.4799 45.7847 15.6427C45.8758 15.8022 45.9995 15.9308 46.1558 16.0284C46.312 16.1228 46.5106 16.17 46.7515 16.17ZM52.9966 15.7648V11.7267H54.1782V17.0099H53.0649L52.9966 15.7648ZM53.1626 14.6661L53.5581 14.6564C53.5581 15.0112 53.519 15.3383 53.4409 15.6378C53.3628 15.934 53.2424 16.1928 53.0796 16.4142C52.9168 16.6323 52.7085 16.8032 52.4546 16.9269C52.2007 17.0473 51.8963 17.1075 51.5415 17.1075C51.2843 17.1075 51.0483 17.0701 50.8335 16.9952C50.6187 16.9204 50.4331 16.8048 50.2769 16.6486C50.1239 16.4923 50.005 16.2889 49.9204 16.0382C49.8358 15.7876 49.7935 15.4881 49.7935 15.1398V11.7267H50.9702V15.1495C50.9702 15.3416 50.993 15.5027 51.0386 15.6329C51.0841 15.7599 51.146 15.8624 51.2241 15.9406C51.3022 16.0187 51.3934 16.074 51.4976 16.1066C51.6017 16.1391 51.7124 16.1554 51.8296 16.1554C52.1649 16.1554 52.4285 16.0903 52.6206 15.9601C52.8159 15.8266 52.9543 15.6476 53.0356 15.423C53.1203 15.1984 53.1626 14.9461 53.1626 14.6661ZM56.5659 12.7325V17.0099H55.3892V11.7267H56.5122L56.5659 12.7325ZM58.1821 11.6925L58.1724 12.7863C58.1007 12.7732 58.0226 12.7635 57.938 12.757C57.8566 12.7504 57.7752 12.7472 57.6938 12.7472C57.492 12.7472 57.3146 12.7765 57.1616 12.8351C57.0086 12.8904 56.88 12.9718 56.7759 13.0792C56.675 13.1834 56.5968 13.3103 56.5415 13.4601C56.4862 13.6098 56.4536 13.7775 56.4438 13.963L56.1753 13.9825C56.1753 13.6505 56.2078 13.3429 56.2729 13.0597C56.3381 12.7765 56.4357 12.5275 56.5659 12.3126C56.6994 12.0978 56.8654 11.9301 57.064 11.8097C57.2658 11.6892 57.4985 11.629 57.7622 11.629C57.8338 11.629 57.9103 11.6355 57.9917 11.6486C58.0763 11.6616 58.1398 11.6762 58.1821 11.6925ZM61.1509 17.1075C60.7603 17.1075 60.4071 17.0441 60.0913 16.9171C59.7788 16.7869 59.5119 16.6062 59.2905 16.3751C59.0724 16.144 58.9048 15.8722 58.7876 15.5597C58.6704 15.2472 58.6118 14.9103 58.6118 14.549V14.3536C58.6118 13.9402 58.672 13.5659 58.7925 13.2306C58.9129 12.8953 59.0806 12.6088 59.2954 12.3712C59.5103 12.1303 59.7642 11.9464 60.0571 11.8195C60.3501 11.6925 60.6675 11.629 61.0093 11.629C61.3869 11.629 61.7173 11.6925 62.0005 11.8195C62.2837 11.9464 62.5181 12.1254 62.7036 12.3566C62.8924 12.5844 63.0324 12.8562 63.1235 13.172C63.2179 13.4878 63.2651 13.8361 63.2651 14.2169V14.7198H59.1831V13.8751H62.103V13.7823C62.0965 13.5708 62.0542 13.3722 61.9761 13.1866C61.9012 13.0011 61.7856 12.8514 61.6294 12.7374C61.4731 12.6235 61.2648 12.5665 61.0044 12.5665C60.8091 12.5665 60.6349 12.6088 60.4819 12.6935C60.3322 12.7749 60.2069 12.8937 60.106 13.0499C60.005 13.2062 59.9269 13.395 59.8716 13.6163C59.8195 13.8344 59.7935 14.0802 59.7935 14.3536V14.549C59.7935 14.7801 59.8244 14.9949 59.8862 15.1935C59.9513 15.3888 60.0457 15.5597 60.1694 15.7062C60.2931 15.8527 60.4429 15.9682 60.6187 16.0529C60.7944 16.1342 60.9946 16.1749 61.2192 16.1749C61.5024 16.1749 61.7547 16.118 61.9761 16.004C62.1974 15.8901 62.3895 15.729 62.5522 15.5206L63.1724 16.1212C63.0584 16.2872 62.9103 16.4467 62.728 16.5997C62.5457 16.7495 62.3228 16.8715 62.0591 16.9659C61.7987 17.0603 61.4959 17.1075 61.1509 17.1075ZM67.855 12.7423V19.0411H66.6782V11.7267H67.7622L67.855 12.7423ZM71.2974 14.3195V14.422C71.2974 14.8061 71.2518 15.1626 71.1606 15.4913C71.0728 15.8169 70.9409 16.1017 70.7651 16.3458C70.5926 16.5867 70.3794 16.7739 70.1255 16.9073C69.8716 17.0408 69.5786 17.1075 69.2466 17.1075C68.9178 17.1075 68.6297 17.0473 68.3823 16.9269C68.1382 16.8032 67.9315 16.629 67.7622 16.4044C67.5929 16.1798 67.4562 15.9161 67.3521 15.6134C67.2511 15.3074 67.1795 14.9721 67.1372 14.6075V14.212C67.1795 13.8247 67.2511 13.4731 67.3521 13.1573C67.4562 12.8416 67.5929 12.5698 67.7622 12.3419C67.9315 12.1141 68.1382 11.9383 68.3823 11.8146C68.6265 11.6909 68.9113 11.629 69.2368 11.629C69.5688 11.629 69.8634 11.6941 70.1206 11.8243C70.3778 11.9513 70.5942 12.1336 70.77 12.3712C70.9458 12.6056 71.0776 12.8888 71.1655 13.2208C71.2534 13.5496 71.2974 13.9158 71.2974 14.3195ZM70.1206 14.422V14.3195C70.1206 14.0753 70.0978 13.8491 70.0522 13.6407C70.0067 13.4292 69.9351 13.2436 69.8374 13.0841C69.7397 12.9246 69.6144 12.8009 69.4614 12.713C69.3117 12.6219 69.131 12.5763 68.9194 12.5763C68.7111 12.5763 68.5321 12.6121 68.3823 12.6837C68.2326 12.7521 68.1073 12.8481 68.0063 12.9718C67.9054 13.0955 67.8273 13.2404 67.772 13.4064C67.7166 13.5691 67.6776 13.7465 67.6548 13.9386V14.8859C67.6938 15.1202 67.7606 15.3351 67.855 15.5304C67.9494 15.7257 68.0828 15.882 68.2554 15.9991C68.4312 16.1131 68.6558 16.17 68.9292 16.17C69.1408 16.17 69.3215 16.1245 69.4712 16.0333C69.6209 15.9422 69.743 15.8169 69.8374 15.6573C69.9351 15.4946 70.0067 15.3074 70.0522 15.0958C70.0978 14.8842 70.1206 14.6596 70.1206 14.422ZM75.2769 15.9503V13.4308C75.2769 13.242 75.2427 13.0792 75.1743 12.9425C75.106 12.8058 75.0018 12.7 74.8618 12.6251C74.7251 12.5503 74.5526 12.5128 74.3442 12.5128C74.1522 12.5128 73.9862 12.5454 73.8462 12.6105C73.7062 12.6756 73.5972 12.7635 73.519 12.8741C73.4409 12.9848 73.4019 13.1101 73.4019 13.2501H72.23C72.23 13.0418 72.2804 12.84 72.3813 12.6447C72.4823 12.4493 72.6287 12.2752 72.8208 12.1222C73.0129 11.9692 73.2424 11.8488 73.5093 11.7609C73.7762 11.673 74.0757 11.629 74.4077 11.629C74.8049 11.629 75.1564 11.6958 75.4624 11.8292C75.7716 11.9627 76.0142 12.1645 76.1899 12.4347C76.369 12.7016 76.4585 13.0369 76.4585 13.4406V15.7892C76.4585 16.0301 76.4748 16.2465 76.5073 16.4386C76.5431 16.6274 76.5936 16.7918 76.6587 16.9318V17.0099H75.4526C75.3973 16.8829 75.3534 16.7218 75.3208 16.5265C75.2915 16.3279 75.2769 16.1359 75.2769 15.9503ZM75.4478 13.797L75.4575 14.5245H74.6128C74.3947 14.5245 74.2026 14.5457 74.0366 14.588C73.8706 14.6271 73.7323 14.6857 73.6216 14.7638C73.5109 14.8419 73.4279 14.9363 73.3726 15.047C73.3172 15.1577 73.2896 15.283 73.2896 15.423C73.2896 15.5629 73.3221 15.6915 73.3872 15.8087C73.4523 15.9226 73.5467 16.0122 73.6704 16.0773C73.7974 16.1424 73.9504 16.1749 74.1294 16.1749C74.3703 16.1749 74.5802 16.1261 74.7593 16.0284C74.9416 15.9275 75.0848 15.8055 75.189 15.6622C75.2931 15.5157 75.3485 15.3774 75.355 15.2472L75.7358 15.7697C75.6968 15.9031 75.63 16.0463 75.5356 16.1993C75.4412 16.3523 75.3175 16.4988 75.1646 16.6388C75.0148 16.7755 74.8341 16.8878 74.6226 16.9757C74.4142 17.0636 74.1733 17.1075 73.8999 17.1075C73.5549 17.1075 73.2472 17.0392 72.9771 16.9025C72.7069 16.7625 72.4953 16.5753 72.3423 16.3409C72.1893 16.1033 72.1128 15.8348 72.1128 15.5353C72.1128 15.2553 72.1649 15.0079 72.269 14.7931C72.3765 14.575 72.5327 14.3927 72.7378 14.2462C72.9461 14.0997 73.2 13.9891 73.4995 13.9142C73.799 13.8361 74.1408 13.797 74.5249 13.797H75.4478ZM79.144 16.4337L80.5796 11.7267H81.8394L79.7202 17.8156C79.6714 17.9458 79.6079 18.0874 79.5298 18.2404C79.4517 18.3934 79.3491 18.5382 79.2222 18.6749C79.0985 18.8149 78.9438 18.9272 78.7583 19.0118C78.5728 19.0997 78.3481 19.1437 78.0845 19.1437C77.9803 19.1437 77.8794 19.1339 77.7817 19.1144C77.6873 19.0981 77.5978 19.0802 77.5132 19.0607L77.5083 18.1622C77.5409 18.1655 77.5799 18.1687 77.6255 18.172C77.6743 18.1753 77.7134 18.1769 77.7427 18.1769C77.938 18.1769 78.1007 18.1525 78.231 18.1036C78.3612 18.0581 78.467 17.9832 78.5483 17.879C78.633 17.7749 78.7046 17.6349 78.7632 17.4591L79.144 16.4337ZM78.3335 11.7267L79.5884 15.6818L79.7983 16.922L78.9829 17.132L77.064 11.7267H78.3335ZM83.6899 12.8009V17.0099H82.5132V11.7267H83.6216L83.6899 12.8009ZM83.4995 14.173L83.0991 14.1681C83.0991 13.8035 83.1447 13.4666 83.2358 13.1573C83.327 12.8481 83.4604 12.5795 83.6362 12.3517C83.812 12.1206 84.0301 11.9432 84.2905 11.8195C84.5542 11.6925 84.8586 11.629 85.2036 11.629C85.4445 11.629 85.6642 11.6648 85.8628 11.7365C86.0646 11.8048 86.2388 11.9139 86.3853 12.0636C86.535 12.2133 86.6489 12.4054 86.7271 12.6398C86.8084 12.8741 86.8491 13.1573 86.8491 13.4894V17.0099H85.6724V13.5919C85.6724 13.3348 85.6333 13.1329 85.5552 12.9865C85.4803 12.84 85.3713 12.7358 85.228 12.674C85.0881 12.6088 84.9204 12.5763 84.7251 12.5763C84.5037 12.5763 84.3149 12.6186 84.1587 12.7032C84.0057 12.7879 83.8804 12.9034 83.7827 13.0499C83.6851 13.1964 83.6134 13.3657 83.5679 13.5577C83.5223 13.7498 83.4995 13.9549 83.4995 14.173ZM86.7759 13.8605L86.2241 13.9825C86.2241 13.6635 86.2681 13.3624 86.356 13.0792C86.4471 12.7928 86.5789 12.5421 86.7515 12.3273C86.9272 12.1092 87.1437 11.9383 87.4009 11.8146C87.658 11.6909 87.9526 11.629 88.2847 11.629C88.5549 11.629 88.7957 11.6665 89.0073 11.7413C89.2222 11.8129 89.4045 11.9269 89.5542 12.0831C89.7039 12.2394 89.8179 12.4428 89.896 12.6935C89.9741 12.9409 90.0132 13.2404 90.0132 13.5919V17.0099H88.8315V13.587C88.8315 13.3201 88.7925 13.1134 88.7144 12.9669C88.6395 12.8204 88.5321 12.7195 88.3921 12.6642C88.2521 12.6056 88.0845 12.5763 87.8892 12.5763C87.7069 12.5763 87.5457 12.6105 87.4058 12.6788C87.269 12.7439 87.1535 12.8367 87.0591 12.9572C86.9647 13.0743 86.8931 13.2094 86.8442 13.3624C86.7987 13.5154 86.7759 13.6814 86.7759 13.8605ZM93.5532 17.1075C93.1626 17.1075 92.8094 17.0441 92.4937 16.9171C92.1812 16.7869 91.9142 16.6062 91.6929 16.3751C91.4748 16.144 91.3071 15.8722 91.1899 15.5597C91.0728 15.2472 91.0142 14.9103 91.0142 14.549V14.3536C91.0142 13.9402 91.0744 13.5659 91.1948 13.2306C91.3153 12.8953 91.4829 12.6088 91.6978 12.3712C91.9126 12.1303 92.1665 11.9464 92.4595 11.8195C92.7524 11.6925 93.0698 11.629 93.4116 11.629C93.7892 11.629 94.1196 11.6925 94.4028 11.8195C94.686 11.9464 94.9204 12.1254 95.106 12.3566C95.2948 12.5844 95.4347 12.8562 95.5259 13.172C95.6203 13.4878 95.6675 13.8361 95.6675 14.2169V14.7198H91.5854V13.8751H94.5054V13.7823C94.4989 13.5708 94.4565 13.3722 94.3784 13.1866C94.3035 13.0011 94.188 12.8514 94.0317 12.7374C93.8755 12.6235 93.6672 12.5665 93.4067 12.5665C93.2114 12.5665 93.0373 12.6088 92.8843 12.6935C92.7345 12.7749 92.6092 12.8937 92.5083 13.0499C92.4074 13.2062 92.3293 13.395 92.2739 13.6163C92.2218 13.8344 92.1958 14.0802 92.1958 14.3536V14.549C92.1958 14.7801 92.2267 14.9949 92.2886 15.1935C92.3537 15.3888 92.4481 15.5597 92.5718 15.7062C92.6955 15.8527 92.8452 15.9682 93.021 16.0529C93.1968 16.1342 93.397 16.1749 93.6216 16.1749C93.9048 16.1749 94.1571 16.118 94.3784 16.004C94.5998 15.8901 94.7918 15.729 94.9546 15.5206L95.5747 16.1212C95.4608 16.2872 95.3127 16.4467 95.1304 16.5997C94.9481 16.7495 94.7251 16.8715 94.4614 16.9659C94.201 17.0603 93.8983 17.1075 93.5532 17.1075ZM97.7524 12.8546V17.0099H96.5757V11.7267H97.6841L97.7524 12.8546ZM97.5425 14.173L97.1616 14.1681C97.1649 13.7937 97.217 13.4503 97.3179 13.1378C97.422 12.8253 97.5653 12.5568 97.7476 12.3322C97.9331 12.1075 98.1545 11.935 98.4116 11.8146C98.6688 11.6909 98.9552 11.629 99.271 11.629C99.5249 11.629 99.7544 11.6648 99.9595 11.7365C100.168 11.8048 100.345 11.9171 100.492 12.0734C100.641 12.2296 100.755 12.4331 100.833 12.6837C100.912 12.9311 100.951 13.2355 100.951 13.5968V17.0099H99.769V13.5919C99.769 13.338 99.7316 13.1378 99.6567 12.9913C99.5851 12.8416 99.4793 12.7358 99.3394 12.674C99.2026 12.6088 99.0317 12.5763 98.8267 12.5763C98.6248 12.5763 98.4442 12.6186 98.2847 12.7032C98.1252 12.7879 97.9901 12.9034 97.8794 13.0499C97.772 13.1964 97.689 13.3657 97.6304 13.5577C97.5718 13.7498 97.5425 13.9549 97.5425 14.173ZM104.574 11.7267V12.5861H101.595V11.7267H104.574ZM102.455 10.4327H103.631V15.5499C103.631 15.7127 103.654 15.838 103.7 15.9259C103.749 16.0105 103.815 16.0675 103.9 16.0968C103.985 16.1261 104.084 16.1407 104.198 16.1407C104.279 16.1407 104.357 16.1359 104.432 16.1261C104.507 16.1163 104.567 16.1066 104.613 16.0968L104.618 16.9952C104.52 17.0245 104.406 17.0506 104.276 17.0734C104.149 17.0962 104.002 17.1075 103.836 17.1075C103.566 17.1075 103.327 17.0603 103.119 16.9659C102.91 16.8683 102.748 16.7104 102.63 16.4923C102.513 16.2742 102.455 15.9845 102.455 15.6232V10.4327ZM108.446 15.5792C108.446 15.462 108.417 15.3562 108.358 15.2618C108.299 15.1642 108.187 15.0763 108.021 14.9982C107.858 14.92 107.617 14.8484 107.298 14.7833C107.018 14.7215 106.761 14.6482 106.527 14.5636C106.296 14.4757 106.097 14.3699 105.931 14.2462C105.765 14.1225 105.637 13.976 105.545 13.8068C105.454 13.6375 105.409 13.4422 105.409 13.2208C105.409 13.006 105.456 12.8025 105.55 12.6105C105.645 12.4184 105.78 12.2491 105.956 12.1027C106.131 11.9562 106.345 11.8406 106.595 11.756C106.849 11.6713 107.132 11.629 107.445 11.629C107.888 11.629 108.267 11.7039 108.583 11.8536C108.902 12.0001 109.146 12.2003 109.315 12.4542C109.484 12.7049 109.569 12.9881 109.569 13.3038H108.392C108.392 13.1639 108.356 13.0337 108.285 12.9132C108.216 12.7895 108.112 12.6902 107.972 12.6154C107.832 12.5372 107.656 12.4982 107.445 12.4982C107.243 12.4982 107.075 12.5307 106.942 12.5958C106.812 12.6577 106.714 12.7391 106.649 12.84C106.587 12.9409 106.556 13.0516 106.556 13.172C106.556 13.2599 106.572 13.3396 106.605 13.4113C106.641 13.4796 106.699 13.5431 106.781 13.6017C106.862 13.657 106.973 13.7091 107.113 13.7579C107.256 13.8068 107.435 13.854 107.65 13.8995C108.054 13.9842 108.4 14.0932 108.69 14.2267C108.983 14.3569 109.208 14.5262 109.364 14.7345C109.52 14.9396 109.598 15.2 109.598 15.5157C109.598 15.7501 109.548 15.965 109.447 16.1603C109.349 16.3523 109.206 16.52 109.017 16.6632C108.828 16.8032 108.602 16.9122 108.338 16.9904C108.078 17.0685 107.785 17.1075 107.459 17.1075C106.981 17.1075 106.576 17.0229 106.244 16.8536C105.912 16.6811 105.659 16.4614 105.487 16.1945C105.318 15.9243 105.233 15.6443 105.233 15.3546H106.371C106.384 15.5727 106.444 15.7469 106.551 15.8771C106.662 16.004 106.799 16.0968 106.961 16.1554C107.127 16.2107 107.298 16.2384 107.474 16.2384C107.686 16.2384 107.863 16.2107 108.006 16.1554C108.15 16.0968 108.259 16.0187 108.333 15.921C108.408 15.8201 108.446 15.7062 108.446 15.5792ZM114.3 12.7423V19.0411H113.124V11.7267H114.208L114.3 12.7423ZM117.743 14.3195V14.422C117.743 14.8061 117.697 15.1626 117.606 15.4913C117.518 15.8169 117.386 16.1017 117.21 16.3458C117.038 16.5867 116.825 16.7739 116.571 16.9073C116.317 17.0408 116.024 17.1075 115.692 17.1075C115.363 17.1075 115.075 17.0473 114.828 16.9269C114.583 16.8032 114.377 16.629 114.208 16.4044C114.038 16.1798 113.902 15.9161 113.797 15.6134C113.696 15.3074 113.625 14.9721 113.583 14.6075V14.212C113.625 13.8247 113.696 13.4731 113.797 13.1573C113.902 12.8416 114.038 12.5698 114.208 12.3419C114.377 12.1141 114.583 11.9383 114.828 11.8146C115.072 11.6909 115.357 11.629 115.682 11.629C116.014 11.629 116.309 11.6941 116.566 11.8243C116.823 11.9513 117.04 12.1336 117.215 12.3712C117.391 12.6056 117.523 12.8888 117.611 13.2208C117.699 13.5496 117.743 13.9158 117.743 14.3195ZM116.566 14.422V14.3195C116.566 14.0753 116.543 13.8491 116.498 13.6407C116.452 13.4292 116.38 13.2436 116.283 13.0841C116.185 12.9246 116.06 12.8009 115.907 12.713C115.757 12.6219 115.576 12.5763 115.365 12.5763C115.156 12.5763 114.977 12.6121 114.828 12.6837C114.678 12.7521 114.553 12.8481 114.452 12.9718C114.351 13.0955 114.273 13.2404 114.217 13.4064C114.162 13.5691 114.123 13.7465 114.1 13.9386V14.8859C114.139 15.1202 114.206 15.3351 114.3 15.5304C114.395 15.7257 114.528 15.882 114.701 15.9991C114.876 16.1131 115.101 16.17 115.375 16.17C115.586 16.17 115.767 16.1245 115.917 16.0333C116.066 15.9422 116.188 15.8169 116.283 15.6573C116.38 15.4946 116.452 15.3074 116.498 15.0958C116.543 14.8842 116.566 14.6596 116.566 14.422ZM118.519 14.4269V14.3146C118.519 13.9337 118.574 13.5805 118.685 13.255C118.796 12.9262 118.955 12.6414 119.164 12.4005C119.375 12.1564 119.632 11.9676 119.935 11.8341C120.241 11.6974 120.586 11.629 120.97 11.629C121.358 11.629 121.703 11.6974 122.005 11.8341C122.311 11.9676 122.57 12.1564 122.782 12.4005C122.993 12.6414 123.154 12.9262 123.265 13.255C123.376 13.5805 123.431 13.9337 123.431 14.3146V14.4269C123.431 14.8077 123.376 15.1609 123.265 15.4865C123.154 15.812 122.993 16.0968 122.782 16.3409C122.57 16.5818 122.313 16.7706 122.01 16.9073C121.708 17.0408 121.364 17.1075 120.98 17.1075C120.593 17.1075 120.246 17.0408 119.94 16.9073C119.637 16.7706 119.38 16.5818 119.168 16.3409C118.957 16.0968 118.796 15.812 118.685 15.4865C118.574 15.1609 118.519 14.8077 118.519 14.4269ZM119.696 14.3146V14.4269C119.696 14.6645 119.72 14.8891 119.769 15.1007C119.818 15.3123 119.894 15.4978 119.999 15.6573C120.103 15.8169 120.236 15.9422 120.399 16.0333C120.562 16.1245 120.755 16.17 120.98 16.17C121.198 16.17 121.387 16.1245 121.546 16.0333C121.709 15.9422 121.843 15.8169 121.947 15.6573C122.051 15.4978 122.127 15.3123 122.176 15.1007C122.228 14.8891 122.254 14.6645 122.254 14.4269V14.3146C122.254 14.0802 122.228 13.8588 122.176 13.6505C122.127 13.4389 122.049 13.2517 121.942 13.089C121.838 12.9262 121.704 12.7993 121.542 12.7081C121.382 12.6137 121.192 12.5665 120.97 12.5665C120.749 12.5665 120.557 12.6137 120.394 12.7081C120.235 12.7993 120.103 12.9262 119.999 13.089C119.894 13.2517 119.818 13.4389 119.769 13.6505C119.72 13.8588 119.696 14.0802 119.696 14.3146ZM125.853 15.838L127.074 11.7267H127.826L127.621 12.9572L126.39 17.0099H125.716L125.853 15.838ZM125.135 11.7267L126.087 15.8575L126.166 17.0099H125.414L123.983 11.7267H125.135ZM128.968 15.8087L129.891 11.7267H131.039L129.613 17.0099H128.861L128.968 15.8087ZM127.953 11.7267L129.159 15.7892L129.31 17.0099H128.636L127.391 12.9523L127.186 11.7267H127.953ZM134.168 17.1075C133.778 17.1075 133.425 17.0441 133.109 16.9171C132.796 16.7869 132.529 16.6062 132.308 16.3751C132.09 16.144 131.922 15.8722 131.805 15.5597C131.688 15.2472 131.629 14.9103 131.629 14.549V14.3536C131.629 13.9402 131.69 13.5659 131.81 13.2306C131.931 12.8953 132.098 12.6088 132.313 12.3712C132.528 12.1303 132.782 11.9464 133.075 11.8195C133.368 11.6925 133.685 11.629 134.027 11.629C134.404 11.629 134.735 11.6925 135.018 11.8195C135.301 11.9464 135.536 12.1254 135.721 12.3566C135.91 12.5844 136.05 12.8562 136.141 13.172C136.236 13.4878 136.283 13.8361 136.283 14.2169V14.7198H132.201V13.8751H135.121V13.7823C135.114 13.5708 135.072 13.3722 134.994 13.1866C134.919 13.0011 134.803 12.8514 134.647 12.7374C134.491 12.6235 134.282 12.5665 134.022 12.5665C133.827 12.5665 133.653 12.6088 133.5 12.6935C133.35 12.7749 133.224 12.8937 133.124 13.0499C133.023 13.2062 132.944 13.395 132.889 13.6163C132.837 13.8344 132.811 14.0802 132.811 14.3536V14.549C132.811 14.7801 132.842 14.9949 132.904 15.1935C132.969 15.3888 133.063 15.5597 133.187 15.7062C133.311 15.8527 133.46 15.9682 133.636 16.0529C133.812 16.1342 134.012 16.1749 134.237 16.1749C134.52 16.1749 134.772 16.118 134.994 16.004C135.215 15.8901 135.407 15.729 135.57 15.5206L136.19 16.1212C136.076 16.2872 135.928 16.4467 135.746 16.5997C135.563 16.7495 135.34 16.8715 135.077 16.9659C134.816 17.0603 134.514 17.1075 134.168 17.1075ZM138.382 12.7325V17.0099H137.206V11.7267H138.329L138.382 12.7325ZM139.999 11.6925L139.989 12.7863C139.917 12.7732 139.839 12.7635 139.754 12.757C139.673 12.7504 139.592 12.7472 139.51 12.7472C139.308 12.7472 139.131 12.7765 138.978 12.8351C138.825 12.8904 138.696 12.9718 138.592 13.0792C138.491 13.1834 138.413 13.3103 138.358 13.4601C138.303 13.6098 138.27 13.7775 138.26 13.963L137.992 13.9825C137.992 13.6505 138.024 13.3429 138.089 13.0597C138.154 12.7765 138.252 12.5275 138.382 12.3126C138.516 12.0978 138.682 11.9301 138.88 11.8097C139.082 11.6892 139.315 11.629 139.579 11.629C139.65 11.629 139.727 11.6355 139.808 11.6486C139.893 11.6616 139.956 11.6762 139.999 11.6925ZM142.967 17.1075C142.577 17.1075 142.223 17.0441 141.908 16.9171C141.595 16.7869 141.328 16.6062 141.107 16.3751C140.889 16.144 140.721 15.8722 140.604 15.5597C140.487 15.2472 140.428 14.9103 140.428 14.549V14.3536C140.428 13.9402 140.488 13.5659 140.609 13.2306C140.729 12.8953 140.897 12.6088 141.112 12.3712C141.327 12.1303 141.581 11.9464 141.874 11.8195C142.167 11.6925 142.484 11.629 142.826 11.629C143.203 11.629 143.534 11.6925 143.817 11.8195C144.1 11.9464 144.334 12.1254 144.52 12.3566C144.709 12.5844 144.849 12.8562 144.94 13.172C145.034 13.4878 145.082 13.8361 145.082 14.2169V14.7198H141V13.8751H143.919V13.7823C143.913 13.5708 143.871 13.3722 143.792 13.1866C143.718 13.0011 143.602 12.8514 143.446 12.7374C143.29 12.6235 143.081 12.5665 142.821 12.5665C142.625 12.5665 142.451 12.6088 142.298 12.6935C142.149 12.7749 142.023 12.8937 141.922 13.0499C141.821 13.2062 141.743 13.395 141.688 13.6163C141.636 13.8344 141.61 14.0802 141.61 14.3536V14.549C141.61 14.7801 141.641 14.9949 141.703 15.1935C141.768 15.3888 141.862 15.5597 141.986 15.7062C142.11 15.8527 142.259 15.9682 142.435 16.0529C142.611 16.1342 142.811 16.1749 143.036 16.1749C143.319 16.1749 143.571 16.118 143.792 16.004C144.014 15.8901 144.206 15.729 144.369 15.5206L144.989 16.1212C144.875 16.2872 144.727 16.4467 144.544 16.5997C144.362 16.7495 144.139 16.8715 143.875 16.9659C143.615 17.0603 143.312 17.1075 142.967 17.1075ZM149.222 15.9161V9.50989H150.404V17.0099H149.334L149.222 15.9161ZM145.785 14.4269V14.3243C145.785 13.924 145.832 13.5594 145.926 13.2306C146.021 12.8986 146.157 12.6137 146.336 12.3761C146.515 12.1352 146.734 11.9513 146.991 11.8243C147.248 11.6941 147.538 11.629 147.86 11.629C148.179 11.629 148.459 11.6909 148.7 11.8146C148.941 11.9383 149.146 12.1157 149.315 12.3468C149.484 12.5747 149.619 12.8481 149.72 13.1671C149.821 13.4829 149.893 13.8344 149.935 14.2218V14.549C149.893 14.9266 149.821 15.2716 149.72 15.5841C149.619 15.8966 149.484 16.1668 149.315 16.3947C149.146 16.6225 148.939 16.7983 148.695 16.922C148.454 17.0457 148.172 17.1075 147.85 17.1075C147.531 17.1075 147.243 17.0408 146.986 16.9073C146.732 16.7739 146.515 16.5867 146.336 16.3458C146.157 16.1049 146.021 15.8217 145.926 15.4962C145.832 15.1674 145.785 14.811 145.785 14.4269ZM146.961 14.3243V14.4269C146.961 14.6678 146.983 14.8924 147.025 15.1007C147.07 15.309 147.14 15.493 147.235 15.6525C147.329 15.8087 147.451 15.9324 147.601 16.0236C147.754 16.1115 147.936 16.1554 148.148 16.1554C148.415 16.1554 148.635 16.0968 148.807 15.9796C148.98 15.8624 149.115 15.7045 149.212 15.506C149.313 15.3042 149.382 15.0795 149.417 14.8322V13.9484C149.398 13.7563 149.357 13.5773 149.295 13.4113C149.237 13.2452 149.157 13.1004 149.056 12.9767C148.955 12.8497 148.83 12.7521 148.68 12.6837C148.534 12.6121 148.36 12.5763 148.158 12.5763C147.943 12.5763 147.761 12.6219 147.611 12.713C147.461 12.8042 147.337 12.9295 147.24 13.089C147.145 13.2485 147.075 13.434 147.03 13.6456C146.984 13.8572 146.961 14.0835 146.961 14.3243ZM154.129 9.50989H155.306V15.882L155.194 17.0099H154.129V9.50989ZM158.753 14.3195V14.422C158.753 14.8126 158.709 15.1723 158.622 15.5011C158.537 15.8266 158.407 16.1098 158.231 16.3507C158.058 16.5916 157.844 16.7788 157.586 16.9122C157.333 17.0424 157.038 17.1075 156.703 17.1075C156.374 17.1075 156.087 17.0457 155.843 16.922C155.599 16.7983 155.394 16.6225 155.228 16.3947C155.065 16.1668 154.933 15.895 154.833 15.5792C154.732 15.2635 154.66 14.9152 154.618 14.5343V14.2072C154.66 13.823 154.732 13.4747 154.833 13.1622C154.933 12.8465 155.065 12.5747 155.228 12.3468C155.394 12.1157 155.597 11.9383 155.838 11.8146C156.083 11.6909 156.367 11.629 156.693 11.629C157.031 11.629 157.329 11.6941 157.586 11.8243C157.847 11.9545 158.063 12.1401 158.236 12.381C158.408 12.6186 158.537 12.9018 158.622 13.2306C158.709 13.5594 158.753 13.9223 158.753 14.3195ZM157.577 14.422V14.3195C157.577 14.0818 157.557 13.8588 157.518 13.6505C157.479 13.4389 157.414 13.2534 157.323 13.0939C157.235 12.9344 157.114 12.809 156.961 12.7179C156.812 12.6235 156.625 12.5763 156.4 12.5763C156.192 12.5763 156.013 12.6121 155.863 12.6837C155.713 12.7553 155.588 12.853 155.487 12.9767C155.386 13.1004 155.306 13.2436 155.248 13.4064C155.192 13.5691 155.155 13.7449 155.135 13.9337V14.8175C155.165 15.0616 155.226 15.2863 155.321 15.4913C155.418 15.6932 155.555 15.8559 155.731 15.9796C155.907 16.1001 156.133 16.1603 156.41 16.1603C156.628 16.1603 156.812 16.1163 156.961 16.0284C157.111 15.9406 157.23 15.8185 157.318 15.6622C157.409 15.5027 157.474 15.3172 157.513 15.1056C157.556 14.894 157.577 14.6661 157.577 14.422ZM161.224 16.4337L162.66 11.7267H163.919L161.8 17.8156C161.751 17.9458 161.688 18.0874 161.61 18.2404C161.532 18.3934 161.429 18.5382 161.302 18.6749C161.179 18.8149 161.024 18.9272 160.838 19.0118C160.653 19.0997 160.428 19.1437 160.165 19.1437C160.06 19.1437 159.959 19.1339 159.862 19.1144C159.767 19.0981 159.678 19.0802 159.593 19.0607L159.588 18.1622C159.621 18.1655 159.66 18.1687 159.706 18.172C159.754 18.1753 159.793 18.1769 159.823 18.1769C160.018 18.1769 160.181 18.1525 160.311 18.1036C160.441 18.0581 160.547 17.9832 160.628 17.879C160.713 17.7749 160.785 17.6349 160.843 17.4591L161.224 16.4337ZM160.414 11.7267L161.668 15.6818L161.878 16.922L161.063 17.132L159.144 11.7267H160.414Z" fill="#424770" fill-opacity="0.5"/>
<g clip-path="url(#clip0_1_635)">
<path fill-rule="evenodd" clip-rule="evenodd" d="M171.427 13.3349C170.652 13.0669 170.227 12.8584 170.227 12.5308C170.227 12.2528 170.471 12.094 170.906 12.094C171.703 12.094 172.521 12.3819 173.083 12.64L173.402 10.8034C172.956 10.6049 172.043 10.2773 170.779 10.2773C169.887 10.2773 169.144 10.4956 168.613 10.9027C168.06 11.3295 167.774 11.9451 167.774 12.6896C167.774 14.0397 168.655 14.6156 170.089 15.102C171.013 15.4097 171.321 15.6282 171.321 15.9657C171.321 16.2933 171.023 16.4819 170.482 16.4819C169.813 16.4819 168.708 16.1741 167.986 15.7771L167.667 17.6335C168.283 17.9611 169.43 18.2986 170.62 18.2986C171.565 18.2986 172.351 18.0901 172.882 17.693C173.476 17.2562 173.784 16.611 173.784 15.7771C173.784 14.3971 172.882 13.8213 171.427 13.3349ZM178.971 12.2528L179.289 10.4262H177.607V8.20874L175.346 8.5566L175.019 10.4262L174.224 10.5468L173.926 12.2528H175.016V15.8366C175.016 16.7698 175.271 17.4151 175.791 17.8122C176.227 18.1398 176.853 18.2986 177.735 18.2986C178.414 18.2986 178.829 18.1894 179.115 18.1199V16.184C178.956 16.2238 178.595 16.2933 178.351 16.2933C177.83 16.2933 177.607 16.0451 177.607 15.4792V12.2528H178.971ZM184.021 10.3195C183.278 10.3195 182.683 10.6843 182.45 11.3395L182.29 10.4262H179.986V18.1497H182.62V13.1364C182.949 12.7591 183.416 12.6227 184.053 12.6227C184.191 12.6227 184.34 12.6227 184.521 12.6525V10.379C184.34 10.3394 184.181 10.3195 184.021 10.3195ZM186.485 9.66174C187.25 9.66174 187.866 9.07608 187.866 8.3613C187.866 7.63655 187.25 7.06079 186.485 7.06079C185.71 7.06079 185.094 7.63655 185.094 8.3613C185.094 9.07608 185.71 9.66174 186.485 9.66174ZM185.158 10.4262H187.802V18.1497H185.158V10.4262ZM195.295 11.1211C194.828 10.5552 194.18 10.2773 193.352 10.2773C192.587 10.2773 191.918 10.5751 191.292 11.2005L191.154 10.4262H188.839V21.0087L191.472 20.6018V18.1199C191.876 18.239 192.29 18.2986 192.662 18.2986C193.32 18.2986 194.276 18.1398 195.019 17.3853C195.731 16.6606 196.092 15.5388 196.092 14.0596C196.092 12.7492 195.826 11.7565 195.295 11.1211ZM193.108 15.8862C192.895 16.2635 192.566 16.4621 192.184 16.4621C191.918 16.4621 191.685 16.4124 191.472 16.3131V12.64C191.918 12.2032 192.322 12.1535 192.471 12.1535C193.14 12.1535 193.469 12.8286 193.469 14.1489C193.469 14.9034 193.352 15.4891 193.108 15.8862ZM203.642 14.2184C203.642 12.9874 203.356 12.0145 202.793 11.3295C202.219 10.6347 201.359 10.2773 200.265 10.2773C198.024 10.2773 196.633 11.8259 196.633 14.3078C196.633 15.6976 197.005 16.74 197.738 17.4051C198.396 18.0007 199.341 18.2986 200.563 18.2986C201.688 18.2986 202.729 18.0504 203.387 17.6434L203.101 15.9558C202.453 16.2834 201.699 16.4621 200.849 16.4621C200.34 16.4621 199.989 16.3627 199.734 16.1543C199.458 15.9359 199.299 15.5785 199.246 15.0722H203.61C203.621 14.9531 203.642 14.3971 203.642 14.2184ZM199.225 13.5632C199.299 12.4613 199.617 11.9451 200.223 11.9451C200.817 11.9451 201.125 12.4712 201.168 13.5632H199.225Z" fill="#424770" fill-opacity="0.5"/>
</g>
<g clip-path="url(#clip1_1_635)">
<path d="M0.81748 43.0099C0.81748 40.3313 2.9889 38.1599 5.66748 38.1599H57.6675C60.3461 38.1599 62.5175 40.3313 62.5175 43.0099V74.0099C62.5175 76.6885 60.3461 78.8599 57.6675 78.8599H5.66748C2.9889 78.8599 0.81748 76.6885 0.81748 74.0099V43.0099Z" fill="#272624"/>
<path d="M0.81748 43.0099C0.81748 40.3313 2.9889 38.1599 5.66748 38.1599H57.6675C60.3461 38.1599 62.5175 40.3313 62.5175 43.0099V74.0099C62.5175 76.6885 60.3461 78.8599 57.6675 78.8599H5.66748C2.9889 78.8599 0.81748 76.6885 0.81748 74.0099V43.0099Z" stroke="#999999" stroke-width="0.3"/>
<g clip-path="url(#clip2_1_635)">
<path fill-rule="evenodd" clip-rule="evenodd" d="M26.6658 67.1298H36.3009V49.8584H26.6658V67.1298Z" fill="#FF5F00"/>
<path fill-rule="evenodd" clip-rule="evenodd" d="M27.2775 58.494C27.2775 54.9901 28.9222 51.8694 31.4833 49.8584C29.6101 48.3874 27.2469 47.5099 24.6781 47.5099C18.597 47.5099 13.6675 52.4277 13.6675 58.494C13.6675 64.5603 18.597 69.4782 24.6781 69.4782C27.2469 69.4782 29.6101 68.6007 31.4833 67.1297C28.9222 65.1184 27.2775 61.998 27.2775 58.494Z" fill="#EB001B"/>
<path fill-rule="evenodd" clip-rule="evenodd" d="M48.9554 65.3004V64.8742H48.8438L48.7156 65.1674L48.5871 64.8742H48.4755V65.3004H48.5541V64.9788L48.6746 65.2562H48.7563L48.8768 64.9782V65.3004H48.9554ZM48.2485 65.3004V64.9468H48.3917V64.8748H48.0277V64.9468H48.1705V65.3004H48.2485ZM49.2992 58.4939C49.2992 64.5602 44.3694 69.4781 38.2886 69.4781C35.7198 69.4781 33.3563 68.6006 31.4834 67.1296C34.0445 65.1186 35.6892 61.9979 35.6892 58.4939C35.6892 54.9903 34.0445 51.8696 31.4834 49.8582C33.3563 48.3873 35.7198 47.5098 38.2886 47.5098C44.3694 47.5098 49.2992 52.4276 49.2992 58.4939Z" fill="#F79E1B"/>
</g>
<path d="M73.8175 43.0099C73.8175 40.3313 75.9889 38.1599 78.6675 38.1599H130.667C133.346 38.1599 135.517 40.3313 135.517 43.0099V74.0099C135.517 76.6885 133.346 78.8599 130.667 78.8599H78.6675C75.9889 78.8599 73.8175 76.6885 73.8175 74.0099V43.0099Z" fill="white"/>
<path d="M73.8175 43.0099C73.8175 40.3313 75.9889 38.1599 78.6675 38.1599H130.667C133.346 38.1599 135.517 40.3313 135.517 43.0099V74.0099C135.517 76.6885 133.346 78.8599 130.667 78.8599H78.6675C75.9889 78.8599 73.8175 76.6885 73.8175 74.0099V43.0099Z" stroke="#999999" stroke-width="0.3"/>
<path d="M108.569 52.4376C107.878 51.7695 106.973 51.4146 106.026 51.4285H102.107V63.0092H103.586V58.3184H106.033C107.035 58.3184 107.878 57.9844 108.562 57.3302C109.254 56.7038 109.634 55.8061 109.62 54.8735C109.641 53.9548 109.254 53.057 108.569 52.4376ZM107.519 56.3002C107.145 56.6969 106.613 56.9196 106.06 56.8987H103.586V52.8552L106.06 52.8622C106.613 52.8413 107.145 53.064 107.519 53.4746L107.553 53.5094C108.307 54.2958 108.3 55.5416 107.519 56.3002Z" fill="#60646A"/>
<path d="M115.613 55.7087C114.977 55.1241 114.12 54.8318 113.028 54.8318C111.624 54.8318 110.567 55.3468 109.862 56.3768L111.161 57.198C111.645 56.4951 112.302 56.1471 113.124 56.1471C113.65 56.1471 114.154 56.342 114.548 56.69C114.935 57.0101 115.156 57.4903 115.156 57.9984V58.3394C114.59 58.0262 113.871 57.8592 112.993 57.8592C111.963 57.8592 111.141 58.1028 110.525 58.5899C109.91 59.0771 109.599 59.7243 109.599 60.5456C109.578 61.2902 109.903 62.0071 110.47 62.4873C111.051 63.0023 111.783 63.2598 112.647 63.2598C113.663 63.2598 114.472 62.8074 115.087 61.9027H115.15V63.0023H116.56V58.1237C116.553 57.1076 116.242 56.3003 115.613 55.7087ZM114.41 61.2555C113.968 61.7009 113.373 61.9514 112.751 61.9514C112.336 61.9584 111.935 61.8192 111.604 61.5617C111.3 61.339 111.12 60.9771 111.12 60.5943C111.12 60.1628 111.32 59.8009 111.714 59.5016C112.115 59.2163 112.62 59.0702 113.221 59.0702C114.044 59.0702 114.686 59.2581 115.15 59.6269C115.143 60.2463 114.894 60.7892 114.41 61.2555Z" fill="#60646A"/>
<path d="M124.667 55.0892L119.732 66.5099H118.205L120.043 62.5151L116.795 55.1032H118.398L120.741 60.7891H120.776L123.057 55.1032L124.667 55.0892Z" fill="#60646A"/>
<path d="M97.6137 57.3094C97.6137 56.857 97.5792 56.4046 97.5031 55.9592H91.2754V58.5203H94.842C94.6969 59.3416 94.2199 60.0793 93.5218 60.5456V62.2019H95.6507C96.8949 61.0467 97.6137 59.3416 97.6137 57.3094Z" fill="#517CBE"/>
<path d="M91.2754 63.8097C93.0518 63.8097 94.5586 63.2181 95.6507 62.202L93.5218 60.5387C92.9273 60.9423 92.167 61.179 91.2754 61.179C89.5474 61.179 88.0889 60.0028 87.5705 58.4369H85.3794V60.1559C86.4922 62.3899 88.7801 63.8097 91.2754 63.8097Z" fill="#32A853"/>
<path d="M87.5705 58.4369C87.294 57.6156 87.294 56.7178 87.5705 55.8897V54.1776H85.3794C84.4325 56.0497 84.4325 58.2698 85.3794 60.1419L87.5705 58.4369Z" fill="#FBBC0C"/>
<path d="M91.2754 53.1406C92.2223 53.1197 93.1278 53.4816 93.8052 54.1358L95.6853 52.2498C94.4964 51.1084 92.9135 50.489 91.2754 50.5099C88.7801 50.5099 86.4922 51.9297 85.3794 54.1776L87.5705 55.8966C88.0889 54.3168 89.5474 53.1406 91.2754 53.1406Z" fill="#E84436"/>
<g clip-path="url(#clip3_1_635)">
<path d="M146.667 43.0099C146.667 40.2485 148.906 38.0099 151.667 38.0099H203.667C206.429 38.0099 208.667 40.2485 208.667 43.0099V74.0099C208.667 76.7713 206.429 79.0099 203.667 79.0099H151.667C148.906 79.0099 146.667 76.7713 146.667 74.0099V43.0099Z" fill="white"/>
<g clip-path="url(#clip4_1_635)">
<path d="M209.447 62.7098C209.447 62.7098 191.959 75.4217 159.933 81.122H209.447V62.7098Z" fill="#F48120"/>
<path d="M154.718 54.3099H152.476V62.3599H154.718C155.903 62.3599 156.759 62.0672 157.516 61.4378C158.416 60.6768 158.944 59.5351 158.944 58.3496C158.93 55.9638 157.202 54.3099 154.718 54.3099ZM156.517 60.3694C156.031 60.8085 155.417 61.0134 154.418 61.0134H154.004V55.6858H154.418C155.403 55.6858 156.003 55.8614 156.517 56.3298C157.045 56.8128 157.359 57.5592 157.359 58.3349C157.359 59.1107 157.045 59.8864 156.517 60.3694Z" fill="#231F20"/>
<path d="M161.327 54.3099H159.625V62.3599H161.327V54.3099Z" fill="#231F20"/>
<path d="M165.063 57.2983C164.088 56.9324 163.799 56.6885 163.799 56.2464C163.799 55.7129 164.317 55.3165 165.017 55.3165C165.505 55.3165 165.916 55.5147 166.327 56.0025L167.179 54.8897C166.479 54.28 165.642 53.9598 164.713 53.9598C163.236 53.9598 162.094 54.9964 162.094 56.3684C162.094 57.5269 162.627 58.1214 164.149 58.6702C164.789 58.8989 165.109 59.0513 165.276 59.1428C165.596 59.3562 165.763 59.6611 165.763 60.0117C165.763 60.6976 165.23 61.2007 164.5 61.2007C163.723 61.2007 163.099 60.8044 162.718 60.0879L161.667 61.1092C162.414 62.222 163.327 62.7098 164.561 62.7098C166.251 62.7098 167.454 61.5818 167.454 59.9507C167.484 58.594 166.921 57.9842 165.063 57.2983Z" fill="#231F20"/>
<path d="M167.795 58.3424C167.795 60.8077 169.631 62.7098 171.986 62.7098C172.651 62.7098 173.229 62.5729 173.923 62.2229V60.3055C173.301 60.9598 172.752 61.2185 172.059 61.2185C170.498 61.2185 169.385 60.0316 169.385 58.3272C169.385 56.7142 170.527 55.4511 171.986 55.4511C172.723 55.4511 173.287 55.7251 173.923 56.3946V54.4772C173.244 54.112 172.68 53.9598 172.015 53.9598C169.688 53.9598 167.795 55.9077 167.795 58.3424Z" fill="#231F20"/>
<path d="M186.178 59.8206L184.093 54.3099H182.433L185.738 62.7099H186.561L189.923 54.3099H188.277L186.178 59.8206Z" fill="#231F20"/>
<path d="M190.604 62.3599H195.029V60.9988H192.161V58.8326H194.927V57.4714H192.161V55.6858H195.029V54.3099H190.604V62.3599Z" fill="#231F20"/>
<path d="M201.159 56.681C201.159 55.1735 200.135 54.3099 198.345 54.3099H196.05V62.3599H197.595V59.1253H197.797L199.933 62.3599H201.838L199.341 58.9643C200.51 58.7155 201.159 57.9105 201.159 56.681ZM198.042 58.0129H197.595V55.5687H198.071C199.038 55.5687 199.557 55.9785 199.557 56.7688C199.557 57.5738 199.038 58.0129 198.042 58.0129Z" fill="#231F20"/>
<path d="M178.519 62.7098C180.869 62.7098 182.774 60.7511 182.774 58.3348C182.774 55.9186 180.869 53.9598 178.519 53.9598C176.168 53.9598 174.263 55.9186 174.263 58.3348C174.263 60.7511 176.168 62.7098 178.519 62.7098Z" fill="url(#paint0_linear_1_635)"/>
<path opacity="0.65" d="M178.519 62.7098C180.869 62.7098 182.774 60.7511 182.774 58.3348C182.774 55.9186 180.869 53.9598 178.519 53.9598C176.168 53.9598 174.263 55.9186 174.263 58.3348C174.263 60.7511 176.168 62.7098 178.519 62.7098Z" fill="url(#paint1_linear_1_635)"/>
<path d="M202.076 54.5287C202.076 54.3829 201.957 54.3099 201.77 54.3099H201.497V55.0099H201.702V54.7329L201.94 55.0099H202.178L201.906 54.7183C202.008 54.7037 202.076 54.6308 202.076 54.5287ZM201.736 54.6308H201.702V54.4412H201.736C201.838 54.4412 201.889 54.4704 201.889 54.5287C201.889 54.6016 201.838 54.6308 201.736 54.6308Z" fill="#231F20"/>
<path d="M201.838 53.9598C201.465 53.9598 201.157 54.2765 201.157 54.6598C201.157 55.0432 201.465 55.3598 201.838 55.3598C202.211 55.3598 202.519 55.0432 202.519 54.6598C202.519 54.2765 202.211 53.9598 201.838 53.9598ZM201.838 55.2432C201.546 55.2432 201.287 54.9932 201.287 54.6598C201.287 54.3265 201.53 54.0765 201.838 54.0765C202.13 54.0765 202.373 54.3432 202.373 54.6598C202.373 54.9765 202.13 55.2432 201.838 55.2432Z" fill="#231F20"/>
</g>
</g>
<path d="M146.817 43.0099C146.817 40.3313 148.989 38.1599 151.667 38.1599H203.667C206.346 38.1599 208.517 40.3313 208.517 43.0099V74.0099C208.517 76.6885 206.346 78.8599 203.667 78.8599H151.667C148.989 78.8599 146.817 76.6885 146.817 74.0099V43.0099Z" stroke="#999999" stroke-width="0.3"/>
<path d="M0.81748 95.0099C0.81748 92.3313 2.9889 90.1599 5.66748 90.1599H57.6675C60.3461 90.1599 62.5175 92.3313 62.5175 95.0099V126.01C62.5175 128.688 60.3461 130.86 57.6675 130.86H5.66748C2.9889 130.86 0.81748 128.688 0.81748 126.01V95.0099Z" fill="#32DDB3"/>
<path d="M0.81748 95.0099C0.81748 92.3313 2.9889 90.1599 5.66748 90.1599H57.6675C60.3461 90.1599 62.5175 92.3313 62.5175 95.0099V126.01C62.5175 128.688 60.3461 130.86 57.6675 130.86H5.66748C2.9889 130.86 0.81748 128.688 0.81748 126.01V95.0099Z" stroke="#999999" stroke-width="0.3"/>
<g clip-path="url(#clip5_1_635)">
<path d="M24.9253 116.092C24.9268 116.056 24.9295 116.02 24.9295 115.984C24.9295 113.992 24.9295 112.001 24.9295 110.01C24.9295 109.973 24.9266 109.937 24.925 109.901C24.9266 109.861 24.9292 109.821 24.9295 109.781C24.9297 109.175 24.9295 108.568 24.9299 107.961C24.9299 107.838 24.9319 107.714 24.933 107.591C24.9387 107.584 24.9445 107.577 24.9502 107.571C24.99 107.569 25.0296 107.567 25.0693 107.566C25.2357 107.565 25.4021 107.563 25.5685 107.562C25.6087 107.563 25.6489 107.566 25.6891 107.566C26.1765 107.566 26.6641 107.566 27.1516 107.566C27.19 107.566 27.2287 107.569 27.2707 107.57C27.2707 107.645 27.2702 107.706 27.2707 107.768C27.2722 107.999 27.274 108.231 27.2755 108.462C27.2737 108.495 27.2707 108.527 27.2707 108.56C27.2704 109.798 27.2707 111.037 27.2707 112.276C27.2707 112.305 27.2724 112.334 27.2735 112.363V112.418C27.2916 112.389 27.3 112.376 27.3082 112.363C27.3378 112.317 27.3681 112.272 27.3968 112.225C27.7976 111.574 28.2068 110.928 28.6613 110.312C29.0208 109.824 29.4033 109.356 29.8403 108.932C30.4833 108.309 31.2224 107.842 32.0812 107.565C32.1022 107.563 32.1236 107.562 32.1439 107.557C32.3558 107.503 32.5673 107.447 32.7878 107.437C32.8538 107.43 32.9199 107.424 32.986 107.418C33.1113 107.418 33.2365 107.418 33.362 107.418C33.4279 107.424 33.4937 107.431 33.5598 107.437C33.6371 107.452 33.714 107.473 33.792 107.479C34.0006 107.496 34.1961 107.561 34.3864 107.638C34.9487 107.867 35.3934 108.232 35.6787 108.769C35.7682 108.937 35.838 109.116 35.9058 109.295C35.946 109.401 35.9646 109.516 35.9929 109.626C36.0061 109.671 36.0249 109.716 36.0318 109.762C36.0731 110.039 36.1118 110.318 36.1513 110.596C36.1537 110.613 36.1562 110.63 36.1586 110.647C36.1635 110.739 36.1683 110.831 36.1734 110.923C36.1752 110.94 36.1767 110.958 36.1785 110.975C36.1842 111.197 36.19 111.42 36.1955 111.642C36.1931 111.664 36.1884 111.685 36.1884 111.706C36.188 112.075 36.188 112.445 36.1884 112.814C36.1884 112.839 36.1931 112.864 36.1955 112.889C36.1933 112.98 36.1891 113.07 36.1893 113.161C36.1906 113.505 36.1935 113.849 36.1957 114.192C36.1988 114.216 36.2019 114.24 36.2052 114.264C36.2169 114.462 36.2485 114.654 36.3418 114.834C36.4301 115.004 36.5556 115.132 36.7311 115.217C36.8674 115.283 37.0099 115.308 37.1591 115.311C37.1666 115.311 37.1743 115.312 37.1818 115.312C37.2406 115.312 37.2991 115.313 37.3579 115.313C37.38 115.312 37.4023 115.311 37.4244 115.31C37.5177 115.294 37.6122 115.284 37.7037 115.261C37.8765 115.218 38.0471 115.166 38.1977 115.067C38.2 115.059 38.2019 115.051 38.2042 115.043C38.2035 114.999 38.2024 114.956 38.2024 114.912C38.2024 112.762 38.2024 110.611 38.2024 108.461C38.2024 108.418 38.1989 108.374 38.1971 108.331C38.1989 108.295 38.2024 108.258 38.2024 108.222C38.2026 106.74 38.2026 105.257 38.2024 103.774C38.2024 103.738 38.1989 103.702 38.1971 103.666L38.2044 103.668C38.2099 103.661 38.2152 103.654 38.2207 103.647C38.2428 103.646 38.2647 103.644 38.2868 103.644C39.0369 103.644 39.787 103.644 40.5372 103.644L40.5367 103.645C40.5367 103.699 40.5372 103.754 40.5372 103.808C40.5372 106.967 40.5372 110.125 40.5372 113.284C40.5372 113.32 40.5358 113.357 40.5383 113.393C40.5389 113.403 40.5509 113.412 40.5577 113.421C40.6021 113.384 40.6492 113.349 40.6905 113.308C41.1085 112.898 41.4921 112.458 41.858 112.003C42.8317 110.792 43.6713 109.493 44.4179 108.135C44.5211 107.948 44.6212 107.759 44.7246 107.567H47.319C47.3179 107.582 47.3168 107.596 47.3157 107.611C47.1966 107.843 47.0769 108.074 46.9586 108.306C46.8994 108.422 46.8424 108.54 46.7843 108.657C46.6955 108.815 46.6062 108.973 46.5181 109.132C45.9087 110.227 45.2511 111.292 44.5185 112.311C44.5037 112.332 44.4913 112.354 44.4756 112.379C44.6144 112.593 44.7525 112.807 44.8912 113.021C45.7978 114.417 46.7046 115.813 47.6109 117.209C47.6323 117.242 47.6493 117.278 47.6683 117.312C46.7859 117.312 45.9036 117.312 45.0211 117.312C44.9845 117.312 44.9478 117.31 44.9109 117.309C44.2562 116.299 43.6015 115.288 42.9418 114.27C42.8275 114.391 42.7237 114.503 42.6181 114.614C42.1119 115.142 41.5752 115.636 40.9848 116.073C40.4391 116.476 39.8602 116.824 39.2305 117.085C38.9017 117.221 38.563 117.328 38.2134 117.402C37.9744 117.452 37.7357 117.499 37.4911 117.509C37.2479 117.509 37.0046 117.509 36.7616 117.509C36.5031 117.509 36.2545 117.456 36.0068 117.386C35.581 117.267 35.2034 117.065 34.8724 116.776C34.5819 116.522 34.3687 116.213 34.2045 115.869C34.174 115.805 34.1435 115.741 34.113 115.677C34.0691 115.538 34.0205 115.401 33.9825 115.261C33.9188 115.027 33.8687 114.79 33.8627 114.546C33.8647 114.524 33.8665 114.502 33.8685 114.481C33.8647 114.473 33.8609 114.464 33.8574 114.457C33.8536 114.319 33.8468 114.182 33.8468 114.045C33.8468 113.469 33.8492 112.894 33.849 112.319C33.849 112.203 33.8419 112.087 33.8382 111.972C33.843 111.966 33.8455 111.96 33.8453 111.952L33.8358 111.861C33.8298 111.76 33.824 111.66 33.8181 111.56C33.8143 111.529 33.8108 111.498 33.8072 111.467C33.7918 111.351 33.7675 111.234 33.7631 111.117C33.7558 110.931 33.7105 110.751 33.6707 110.571C33.6314 110.393 33.5631 110.224 33.442 110.082C33.3446 109.967 33.222 109.904 33.0706 109.874C32.8284 109.828 32.6055 109.885 32.3881 109.972C31.9974 110.129 31.6711 110.382 31.3631 110.66C30.8065 111.163 30.3352 111.738 29.8982 112.342C28.9609 113.637 28.1914 115.027 27.5175 116.47C27.4222 116.674 27.3252 116.877 27.2309 117.081C27.1962 117.156 27.1668 117.234 27.135 117.311C26.4017 117.311 25.6683 117.31 24.935 117.31C24.9337 116.951 24.9323 116.592 24.9306 116.233C24.9304 116.185 24.9277 116.139 24.9262 116.091L24.9253 116.092Z" fill="#1E3A44"/>
<path d="M18.0203 109.4C18.0188 109.432 18.0159 109.465 18.0159 109.497C18.0159 110.798 18.0159 112.1 18.0159 113.401C18.0159 113.433 18.0188 113.466 18.0201 113.498C18.0186 113.527 18.0159 113.556 18.0159 113.585C18.0159 114.566 18.0159 115.548 18.0159 116.529C18.0159 116.558 18.0188 116.586 18.0201 116.615C18.0186 116.804 18.0172 116.992 18.0155 117.181C18.015 117.225 18.0126 117.268 18.0113 117.311C17.2335 117.312 16.456 117.313 15.6783 117.313C15.6765 117.27 15.673 117.226 15.673 117.183C15.6727 115.137 15.673 113.091 15.6725 111.045C15.6725 110.998 15.669 110.951 15.6672 110.904C15.669 110.868 15.6723 110.832 15.6723 110.796C15.6725 109.32 15.6725 107.844 15.6723 106.369C15.6723 106.333 15.669 106.297 15.667 106.261C15.6688 106.221 15.6721 106.181 15.6721 106.142C15.6723 105.353 15.6721 104.564 15.6725 103.775C15.6725 103.731 15.6758 103.688 15.6776 103.645C16.4169 103.645 17.1562 103.645 17.8955 103.645C17.9284 103.645 17.9616 103.647 17.9945 103.648C18.0002 103.655 18.0062 103.661 18.0119 103.667C18.013 104.023 18.0137 104.379 18.015 104.735C18.015 104.778 18.0179 104.822 18.0192 104.865C18.0177 104.898 18.0148 104.93 18.0148 104.963C18.0148 106.409 18.0148 107.856 18.0148 109.302C18.0148 109.335 18.0177 109.367 18.019 109.4L18.0203 109.4Z" fill="#1E3A44"/>
<path d="M20.3366 107.571C20.377 107.57 20.4173 107.567 20.4577 107.567C21.142 107.567 21.8263 107.567 22.5105 107.567C22.551 107.567 22.5914 107.565 22.6318 107.564C22.6394 107.566 22.6469 107.568 22.6544 107.569C22.6561 107.613 22.6595 107.656 22.6595 107.699C22.6597 109.015 22.6597 110.33 22.6599 111.646C22.6599 111.689 22.6632 111.733 22.665 111.776C22.6632 111.819 22.6597 111.863 22.6597 111.906C22.6595 113.665 22.6597 115.424 22.6592 117.183C22.6592 117.227 22.6557 117.27 22.6539 117.313C22.6466 117.319 22.6394 117.325 22.6318 117.33C22.0985 117.332 21.5649 117.333 21.0315 117.333C20.807 117.333 20.5828 117.331 20.3583 117.33C20.3508 117.33 20.3435 117.329 20.3359 117.329C20.3293 117.33 20.3227 117.33 20.3161 117.328C20.3161 116.404 20.3161 115.479 20.3161 114.555C20.3161 114.522 20.3132 114.49 20.3116 114.457C20.3132 114.429 20.3158 114.4 20.3158 114.371C20.3161 113.396 20.3161 112.422 20.3158 111.448C20.3158 111.419 20.313 111.391 20.3116 111.362C20.3132 111.318 20.3158 111.275 20.3158 111.232C20.3161 110.061 20.3158 108.891 20.3163 107.721C20.3163 107.678 20.3183 107.634 20.3192 107.591C20.3249 107.584 20.3304 107.578 20.3362 107.571L20.3366 107.571Z" fill="#1E3A44"/>
<path d="M21.3269 106.023C21.1217 106.01 20.9403 105.929 20.7702 105.824C20.5234 105.671 20.3583 105.449 20.2509 105.186C20.218 105.106 20.2076 105.016 20.1868 104.931C20.1879 104.916 20.1891 104.902 20.1899 104.887C20.1139 104.158 20.6946 103.566 21.3725 103.51C21.4615 103.511 21.5503 103.511 21.6394 103.512C21.8265 103.544 22.0095 103.589 22.1732 103.69C22.4328 103.85 22.6193 104.067 22.7222 104.354C22.7589 104.457 22.7793 104.561 22.7941 104.667C22.7947 104.676 22.7954 104.685 22.796 104.694C22.7985 104.721 22.8009 104.748 22.8036 104.774C22.7994 104.82 22.7952 104.865 22.7912 104.911C22.789 104.917 22.7892 104.924 22.7925 104.931C22.7773 104.985 22.7616 105.039 22.7472 105.093C22.6195 105.575 22.2898 105.854 21.8208 105.993C21.7697 106.008 21.7156 106.012 21.6628 106.022C21.551 106.022 21.439 106.022 21.3272 106.022L21.3269 106.023Z" fill="#1E3A44"/>
</g>
<path d="M73.8175 95.0099C73.8175 92.3313 75.9889 90.1599 78.6675 90.1599H130.667C133.346 90.1599 135.517 92.3313 135.517 95.0099V126.01C135.517 128.688 133.346 130.86 130.667 130.86H78.6675C75.9889 130.86 73.8175 128.688 73.8175 126.01V95.0099Z" fill="white"/>
<path d="M73.8175 95.0099C73.8175 92.3313 75.9889 90.1599 78.6675 90.1599H130.667C133.346 90.1599 135.517 92.3313 135.517 95.0099V126.01C135.517 128.688 133.346 130.86 130.667 130.86H78.6675C75.9889 130.86 73.8175 128.688 73.8175 126.01V95.0099Z" stroke="#999999" stroke-width="0.3"/>
<g clip-path="url(#clip6_1_635)">
<path d="M95.1448 104.026L91.5751 112.866L90.1373 105.342C89.9721 104.497 89.2945 104.026 88.5673 104.026H82.7501L82.6675 104.4C83.8574 104.66 85.2125 105.066 86.0388 105.505C86.5346 105.781 86.6834 106.009 86.8486 106.642L89.5754 117.01H93.1947L98.731 104.01H95.1448" fill="#1434CB"/>
<path d="M101.259 104.01L98.731 117.01H101.791L104.318 104.01H101.259Z" fill="#1434CB"/>
<path d="M105.642 108.202C105.626 110.007 107.245 111.012 108.46 111.625C109.721 112.237 110.141 112.629 110.126 113.179C110.11 114.027 109.129 114.388 108.195 114.404C106.576 114.435 105.642 113.964 104.894 113.603L104.318 116.35C105.066 116.696 106.451 117.01 107.899 117.01C111.278 117.01 113.489 115.33 113.504 112.708C113.52 109.395 108.958 109.207 108.989 107.731C109.005 107.276 109.425 106.805 110.359 106.679C110.826 106.616 112.088 106.569 113.536 107.244L114.096 104.575C113.318 104.292 112.321 104.01 111.075 104.01C107.899 104.057 105.657 105.768 105.642 108.202Z" fill="#1434CB"/>
<path d="M123.838 104.01H120.839C120.162 104.01 119.602 104.384 119.348 104.969L114.096 117.01H117.773L118.501 115.076H122.991L123.415 117.01H126.667L123.838 104.01ZM119.518 112.395L121.364 107.52L122.432 112.395H119.518Z" fill="#1434CB"/>
</g>
<path d="M146.817 95.0099C146.817 92.3313 148.989 90.1599 151.667 90.1599H203.667C206.346 90.1599 208.517 92.3313 208.517 95.0099V126.01C208.517 128.688 206.346 130.86 203.667 130.86H151.667C148.989 130.86 146.817 128.688 146.817 126.01V95.0099Z" fill="#016FD0"/>
<path d="M146.817 95.0099C146.817 92.3313 148.989 90.1599 151.667 90.1599H203.667C206.346 90.1599 208.517 92.3313 208.517 95.0099V126.01C208.517 128.688 206.346 130.86 203.667 130.86H151.667C148.989 130.86 146.817 128.688 146.817 126.01V95.0099Z" stroke="#999999" stroke-width="0.3"/>
<g clip-path="url(#clip7_1_635)">
<path fill-rule="evenodd" clip-rule="evenodd" d="M181.883 124.864V109.814L208.668 109.838V113.996L205.571 117.304L208.668 120.643V124.888H203.726L201.098 121.99L198.49 124.899L181.883 124.864Z" fill="white"/>
<path fill-rule="evenodd" clip-rule="evenodd" d="M183.67 123.215V111.471H193.629V114.176H186.895V116.012H193.468V118.672H186.895V120.476H193.629V123.215H183.67Z" fill="#016FD0"/>
<path fill-rule="evenodd" clip-rule="evenodd" d="M193.578 123.215L199.089 117.335L193.578 111.471H197.843L201.21 115.193L204.586 111.471H208.667V111.565L203.275 117.335L208.667 123.047V123.215H204.544L201.119 119.456L197.726 123.215H193.578Z" fill="#016FD0"/>
<path fill-rule="evenodd" clip-rule="evenodd" d="M183.131 96.4562H189.588L191.856 101.606V96.4562H199.826L201.201 100.316L202.58 96.4562H208.667V111.506H176.5L183.131 96.4562Z" fill="white"/>
<path fill-rule="evenodd" clip-rule="evenodd" d="M184.354 98.0918L179.144 109.826H182.718L183.701 107.476H189.028L190.01 109.826H193.673L188.482 98.0918H184.354ZM184.802 104.842L186.365 101.106L187.926 104.842H184.802Z" fill="#016FD0"/>
<path fill-rule="evenodd" clip-rule="evenodd" d="M193.622 109.824V98.0895L198.646 98.1081L201.231 105.32L203.833 98.0895H208.667V109.824L205.557 109.852V101.79L202.619 109.824H199.78L196.781 101.764V109.824H193.622Z" fill="#016FD0"/>
</g>
</g>
<defs>
<linearGradient id="paint0_linear_1_635" x1="180.694" y1="61.8363" x2="177.634" y2="57.1785" gradientUnits="userSpaceOnUse">
<stop stop-color="#F89F20"/>
<stop offset="0.25" stop-color="#F79A20"/>
<stop offset="0.53" stop-color="#F68D20"/>
<stop offset="0.62" stop-color="#F58720"/>
<stop offset="0.72" stop-color="#F48120"/>
<stop offset="1" stop-color="#F37521"/>
</linearGradient>
<linearGradient id="paint1_linear_1_635" x1="180.229" y1="61.7721" x2="175.738" y2="53.2336" gradientUnits="userSpaceOnUse">
<stop stop-color="#F58720"/>
<stop offset="0.36" stop-color="#E16F27"/>
<stop offset="0.7" stop-color="#D4602C"/>
<stop offset="0.98" stop-color="#D05B2E"/>
</linearGradient>
<clipPath id="clip0_1_635">
<rect width="36" height="14" fill="white" transform="translate(167.667 7.00989)"/>
</clipPath>
<clipPath id="clip1_1_635">
<rect width="210" height="93" fill="white" transform="translate(0.66748 38.0099)"/>
</clipPath>
<clipPath id="clip2_1_635">
<rect width="36" height="22" fill="white" transform="translate(13.6675 47.5099)"/>
</clipPath>
<clipPath id="clip3_1_635">
<path d="M146.667 43.0099C146.667 40.2485 148.906 38.0099 151.667 38.0099H203.667C206.429 38.0099 208.667 40.2485 208.667 43.0099V74.0099C208.667 76.7713 206.429 79.0099 203.667 79.0099H151.667C148.906 79.0099 146.667 76.7713 146.667 74.0099V43.0099Z" fill="white"/>
</clipPath>
<clipPath id="clip4_1_635">
<rect width="64" height="42" fill="white" transform="translate(145.667 37.5099)"/>
</clipPath>
<clipPath id="clip5_1_635">
<rect width="32" height="14" fill="white" transform="translate(15.6675 103.51)"/>
</clipPath>
<clipPath id="clip6_1_635">
<rect x="82.6675" y="104.01" width="44" height="13" fill="white"/>
</clipPath>
<clipPath id="clip7_1_635">
<rect width="42" height="42" fill="white" transform="translate(166.667 89.5099)"/>
</clipPath>
</defs>
</svg>
