<svg width="80" height="80" viewBox="0 0 80 80" fill="none" xmlns="http://www.w3.org/2000/svg">
<path d="M80 40C80 62.0914 62.0914 80 40 80C17.9086 80 0 62.0914 0 40C0 17.9086 17.9086 0 40 0C62.0914 0 80 17.9086 80 40Z" fill="#1C9797"/>
<g clip-path="url(#clip0_32_851)">
<g filter="url(#filter0_d_32_851)">
<path d="M40.0088 48.198C42.2919 48.198 44.2345 47.3941 45.8366 45.7861C47.4387 44.1782 48.2398 42.2326 48.2398 39.9494C48.2398 37.6663 47.4358 35.7238 45.8278 34.1217C44.2199 32.5196 42.2743 31.7185 39.9912 31.7185C37.7081 31.7185 35.7655 32.5224 34.1634 34.1304C32.5613 35.7384 31.7602 37.684 31.7602 39.9671C31.7602 42.2503 32.5642 44.1929 34.1722 45.7949C35.7801 47.3971 37.7257 48.198 40.0088 48.198ZM39.9895 45.6821C38.3966 45.6821 37.0462 45.1246 35.9382 44.0096C34.8302 42.8946 34.2762 41.5407 34.2762 39.9478C34.2762 38.3549 34.8337 37.0045 35.9487 35.8965C37.0637 34.7885 38.4176 34.2344 40.0105 34.2344C41.6034 34.2344 42.9538 34.7919 44.0618 35.9069C45.1698 37.022 45.7238 38.3759 45.7238 39.9688C45.7238 41.5617 45.1663 42.9122 44.0513 44.0202C42.9363 45.1281 41.5824 45.6821 39.9895 45.6821ZM40.0029 54.5415C35.2209 54.5415 30.8743 53.2095 26.9632 50.5452C23.0521 47.881 20.1327 44.352 18.2052 39.9583C20.1327 35.5645 23.0511 32.0357 26.9603 29.3714C30.8695 26.7071 35.2152 25.375 39.9971 25.375C44.7791 25.375 49.1257 26.7071 53.0368 29.3714C56.9479 32.0357 59.8673 35.5645 61.7948 39.9583C59.8673 44.352 56.9489 47.881 53.0397 50.5452C49.1304 53.2095 44.7848 54.5415 40.0029 54.5415ZM39.9942 51.9241C44.0623 51.9241 47.7958 50.8417 51.1946 48.6769C54.5934 46.5121 57.1866 43.6058 58.9744 39.9583C57.1866 36.3107 54.5953 33.4045 51.2004 31.2397C47.8056 29.0749 44.074 27.9924 40.0058 27.9924C35.9377 27.9924 32.2042 29.0749 28.8054 31.2397C25.4066 33.4045 22.8062 36.3107 21.0043 39.9583C22.8062 43.6058 25.4047 46.5121 28.7996 48.6769C32.1944 50.8417 35.926 51.9241 39.9942 51.9241Z" fill="white"/>
</g>
</g>
<defs>
<filter id="filter0_d_32_851" x="8.2052" y="19.375" width="63.5896" height="49.1665" filterUnits="userSpaceOnUse" color-interpolation-filters="sRGB">
<feFlood flood-opacity="0" result="BackgroundImageFix"/>
<feColorMatrix in="SourceAlpha" type="matrix" values="0 0 0 0 0 0 0 0 0 0 0 0 0 0 0 0 0 0 127 0" result="hardAlpha"/>
<feOffset dy="4"/>
<feGaussianBlur stdDeviation="5"/>
<feComposite in2="hardAlpha" operator="out"/>
<feColorMatrix type="matrix" values="0 0 0 0 0 0 0 0 0 0 0 0 0 0 0 0 0 0 0.15 0"/>
<feBlend mode="normal" in2="BackgroundImageFix" result="effect1_dropShadow_32_851"/>
<feBlend mode="normal" in="SourceGraphic" in2="effect1_dropShadow_32_851" result="shape"/>
</filter>
<clipPath id="clip0_32_851">
<rect width="50" height="47" fill="white" transform="translate(15 19)"/>
</clipPath>
</defs>
</svg>
